<?xml version="1.0" encoding="UTF-8"?>
<svg version="1.1" xmlns="http://www.w3.org/2000/svg" width="1024" height="1024">
<path d="M0 0 C337.92 0 675.84 0 1024 0 C1024 337.92 1024 675.84 1024 1024 C686.08 1024 348.16 1024 0 1024 C0 686.08 0 348.16 0 0 Z " fill="#67AEAE" transform="translate(0,0)"/>
<path d="M0 0 C0.81795044 -0.0080365 1.63590088 -0.016073 2.4786377 -0.02435303 C16.56827167 -0.12918346 31.06637273 0.55218942 44.4375 5.375 C45.68660156 5.7565625 46.93570312 6.138125 48.22265625 6.53125 C64.50779764 11.58552356 80.47343619 18.48853394 94.4375 28.375 C95.32050781 28.97570312 96.20351563 29.57640625 97.11328125 30.1953125 C104.47233434 35.3372817 110.95676088 41.19505468 117.4375 47.375 C118.51837891 48.37660156 118.51837891 48.37660156 119.62109375 49.3984375 C144.7143689 73.33045444 160.47938257 108.97290243 162.4375 143.375 C162.47967993 146.04430576 162.46739849 148.70506475 162.4375 151.375 C163.2625 150.85550781 164.0875 150.33601562 164.9375 149.80078125 C187.57789033 135.96683198 212.86392577 133.40505596 238.4375 139.375 C239.38753906 139.57996094 240.33757813 139.78492188 241.31640625 139.99609375 C265.17639123 145.72106779 285.48293823 160.32251519 298.4140625 181.02734375 C299.08179688 182.13207031 299.74953125 183.23679687 300.4375 184.375 C300.97117187 185.20386719 301.50484375 186.03273438 302.0546875 186.88671875 C313.279006 207.08415063 314.99747231 236.27239404 309.4375 258.375 C308.79207101 260.38195438 308.13030809 262.38390447 307.4375 264.375 C308.076875 264.08625 308.71625 263.7975 309.375 263.5 C317.84335153 260.38917699 326.03258857 260.00231108 334.96435547 260.00439453 C337.03829002 260.00005071 339.11003783 259.96371516 341.18359375 259.92578125 C362.56672905 259.74286606 380.44612229 268.1053655 395.8984375 282.69921875 C410.9378829 298.54848044 418.24250209 318.15417045 417.84912109 339.84887695 C417.81196367 341.96808888 417.80810801 344.08556991 417.80859375 346.20507812 C417.74269783 355.40735613 416.06101719 361.92012656 412.4375 370.375 C412.086875 371.468125 411.73625 372.56125 411.375 373.6875 C410.4375 376.375 410.4375 376.375 408.4375 378.375 C408.210625 379.07625 407.98375 379.7775 407.75 380.5 C405.81085274 384.7476559 402.81562247 388.1641902 399.4375 391.375 C398.7775 391.375 398.1175 391.375 397.4375 391.375 C397.4375 392.035 397.4375 392.695 397.4375 393.375 C396.4475 393.87 396.4475 393.87 395.4375 394.375 C395.16292969 394.973125 394.88835938 395.57125 394.60546875 396.1875 C390.94029422 403.05204092 381.01644726 408.90390551 373.73828125 411.2421875 C370.08952293 412.26520385 366.45463604 413.18272753 362.73046875 413.88671875 C360.39754597 414.26945131 360.39754597 414.26945131 358.375 415.5 C355.9755335 416.58363003 354.86721792 416.2427564 352.4375 415.375 C352.4375 416.035 352.4375 416.695 352.4375 417.375 C351.468125 417.354375 350.49875 417.33375 349.5 417.3125 C346.56284105 417.01881501 346.56284105 417.01881501 345.4375 418.375 C342.10182524 418.44761333 338.77717891 418.37108657 335.44140625 418.3125 C332.51279546 418.15880594 332.51279546 418.15880594 330.4375 419.375 C329.09529616 419.4738921 327.74841172 419.51326154 326.40258789 419.52026367 C325.15603172 419.52983345 325.15603172 419.52983345 323.8842926 419.53959656 C322.98532761 419.54070938 322.08636261 419.5418222 321.16015625 419.54296875 C319.77672279 419.54796135 319.77672279 419.54796135 318.36534119 419.55305481 C316.41259257 419.5581227 314.45983527 419.56046318 312.50708008 419.56030273 C309.51564296 419.56248857 306.52457491 419.58064391 303.53320312 419.59960938 C301.6380221 419.60254342 299.74283931 419.60452814 297.84765625 419.60546875 C296.95071548 419.61265427 296.05377472 419.61983978 295.12965393 419.62724304 C294.29546432 419.62416641 293.46127472 419.62108978 292.60180664 419.61791992 C291.8683754 419.61934494 291.13494415 419.62076996 290.37928772 419.62223816 C288.4375 419.375 288.4375 419.375 285.4375 417.375 C285.4375 418.035 285.4375 418.695 285.4375 419.375 C282.97887599 419.42883848 280.5214245 419.46859038 278.0625 419.5 C277.36382813 419.51675781 276.66515625 419.53351563 275.9453125 419.55078125 C274.10852514 419.56844267 272.27148037 419.47803261 270.4375 419.375 C269.7775 418.715 269.1175 418.055 268.4375 417.375 C268.4375 418.035 268.4375 418.695 268.4375 419.375 C266.66742286 419.45614106 264.89627902 419.51425505 263.125 419.5625 C261.64580078 419.61470703 261.64580078 419.61470703 260.13671875 419.66796875 C257.4375 419.375 257.4375 419.375 255.58203125 417.86328125 C255.20433594 417.37214844 254.82664062 416.88101562 254.4375 416.375 C254.1075 417.365 253.7775 418.355 253.4375 419.375 C245.77083333 419.375 238.10416667 419.375 230.4375 419.375 C228.31086967 419.38501692 226.18424247 419.3957026 224.05761719 419.40673828 C217.487305 419.43890486 210.91701455 419.46195639 204.34664536 419.47862434 C200.37314159 419.48905614 196.39972384 419.50321604 192.42626953 419.52587891 C188.57784434 419.54768404 184.72950181 419.5595836 180.88101959 419.56475449 C179.41868027 419.5684336 177.9563452 419.57561782 176.49404144 419.58646011 C174.44091648 419.60107975 172.38812997 419.60297373 170.33496094 419.60205078 C168.58647858 419.60871262 168.58647858 419.60871262 166.80267334 419.61550903 C163.04779288 419.34714762 160.01125842 418.52297954 156.4375 417.375 C156.1075 418.035 155.7775 418.695 155.4375 419.375 C153.66700311 419.42910687 151.89603151 419.46784119 150.125 419.5 C149.13886719 419.52320313 148.15273438 419.54640625 147.13671875 419.5703125 C144.4375 419.375 144.4375 419.375 141.4375 417.375 C141.4375 418.035 141.4375 418.695 141.4375 419.375 C127.19482614 419.54798794 127.19482614 419.54798794 120.5 418.8125 C115.93214752 418.32015662 111.96177575 418.60672676 107.4375 419.375 C107.4375 418.715 107.4375 418.055 107.4375 417.375 C106.32375 417.560625 105.21 417.74625 104.0625 417.9375 C100.4375 418.375 100.4375 418.375 98.4375 417.375 C98.4375 418.035 98.4375 418.695 98.4375 419.375 C76.4375 419.375 54.4375 419.375 32.4375 419.375 C30.46089136 419.38346541 28.48428283 419.39195911 26.50767517 419.40065002 C23.17610404 419.41392033 19.84452739 419.42212933 16.51293945 419.42993164 C14.75251676 419.43498237 12.9920983 419.44182195 11.23168945 419.45043945 C8.69481376 419.46252997 6.15799292 419.46823182 3.62109375 419.47265625 C2.83149765 419.47781754 2.04190155 419.48297882 1.2283783 419.48829651 C-4.33475725 419.48887138 -4.33475725 419.48887138 -6.5625 418.375 C-7.2225 418.705 -7.8825 419.035 -8.5625 419.375 C-11.05433069 419.46788148 -13.51792812 419.50082515 -16.00976562 419.48852539 C-16.77737717 419.48867142 -17.54498871 419.48881744 -18.33586121 419.4889679 C-20.88018595 419.48826973 -23.424438 419.48048056 -25.96875 419.47265625 C-27.7322994 419.47079137 -29.49584931 419.4693678 -31.25939941 419.46836853 C-35.90783105 419.4645459 -40.55623156 419.45471965 -45.20465088 419.44366455 C-49.9372109 419.43345614 -54.6697759 419.42886917 -59.40234375 419.42382812 C-67.71367506 419.41424358 -76.02498678 419.39980255 -84.33630371 419.38172913 C-86.0783668 419.37809557 -87.82043313 419.375 -89.5625 419.375 C-91.23092534 419.05058396 -92.89730481 418.71560811 -94.5625 418.375 C-96.56147128 418.03555205 -98.56125639 417.70078384 -100.5625 417.375 C-100.5625 418.035 -100.5625 418.695 -100.5625 419.375 C-104.1925 419.375 -107.8225 419.375 -111.5625 419.375 C-111.5625 418.715 -111.5625 418.055 -111.5625 417.375 C-114.2025 417.375 -116.8425 417.375 -119.5625 417.375 C-119.5625 418.035 -119.5625 418.695 -119.5625 419.375 C-123.89583333 419.375 -128.22916667 419.375 -132.5625 419.375 C-134.39320395 419.37706228 -136.22390766 419.37933729 -138.05461121 419.38172913 C-154.02267092 419.40193339 -169.99072689 419.41706396 -185.9587965 419.42681217 C-194.15930388 419.43195348 -202.35980157 419.43895935 -210.56030273 419.45043945 C-217.72438432 419.46046351 -224.88845887 419.46687138 -232.05254728 419.46908849 C-235.83686624 419.47038198 -239.62116507 419.47338056 -243.40547752 419.48073006 C-283.60525992 419.55561151 -283.60525992 419.55561151 -298.1875 416 C-299.11433594 415.79117187 -300.04117188 415.58234375 -300.99609375 415.3671875 C-305.9039667 414.215698 -310.12502901 412.83670941 -314.5625 410.375 C-315.50609375 409.93800781 -316.4496875 409.50101563 -317.421875 409.05078125 C-328.53424298 403.80994825 -339.04264044 396.67756957 -344.5625 385.375 C-345.12066406 384.43269531 -345.67882812 383.49039062 -346.25390625 382.51953125 C-352.13826678 372.04070133 -354.31016327 361.31759941 -351.5625 349.375 C-351.583125 348.570625 -351.60375 347.76625 -351.625 346.9375 C-351.54811989 343.78541553 -350.63113174 341.32945247 -349.5625 338.375 C-349.418125 337.694375 -349.27375 337.01375 -349.125 336.3125 C-348.5625 334.375 -348.5625 334.375 -347.125 332.0625 C-345.30387187 328.93015962 -344.45428977 325.87355986 -343.5625 322.375 C-342.9025 322.375 -342.2425 322.375 -341.5625 322.375 C-341.315 321.1375 -341.315 321.1375 -341.0625 319.875 C-337.3974084 311.3231196 -329.91042517 306.72698018 -321.5625 303.375 C-306.05897989 297.45004027 -306.05897989 297.45004027 -299.5625 296.375 C-298.469375 296.189375 -297.37625 296.00375 -296.25 295.8125 C-295.363125 295.668125 -294.47625 295.52375 -293.5625 295.375 C-293.88734375 294.59253906 -294.2121875 293.81007813 -294.546875 293.00390625 C-295.84697355 288.35855412 -295.86190505 284.11123352 -295.8125 279.3125 C-295.80645752 278.38163574 -295.80041504 277.45077148 -295.79418945 276.49169922 C-295.65426101 266.71027724 -295.0915817 257.22729605 -290.5625 248.375 C-289.9025 248.375 -289.2425 248.375 -288.5625 248.375 C-288.3459375 246.5496875 -288.3459375 246.5496875 -288.125 244.6875 C-287.08292636 239.85536592 -284.84342324 236.31086548 -282.0625 232.3125 C-281.65845947 231.72831299 -281.25441895 231.14412598 -280.83813477 230.54223633 C-279.80509057 229.1088635 -278.6896712 227.73559658 -277.5625 226.375 C-276.9025 226.375 -276.2425 226.375 -275.5625 226.375 C-275.32917969 225.82070313 -275.09585938 225.26640625 -274.85546875 224.6953125 C-270.46790519 216.82155795 -262.23868177 210.8186447 -254.875 205.875 C-254.27018799 205.46620605 -253.66537598 205.05741211 -253.04223633 204.63623047 C-246.66383719 200.50826936 -239.85744049 198.4080162 -232.5625 196.375 C-231.66144531 196.04113281 -230.76039063 195.70726562 -229.83203125 195.36328125 C-220.56067084 192.08087415 -212.25142851 191.95727374 -202.5625 192.375 C-202.5625 193.035 -202.5625 193.695 -202.5625 194.375 C-200.73138672 194.43107422 -200.73138672 194.43107422 -198.86328125 194.48828125 C-189.03892698 194.8571819 -180.07225823 195.77068369 -170.5625 198.375 C-170.77471191 197.46560669 -170.77471191 197.46560669 -170.99121094 196.5378418 C-172.61407246 188.79502404 -172.87013253 181.20703717 -172.82324219 173.32495117 C-172.81260239 171.2078733 -172.82315308 169.09166027 -172.8359375 166.97460938 C-172.85678413 147.81169076 -169.84641106 129.18812902 -162.5625 111.375 C-162.32160645 110.78251465 -162.08071289 110.1900293 -161.83251953 109.57958984 C-143.35248248 64.55076716 -107.91468074 30.12593729 -63.19140625 11.2265625 C-42.29899092 2.71401925 -22.41852223 0.12271169 0 0 Z " fill="#A8BCAF" transform="translate(475.5625,142.625)"/>
<path d="M0 0 C0.78310547 -0.00475342 1.56621094 -0.00950684 2.37304688 -0.0144043 C5.63115905 -0.00476702 8.26284233 0.08761411 11.375 1.125 C12.71279338 0.81004325 14.04589921 0.47482848 15.375 0.125 C26.18152457 0.07917899 37.22623437 1.70000265 47.625 4.5625 C48.75832764 4.87018311 48.75832764 4.87018311 49.91455078 5.18408203 C53.69753188 6.30851448 55.12063785 6.74345677 57.375 10.125 C58.13490234 9.80015625 58.13490234 9.80015625 58.91015625 9.46875 C62.56037333 8.95968644 65.46984445 10.30818427 68.8125 11.625 C69.51536133 11.89546143 70.21822266 12.16592285 70.94238281 12.44458008 C78.49480367 15.43400896 86.0959683 18.91385928 92.61328125 23.8046875 C94.2819922 25.24271443 94.2819922 25.24271443 96.3125 25.5625 C99.25483442 26.36495484 101.01788316 28.20641652 103.375 30.125 C104.95087891 30.99511719 104.95087891 30.99511719 106.55859375 31.8828125 C110.75621378 34.24277237 114.40290451 37.147913 118.125 40.1875 C118.78371094 40.71666016 119.44242188 41.24582031 120.12109375 41.79101562 C126.27324215 46.76389825 126.27324215 46.76389825 128.375 49.125 C128.375 49.785 128.375 50.445 128.375 51.125 C129.014375 51.393125 129.65375 51.66125 130.3125 51.9375 C132.375 53.125 132.375 53.125 133.375 56.125 C134.69386866 56.81984364 136.02906632 57.48415309 137.375 58.125 C138.86376953 59.56689453 138.86376953 59.56689453 140.2578125 61.2578125 C140.78028564 61.89066162 141.30275879 62.52351074 141.84106445 63.17553711 C142.38851318 63.86010986 142.93596191 64.54468262 143.5 65.25 C144.07258545 65.96357666 144.6451709 66.67715332 145.23510742 67.41235352 C156.00363999 81.07508855 165.12566927 96.46198684 170.375 113.125 C170.74625 114.15625 171.1175 115.1875 171.5 116.25 C172.375 119.125 172.375 119.125 172.375 123.125 C173.035 123.125 173.695 123.125 174.375 123.125 C176.02181249 129.43260257 177.63809887 135.64027007 178.375 142.125 C179.591875 141.795 180.80875 141.465 182.0625 141.125 C185.24710604 140.32177787 188.0722843 139.91858027 191.375 140.125 C191.375 140.785 191.375 141.445 191.375 142.125 C191.71144531 141.65449219 192.04789063 141.18398438 192.39453125 140.69921875 C195.3194744 138.37426394 198.45777214 138.28426263 202.0625 137.9375 C203.20525391 137.82233032 203.20525391 137.82233032 204.37109375 137.70483398 C206.70441502 137.48680945 209.03809534 137.30007919 211.375 137.125 C212.62925781 137.02703125 213.88351562 136.9290625 215.17578125 136.828125 C231.92793666 136.19129544 250.21170618 139.96285042 265.375 147.125 C266.50550781 147.63804687 267.63601563 148.15109375 268.80078125 148.6796875 C284.62245295 156.18417441 299.39207798 166.49063475 309.375 181.125 C309.375 181.785 309.375 182.445 309.375 183.125 C310.035 183.125 310.695 183.125 311.375 183.125 C317.38553931 193.76067062 323.09556873 204.26348589 325.734375 216.2734375 C326.35825584 219.21921797 326.35825584 219.21921797 327.3828125 222.41796875 C328.51243732 226.63849611 329.06588348 230.72445474 329.5 235.0625 C329.58491699 235.88210205 329.66983398 236.7017041 329.75732422 237.54614258 C330.51207659 245.42092815 330.57126725 253.21979127 330.375 261.125 C331.07625 260.96386719 331.7775 260.80273438 332.5 260.63671875 C342.15776593 258.91774139 351.82581578 260.46201282 361.375 262.125 C362.633125 262.269375 363.89125 262.41375 365.1875 262.5625 C369.15389787 263.26245257 372.67508 264.59175315 376.375 266.125 C377.50035156 266.57230469 378.62570312 267.01960938 379.78515625 267.48046875 C386.08040392 270.0306115 391.42519221 272.42902851 396.375 277.125 C397.179375 277.599375 397.98375 278.07375 398.8125 278.5625 C413.85550718 287.73506536 424.36220938 305.01439308 430.375 321.125 C430.81972656 322.20394531 430.81972656 322.20394531 431.2734375 323.3046875 C433.09395251 327.79288787 434.10408112 332.25645968 434.9453125 337.0234375 C435.28977182 339.17036058 435.28977182 339.17036058 436.375 341.125 C439.39936084 360.27928535 437.299033 379.41973876 429.375 397.125 C429.045 397.87136719 428.715 398.61773438 428.375 399.38671875 C424.38096814 407.85739465 418.69837309 416.23121954 412.375 423.125 C411.715 423.125 411.055 423.125 410.375 423.125 C410.00181641 423.99705078 410.00181641 423.99705078 409.62109375 424.88671875 C401.95198676 438.66226202 380.80952532 447.12195773 366.3125 451.4375 C357.35355102 453.64655591 348.22851024 454.2681184 339.04589844 454.921875 C336.40083399 455.12303529 333.76478597 455.3759511 331.125 455.63671875 C324.30210304 456.26527059 317.47134258 456.51933099 310.625 456.75 C309.96202911 456.77279022 309.29905823 456.79558044 308.61599731 456.81906128 C300.15847956 457.10103385 291.89477261 457.14413359 283.46484375 456.38671875 C275.51454923 455.71330569 267.62899816 456.07416464 259.6875 456.6875 C245.5745713 457.72478565 245.5745713 457.72478565 240.375 455.125 C240.045 455.785 239.715 456.445 239.375 457.125 C238.88 456.939375 238.385 456.75375 237.875 456.5625 C234.93363067 456.04776037 232.39647118 456.45722771 229.47265625 456.96875 C227.375 457.125 227.375 457.125 225.08447266 456.64306641 C222.29764154 456.11020863 219.76050581 455.99564538 216.92578125 455.9921875 C215.40694336 455.99025391 215.40694336 455.99025391 213.85742188 455.98828125 C212.81134766 455.99214844 211.76527344 455.99601562 210.6875 456 C209.62982422 455.99613281 208.57214844 455.99226563 207.48242188 455.98828125 C205.96938477 455.99021484 205.96938477 455.99021484 204.42578125 455.9921875 C203.50450439 455.99331543 202.58322754 455.99444336 201.6340332 455.99560547 C199.34024061 455.97765721 199.34024061 455.97765721 197.375 457.125 C194.63920907 457.03298785 191.9307205 456.88152798 189.20141602 456.69140625 C178.8868806 456.06402547 168.60872305 456.00761322 158.27805901 456.04983521 C155.0709098 456.06282995 151.86380283 456.06917 148.65663147 456.07397461 C141.87523485 456.08526522 135.09387442 456.10457743 128.3125 456.125 C120.38792249 456.14863761 112.4633636 456.16894917 104.53875923 456.18093872 C101.37777719 456.18742219 98.2168551 456.19991535 95.05589294 456.21264648 C93.13613945 456.21627547 91.2163854 456.21962764 89.29663086 456.22265625 C88.41729889 456.22782257 87.53796692 456.23298889 86.63198853 456.23831177 C80.60268629 456.23884315 80.60268629 456.23884315 78.375 455.125 C78.045 455.785 77.715 456.445 77.375 457.125 C77.375 456.465 77.375 455.805 77.375 455.125 C76.29616043 455.28765854 75.21732086 455.45031708 74.10578918 455.61790466 C68.63240604 456.29712007 63.19057703 456.25703487 57.68237305 456.23852539 C55.96146706 456.23874443 55.96146706 456.23874443 54.20579529 456.2389679 C50.4327502 456.2382741 46.65975517 456.23050542 42.88671875 456.22265625 C40.25975064 456.22078982 37.63278218 456.21936698 35.0058136 456.21836853 C28.80830955 456.21526886 22.61082328 456.20707543 16.41332704 456.19701904 C9.36578398 456.18583123 2.31824006 456.18033812 -4.72930968 456.17532361 C-18.63133268 456.16531547 -32.53334262 456.14886197 -46.43535328 456.12779331 C-51.01794912 456.12194734 -55.60046673 456.13391055 -60.18304443 456.14518738 C-85.69969134 456.20623632 -111.21632466 456.25119211 -136.73302841 456.28043652 C-149.84223108 456.29586451 -162.95137921 456.31688466 -176.06054688 456.35131836 C-187.50560681 456.38136592 -198.9506272 456.4006087 -210.39572549 456.40726548 C-216.4444674 456.41115075 -222.4930961 456.42017746 -228.54180145 456.44219017 C-234.25127108 456.46279853 -239.96058261 456.46878547 -245.67008591 456.46432304 C-247.74708546 456.46513739 -249.82409122 456.47095454 -251.9010582 456.48261642 C-266.19526337 456.55883003 -280.57383823 456.0164557 -294.625 453.125 C-294.955 452.795 -295.285 452.465 -295.625 452.125 C-297.39553322 451.79407891 -299.16729457 451.46853445 -300.94433594 451.17456055 C-308.05524723 449.99391999 -314.2060345 448.49381877 -320.625 445.125 C-321.57890625 444.6815625 -322.5328125 444.238125 -323.515625 443.78125 C-334.30169776 438.68632116 -342.12986745 431.85837172 -350.33984375 423.3828125 C-352.41122483 421.10250754 -352.41122483 421.10250754 -354.625 420.125 C-355.82757706 417.99531304 -356.93306013 415.88387233 -358 413.6875 C-358.31090576 413.05513428 -358.62181152 412.42276855 -358.94213867 411.77124023 C-361.42664199 406.65913346 -363.76268962 401.50010437 -365.625 396.125 C-366.16253906 394.62453125 -366.16253906 394.62453125 -366.7109375 393.09375 C-368.1691812 387.84955955 -367.96534554 382.4653414 -367.9375 377.0625 C-367.93258545 375.94649414 -367.9276709 374.83048828 -367.92260742 373.68066406 C-367.73459066 360.42500001 -364.76987391 349.36695295 -359.625 337.125 C-358.965 337.125 -358.305 337.125 -357.625 337.125 C-357.53089844 336.40957031 -357.43679688 335.69414062 -357.33984375 334.95703125 C-356.50646767 331.6554047 -355.15852459 329.57849084 -353.1875 326.8125 C-352.26130859 325.48798828 -352.26130859 325.48798828 -351.31640625 324.13671875 C-350.75824219 323.47285156 -350.20007813 322.80898438 -349.625 322.125 C-348.965 322.125 -348.305 322.125 -347.625 322.125 C-347.625 321.465 -347.625 320.805 -347.625 320.125 C-340.36142393 312.43534824 -331.23955168 306.68393933 -321.75 302.1875 C-321.10732178 301.88070313 -320.46464355 301.57390625 -319.80249023 301.2578125 C-316.43178167 299.71934791 -314.40498652 299.125 -310.625 299.125 C-310.67140625 298.01125 -310.7178125 296.8975 -310.765625 295.75 C-311.17087327 281.62086333 -309.22372753 268.80531341 -302.625 256.125 C-302.05910156 254.97386719 -301.49320312 253.82273437 -300.91015625 252.63671875 C-295.2965974 241.44664485 -288.23568403 232.34868853 -279.15625 223.68359375 C-277.52667459 222.18486609 -277.52667459 222.18486609 -276.625 220.125 C-275.965 220.125 -275.305 220.125 -274.625 220.125 C-274.625 219.465 -274.625 218.805 -274.625 218.125 C-271.48034153 215.5396951 -268.01441048 213.37553226 -264.625 211.125 C-263.25794922 210.196875 -263.25794922 210.196875 -261.86328125 209.25 C-255.98343353 205.35806085 -250.24770941 202.50132319 -243.625 200.125 C-242.40103516 199.61839844 -242.40103516 199.61839844 -241.15234375 199.1015625 C-223.53939565 192.03513084 -206.2673837 192.99533842 -187.625 194.125 C-187.64071045 193.29029175 -187.64071045 193.29029175 -187.65673828 192.4387207 C-187.88149134 178.52536859 -187.208013 164.94809569 -185.625 151.125 C-184.965 151.125 -184.305 151.125 -183.625 151.125 C-183.51414062 149.83722656 -183.40328125 148.54945313 -183.2890625 147.22265625 C-182.71988663 142.14667838 -181.49643994 137.4362883 -180 132.5625 C-179.7407373 131.70495117 -179.48147461 130.84740234 -179.21435547 129.96386719 C-176.64438097 121.72837094 -173.30387873 113.91812772 -169.625 106.125 C-168.965 106.125 -168.305 106.125 -167.625 106.125 C-167.52550049 105.4127124 -167.42600098 104.7004248 -167.32348633 103.96655273 C-165.97024762 98.46136389 -162.36028701 93.90390008 -159.3125 89.1875 C-158.95351624 88.62830872 -158.59453247 88.06911743 -158.22467041 87.49298096 C-152.34907239 78.36542196 -145.9814573 70.08907029 -138.625 62.125 C-137.58463812 60.90827484 -136.54827323 59.68812238 -135.515625 58.46484375 C-132.20460986 54.58267052 -128.52768855 51.40035282 -124.625 48.125 C-123.74972656 47.361875 -122.87445313 46.59875 -121.97265625 45.8125 C-112.24152844 37.45287343 -101.78176517 30.43871483 -90.625 24.125 C-89.62082031 23.51140625 -88.61664063 22.8978125 -87.58203125 22.265625 C-61.07630544 6.32926315 -30.67006704 0.15529919 0 0 Z M-125 72.3125 C-140.84786522 89.98896505 -153.62140564 109.71972837 -161.625 132.125 C-161.85026367 132.75003418 -162.07552734 133.37506836 -162.30761719 134.01904297 C-168.57754438 151.55426729 -170.81240529 167.99110938 -170.81030273 186.52514648 C-170.8125007 188.68818537 -170.83077133 190.85072173 -170.84960938 193.01367188 C-170.88035814 200.89920916 -170.44270993 208.41234862 -168.625 216.125 C-169.42873047 215.90489258 -170.23246094 215.68478516 -171.06054688 215.45800781 C-180.86374952 212.83250649 -190.52546253 212.43427834 -200.625 212.125 C-200.625 211.465 -200.625 210.805 -200.625 210.125 C-211.47459984 209.65723282 -220.3231963 210.25129725 -230.625 214.125 C-232.24827082 214.65119788 -233.87311249 215.17259284 -235.5 215.6875 C-248.13991912 220.01529839 -257.99808285 226.88450361 -267.625 236.125 C-268.27082031 236.73085938 -268.91664063 237.33671875 -269.58203125 237.9609375 C-270.97751556 239.30086389 -272.30990935 240.70608641 -273.625 242.125 C-273.625 242.785 -273.625 243.445 -273.625 244.125 C-274.285 244.125 -274.945 244.125 -275.625 244.125 C-280.61846789 250.01630818 -286.625 258.1172405 -286.625 266.125 C-287.285 266.125 -287.945 266.125 -288.625 266.125 C-293.59159459 275.83243489 -293.80561277 286.37316653 -293.875 297.0625 C-293.88426514 297.96242676 -293.89353027 298.86235352 -293.90307617 299.78955078 C-293.87999284 304.63343058 -293.51213709 308.57939599 -291.625 313.125 C-292.93597656 313.33382812 -292.93597656 313.33382812 -294.2734375 313.546875 C-303.93025808 315.21262027 -312.70238777 318.10157457 -321.625 322.125 C-322.35589844 322.42019531 -323.08679688 322.71539062 -323.83984375 323.01953125 C-329.84207282 325.62247811 -334.64523253 329.96088159 -338.625 335.125 C-339.42284405 337.79070952 -339.42284405 337.79070952 -339.625 340.125 C-340.285 340.125 -340.945 340.125 -341.625 340.125 C-341.80675781 340.81207031 -341.98851562 341.49914062 -342.17578125 342.20703125 C-342.55283203 343.55861328 -342.55283203 343.55861328 -342.9375 344.9375 C-343.18113281 345.83082031 -343.42476562 346.72414063 -343.67578125 347.64453125 C-344.66618704 350.23262868 -345.7019286 351.21764853 -347.625 353.125 C-347.94567223 355.14523506 -348.25955932 357.16960344 -348.44140625 359.20703125 C-348.625 361.125 -348.625 361.125 -349.1875 363.25 C-349.74571573 365.32145894 -349.74571573 365.32145894 -349.625 368.3125 C-349.625 369.240625 -349.625 370.16875 -349.625 371.125 C-349.955 371.455 -350.285 371.785 -350.625 372.125 C-351.08155719 384.2665677 -348.79857202 392.70264169 -342.625 403.125 C-342.26921875 403.84816406 -341.9134375 404.57132813 -341.546875 405.31640625 C-335.75780786 416.67377102 -322.1100616 424.74653077 -310.625 429.125 C-309.33722656 429.65867187 -309.33722656 429.65867187 -308.0234375 430.203125 C-286.1740363 438.83976146 -262.27887353 437.27114681 -239.23527694 437.22639394 C-235.41973664 437.2200691 -231.60419524 437.21954935 -227.78865051 437.21836853 C-220.58560053 437.21528039 -213.38256603 437.20710277 -206.17952281 437.19701904 C-197.98066708 437.18579264 -189.78181057 437.18032886 -181.58294904 437.17532361 C-165.423507 437.16534106 -149.26407888 437.14890577 -133.10464764 437.12779331 C-127.94477039 437.12198073 -122.78488041 437.125 -117.625 437.125 C-117.625 436.465 -117.625 435.805 -117.625 435.125 C-114.985 435.125 -112.345 435.125 -109.625 435.125 C-109.625 435.785 -109.625 436.445 -109.625 437.125 C-105.995 437.125 -102.365 437.125 -98.625 437.125 C-98.625 436.465 -98.625 435.805 -98.625 435.125 C-97.573125 435.475625 -96.52125 435.82625 -95.4375 436.1875 C-91.78245953 437.08628044 -90.14977203 437.05802789 -86.625 436.125 C-86.295 436.455 -85.965 436.785 -85.625 437.125 C-83.17648733 437.2253226 -80.75616685 437.2611818 -78.30712891 437.25439453 C-77.54126968 437.25614685 -76.77541046 437.25789917 -75.98634338 437.25970459 C-73.44139372 437.26412448 -70.89651294 437.26118407 -68.3515625 437.2578125 C-66.58897895 437.25848564 -64.82639549 437.25945575 -63.06381226 437.26071167 C-59.36317057 437.26218894 -55.66255296 437.26003367 -51.96191406 437.25537109 C-47.2147714 437.24968212 -42.46768538 437.25294734 -37.72054482 437.25894356 C-34.07804945 437.2625555 -30.43556752 437.26140752 -26.79307175 437.25881577 C-25.0427487 437.25814782 -23.29242444 437.25897032 -21.54210281 437.26129532 C-19.09525569 437.26383127 -16.64850043 437.25996751 -14.20166016 437.25439453 C-13.11213295 437.25743088 -13.11213295 437.25743088 -12.00059509 437.26052856 C-8.92977959 437.24755404 -6.56281816 437.10427272 -3.625 436.125 C-1.95668483 436.44998213 -0.29032858 436.78504468 1.375 437.125 C3.90735514 437.20636151 6.41025836 437.24177016 8.94140625 437.22265625 C9.6573143 437.2212413 10.37322235 437.21982635 11.11082458 437.21836853 C13.38642668 437.21280054 15.66192807 437.20026922 17.9375 437.1875 C19.47070168 437.18247948 21.00390493 437.17791754 22.53710938 437.17382812 C25.34840922 437.1656811 28.15967098 437.15495376 30.97094727 437.14086914 C54.1046443 437.0330236 77.24101045 437.125 100.375 437.125 C100.375 436.465 100.375 435.805 100.375 435.125 C101.303125 435.310625 102.23125 435.49625 103.1875 435.6875 C106.38843771 436.36623881 106.38843771 436.36623881 109.375 435.125 C109.375 435.785 109.375 436.445 109.375 437.125 C110.509375 436.939375 111.64375 436.75375 112.8125 436.5625 C118.27955404 435.93769382 123.61348353 436.32066389 129.08178711 436.71850586 C133.86175599 437.06423906 138.58177468 437.17352534 143.375 437.125 C143.375 436.465 143.375 435.805 143.375 435.125 C144.014375 435.455 144.65375 435.785 145.3125 436.125 C149.38736841 437.45556928 153.12690425 437.29159199 157.375 437.125 C157.705 436.465 158.035 435.805 158.375 435.125 C159.38328857 435.45097168 160.39157715 435.77694336 161.43041992 436.11279297 C168.01229928 437.74630992 174.75309984 437.37122385 181.48828125 437.3203125 C182.94939479 437.31657521 184.41051085 437.31373163 185.87162781 437.31173706 C189.6960049 437.30414616 193.52022708 437.2845443 197.34454346 437.2623291 C201.24334634 437.24181283 205.14217421 437.23271225 209.04101562 437.22265625 C215.88155552 437.20356922 222.72198072 437.17460159 229.56245422 437.13845825 C238.16638988 437.09728775 246.77096759 437.125 255.375 437.125 C255.705 436.135 256.035 435.145 256.375 434.125 C256.75269531 434.61613281 257.13039063 435.10726563 257.51953125 435.61328125 C260.08563292 437.70397883 261.80070933 437.42762202 265.0625 437.3125 C266.05636719 437.28542969 267.05023437 437.25835938 268.07421875 437.23046875 C268.83347656 437.19566406 269.59273437 437.16085937 270.375 437.125 C270.375 436.465 270.375 435.805 270.375 435.125 C271.035 435.785 271.695 436.445 272.375 437.125 C274.95564129 437.26997985 277.42443884 437.31177545 280 437.25 C281.05960938 437.23646484 281.05960938 437.23646484 282.140625 437.22265625 C283.88556098 437.19907603 285.63032295 437.16320461 287.375 437.125 C287.375 436.465 287.375 435.805 287.375 435.125 C288.365 435.785 289.355 436.445 290.375 437.125 C292.35799827 437.41965812 292.35799827 437.41965812 294.53930664 437.36791992 C295.37349625 437.37099655 296.20768585 437.37407318 297.06715393 437.37724304 C297.9640947 437.37005753 298.86103546 437.36287201 299.78515625 437.35546875 C300.70840195 437.35501053 301.63164764 437.35455231 302.58287048 437.3540802 C304.53385708 437.35105976 306.4848413 437.34317968 308.43579102 437.33081055 C311.42928567 437.31255011 314.42247108 437.31030092 317.41601562 437.31054688 C319.30989852 437.30563175 321.20377931 437.29980346 323.09765625 437.29296875 C323.99662125 437.29185593 324.89558624 437.2907431 325.8217926 437.28959656 C327.06834877 437.28002678 327.06834877 437.28002678 328.34008789 437.27026367 C329.43904137 437.26454597 329.43904137 437.26454597 330.56019592 437.25871277 C332.4754022 437.23324989 332.4754022 437.23324989 334.375 436.125 C337.657619 436.05421576 340.92827789 436.12821947 344.2109375 436.1875 C346.87044088 436.1349666 348.85088711 435.83664416 351.375 435.125 C352.365 435.125 353.355 435.125 354.375 435.125 C354.375 434.465 354.375 433.805 354.375 433.125 C355.2825 433.351875 356.19 433.57875 357.125 433.8125 C360.35449371 434.46559865 360.35449371 434.46559865 362.5625 432.6875 C363.160625 432.171875 363.75875 431.65625 364.375 431.125 C365.365 431.125 366.355 431.125 367.375 431.125 C378.84502352 429.09062083 388.04651359 423.09137831 396.375 415.125 C396.705 414.135 397.035 413.145 397.375 412.125 C398.035 411.795 398.695 411.465 399.375 411.125 C399.375 410.465 399.375 409.805 399.375 409.125 C399.97054687 408.86332031 400.56609375 408.60164063 401.1796875 408.33203125 C406.29760364 405.51808803 409.51559757 400.54825709 411.375 395.125 C412.035 394.465 412.695 393.805 413.375 393.125 C413.93315786 391.49796983 414.42633145 389.84806132 414.875 388.1875 C415.75721837 384.93192244 416.47257851 382.97863224 418.375 380.125 C422.7201789 363.99374147 420.92884555 341.26664317 414.375 326.125 C413.94058594 325.07441406 413.50617187 324.02382813 413.05859375 322.94140625 C404.40555366 303.98360616 389.86384775 289.73382504 370.43969727 281.83398438 C360.85210909 278.54175828 351.45871131 277.64081208 341.3815918 277.73388672 C339.31036862 277.7500166 337.2410877 277.73391481 335.16992188 277.71484375 C326.41003227 277.70208012 317.36018423 278.13240789 309.375 282.125 C309.57996094 281.50753906 309.78492188 280.89007813 309.99609375 280.25390625 C310.40021484 278.98353516 310.40021484 278.98353516 310.8125 277.6875 C311.21275391 276.45193359 311.21275391 276.45193359 311.62109375 275.19140625 C316.05097096 257.1735119 314.52458806 236.77044159 309.375 219.125 C309.10945312 218.06796875 308.84390625 217.0109375 308.5703125 215.921875 C303.16020203 196.65157675 287.60374343 178.8354681 270.46191406 169.03076172 C245.78660675 155.60572164 218.86324908 150.06968274 191.375 157.125 C190.27671875 157.39183594 189.1784375 157.65867187 188.046875 157.93359375 C179.3074848 160.30842804 172.01801179 164.40397922 164.375 169.125 C164.32601562 168.13242187 164.27703125 167.13984375 164.2265625 166.1171875 C162.10986676 126.16269655 146.85918433 93.96288296 119.375 65.125 C118.35792969 64.02865234 118.35792969 64.02865234 117.3203125 62.91015625 C98.66571966 43.36540649 69.6771044 27.80095216 43.12939453 22.5546875 C41.375 22.125 41.375 22.125 40.375 21.125 C27.55887479 18.46625649 14.99610975 17.61887559 1.9375 17.75 C1.08582245 17.75531738 0.2341449 17.76063477 -0.64334106 17.76611328 C-48.22254557 18.11367101 -91.91804619 37.90726804 -125 72.3125 Z " fill="#4E8990" transform="translate(473.625,124.875)"/>
<path d="M0 0 C2.4375 1.9375 2.4375 1.9375 4 5 C4.30936646 8.03280558 4.23810226 10.96419621 4 14 C4.66 14 5.32 14 6 14 C7.79007727 22.53729161 9.29632741 31.11261136 10.64306641 39.72998047 C10.96237257 41.7606978 11.29843253 43.78876433 11.63671875 45.81640625 C13.06479982 55.69143491 13.21135195 65.53948381 13.25 75.5 C13.25526703 76.19845032 13.26053406 76.89690063 13.26596069 77.61651611 C13.35485382 92.85821678 11.26826835 103.51096217 1.09765625 115.1171875 C-2.49122564 118.33849303 -5.20717632 119 -10 119 C-10 119.66 -10 120.32 -10 121 C-20.66430459 121.34586934 -30.88831689 120.59191131 -41 117 C-41 116.34 -41 115.68 -41 115 C-41.8353125 114.7215625 -41.8353125 114.7215625 -42.6875 114.4375 C-47.87177611 111.21484188 -50.53203238 105.77971109 -52 100 C-52.30795783 96.45480121 -52.33238675 92.93201599 -52.3125 89.375 C-52.30976074 88.39748779 -52.30702148 87.41997559 -52.30419922 86.4128418 C-52.18468126 78.14068784 -51.70943527 70.06415291 -47 63 C-46.54949068 61.65671305 -46.13596153 60.30073592 -45.75 58.9375 C-44.27804954 54.35066447 -42.09861116 50.55199403 -39.546875 46.484375 C-38.06939642 44.11145485 -36.70979776 41.70536873 -35.375 39.25 C-33.41980222 35.69846986 -31.28131045 32.35486831 -29 29 C-27.18595876 26.16862483 -25.38540989 23.32893308 -23.5859375 20.48828125 C-22.4113886 18.64545453 -21.21219133 16.818287 -20 15 C-19.34 15 -18.68 15 -18 15 C-16.89950911 12.87762471 -15.97940205 10.92884346 -15.3125 8.625 C-12.19344282 2.38688564 -7.12804666 -1.47940591 0 0 Z " fill="#46828D" transform="translate(619,663)"/>
<path d="M0 0 C0 0.66 0 1.32 0 2 C0.66 2 1.32 2 2 2 C6.12596232 11.36497493 6.12596232 11.36497493 6.5625 16.0625 C6.92407022 19.31663201 7.44442087 21.44560307 8.5625 24.4375 C9.95943173 28.33950643 10.21775367 31.54698937 9.91015625 35.6640625 C9.91254366 38.19610588 9.91254366 38.19610588 10.9609375 41.28515625 C12.06033085 45.21569414 12.37176935 48.74222673 12.5625 52.8125 C12.61562742 57.57374186 12.61562742 57.57374186 14 62 C14.09661729 63.66054124 14.1307559 65.32493286 14.1328125 66.98828125 C14.13490723 67.99930908 14.13700195 69.01033691 14.13916016 70.05200195 C14.13215088 71.66594849 14.13215088 71.66594849 14.125 73.3125 C14.12161621 74.39942139 14.11823242 75.48634277 14.11474609 76.60620117 C13.98035209 97.52947186 13.98035209 97.52947186 11 102 C10.34 102 9.68 102 9 102 C8.79375 102.66 8.5875 103.32 8.375 104 C5.89121593 109.41916525 2.86558916 113.85194513 -2.25 117 C-5 118 -5 118 -7 118 C-7 118.66 -7 119.32 -7 120 C-31.98365856 120.52720499 -31.98365856 120.52720499 -37.3125 116.0625 C-37.869375 115.381875 -38.42625 114.70125 -39 114 C-39.99 113.505 -40.98 113.01 -42 112.5 C-45.74079109 110.62960446 -48.20375 108.64597947 -50.046875 104.8359375 C-55.72469078 84.96358226 -50.25533578 65.85369808 -41 48 C-38.25301471 43.16401959 -35.15875694 38.57397062 -32 34 C-31.42507813 33.1646875 -30.85015625 32.329375 -30.2578125 31.46875 C-29.16274509 29.8968829 -28.05976119 28.33050349 -26.94921875 26.76953125 C-25.38780554 24.55101028 -23.85356399 22.31998614 -22.33203125 20.07421875 C-21.85491699 19.37216309 -21.37780273 18.67010742 -20.88623047 17.94677734 C-19.94841632 16.56518461 -19.0136407 15.18152242 -18.08251953 13.79541016 C-8.56556144 -0.18620786 -8.56556144 -0.18620786 0 0 Z " fill="#43808C" transform="translate(392,636)"/>
<path d="M0 0 C4.06612857 5.90244471 4.74319906 10.89945397 5 18 C5.66 18 6.32 18 7 18 C7.06058594 18.68707031 7.12117188 19.37414062 7.18359375 20.08203125 C7.26738281 20.98308594 7.35117187 21.88414062 7.4375 22.8125 C7.51871094 23.70582031 7.59992188 24.59914063 7.68359375 25.51953125 C7.93489767 28.12743559 7.93489767 28.12743559 9 31 C9.17915828 32.97642869 9.31983817 34.95645892 9.4375 36.9375 C9.72884998 41.21846499 10.20413611 45.2988528 11.0625 49.5 C13.42236277 62.74340897 14.34073098 81.52454733 9 94 C8.731875 94.928125 8.46375 95.85625 8.1875 96.8125 C5.81819284 103.17221921 1.51009021 111.32472967 -4.75 114.3125 C-5.4925 114.539375 -6.235 114.76625 -7 115 C-7 115.66 -7 116.32 -7 117 C-19.63560979 120.01103893 -30.68839515 119.98783271 -42.46484375 113.6796875 C-47.27556404 110.40087256 -50.26995075 106.58938987 -52 101 C-52.25 97.5 -52.25 97.5 -52 95 C-52.66 95 -53.32 95 -54 95 C-54 88.73 -54 82.46 -54 76 C-53.34 76 -52.68 76 -52 76 C-51.98582031 75.28457031 -51.97164062 74.56914063 -51.95703125 73.83203125 C-51.47860715 63.83684664 -48.73046652 54.31990193 -43 46 C-42.34 46 -41.68 46 -41 46 C-40.88527344 45.2678125 -40.77054688 44.535625 -40.65234375 43.78125 C-37.81552808 31.68656282 -26.08468149 20.40134814 -18.25 11 C-17.81469971 10.47237061 -17.37939941 9.94474121 -16.9309082 9.40112305 C-11.9152883 3.46874083 -8.23703296 -0.8237033 0 0 Z " fill="#427F8B" transform="translate(277,606)"/>
<path d="M0 0 C2.24963631 5.62409077 3.84742081 11.05899462 5 17 C5.16733643 17.84433594 5.33467285 18.68867187 5.50708008 19.55859375 C7.40411738 29.52188066 8.55807382 39.58431332 9.67456055 49.66015625 C9.93942972 51.94526745 9.93942972 51.94526745 10.52783203 53.89379883 C11.5993968 58.67373121 11.18588392 63.74800796 11.18530273 68.62475586 C11.1874744 70.66346587 11.20560765 72.70162103 11.22460938 74.74023438 C11.23863759 84.2186332 10.63323419 92.20579588 6.5 100.8125 C6.0771875 101.70582031 5.654375 102.59914063 5.21875 103.51953125 C4.8165625 104.33808594 4.414375 105.15664063 4 106 C3.71898437 106.6909375 3.43796875 107.381875 3.1484375 108.09375 C1.57725641 110.70169684 -0.37220653 111.97564868 -2.875 113.6875 C-3.73867188 114.28949219 -4.60234375 114.89148438 -5.4921875 115.51171875 C-10.1669704 118.2860058 -14.41161006 118.12809458 -19.75 118.0625 C-20.44738281 118.05798828 -21.14476562 118.05347656 -21.86328125 118.04882812 C-23.57555803 118.0371002 -25.28779033 118.01916653 -27 118 C-27 117.34 -27 116.68 -27 116 C-27.6290625 115.97421875 -28.258125 115.9484375 -28.90625 115.921875 C-35.66733907 115.47385103 -41.52938368 114.37347438 -46.53515625 109.5078125 C-53.62839933 101.19444889 -54.75720585 91.66532493 -54 81 C-52.94376772 70.19965302 -49.68108665 60.25517687 -44 51 C-43.31567122 49.37064576 -42.63180331 47.74109093 -41.953125 46.109375 C-36.33014354 33.66507177 -36.33014354 33.66507177 -33 32 C-32.484375 30.906875 -31.96875 29.81375 -31.4375 28.6875 C-28.48252695 22.53498149 -24.16393597 17.36872962 -20 12 C-19.35160156 11.12085938 -18.70320313 10.24171875 -18.03515625 9.3359375 C-12.58391741 2.01195359 -9.21650382 -0.46863579 0 0 Z " fill="#46838D" transform="translate(306,746)"/>
<path d="M0 0 C2.39763185 2.39763185 2.34280586 3.33273498 2.625 6.625 C2.69976562 7.44226563 2.77453125 8.25953125 2.8515625 9.1015625 C2.90054688 9.72804688 2.94953125 10.35453125 3 11 C3.66 11 4.32 11 5 11 C5.70265437 15.01461477 6.39588849 19.03074427 7.08129883 23.04833984 C7.31453904 24.40813508 7.55012697 25.7675302 7.78833008 27.12646484 C9.25106409 35.48229421 10.33437548 43.72238263 10.77368164 52.20263672 C10.89458566 55.08158266 10.89458566 55.08158266 12 58 C14.36064013 96.09584758 14.36064013 96.09584758 2.7265625 111.046875 C-1.67535097 116.02641512 -6.73120909 119.62197656 -13.4453125 120.3984375 C-25.08857988 120.32427656 -36.38001018 119.16201885 -46 112 C-47.9375 109.5 -47.9375 109.5 -49 107 C-49.37125 106.21625 -49.7425 105.4325 -50.125 104.625 C-55.42830929 88.71507212 -50.95218485 68.57766985 -43.94482422 53.86181641 C-39.97931791 46.04761716 -35.29714508 38.66021637 -30.11474609 31.60253906 C-28.80430493 29.77501161 -28.80430493 29.77501161 -27.1875 26.75 C-11.75543299 -0.90426408 -11.75543299 -0.90426408 0 0 Z " fill="#46838D" transform="translate(475,756)"/>
<path d="M0 0 C3.6875 1.3125 3.6875 1.3125 5.22265625 3.84375 C7.40214286 8.9779342 8.84537656 13.80301443 9.6875 19.3125 C10.18051309 21.50158528 10.68089957 23.68901915 11.1875 25.875 C13.36938961 35.97555238 13.89695793 46.00251535 13.6875 56.3125 C14.3475 56.3125 15.0075 56.3125 15.6875 56.3125 C15.78741855 60.68662668 15.85945484 65.06012437 15.90722656 69.43505859 C15.92716981 70.91890048 15.9543349 72.40266555 15.98925781 73.88623047 C16.1916427 82.71378289 16.00158711 90.32876381 11.6875 98.3125 C11.0275 98.3125 10.3675 98.3125 9.6875 98.3125 C9.30658203 99.3953125 9.30658203 99.3953125 8.91796875 100.5 C5.80640088 107.61215512 0.50712755 112.98620408 -6.69799805 115.94750977 C-14.5244974 118.69912965 -20.60033525 118.42830295 -28.3125 115.3125 C-29.17101562 114.96960938 -30.02953125 114.62671875 -30.9140625 114.2734375 C-33.08489731 113.34712037 -35.20023287 112.36437496 -37.3125 111.3125 C-37.993125 111.01085937 -38.67375 110.70921875 -39.375 110.3984375 C-45.16069947 107.15564627 -47.71350107 100.83949673 -49.6875 94.8125 C-53.60702147 80.58790333 -49.9597283 66.2332872 -43.3125 53.3125 C-39.59665338 46.8107371 -35.55333416 40.48427044 -31.3125 34.3125 C-30.54812622 33.19814575 -30.54812622 33.19814575 -29.76831055 32.0612793 C-29.28789307 31.48418213 -28.80747559 30.90708496 -28.3125 30.3125 C-27.6525 30.3125 -26.9925 30.3125 -26.3125 30.3125 C-26.126875 29.6525 -25.94125 28.9925 -25.75 28.3125 C-24.02485915 24.71220605 -21.70635203 22.2821321 -19.03515625 19.34765625 C-17.15312745 17.12421633 -15.83945219 14.75319999 -14.48046875 12.18359375 C-11.04437023 6.67894094 -6.72044775 0.6340045 0 0 Z " fill="#427F8B" transform="translate(522.3125,605.6875)"/>
<path d="M0 0 C3.08526685 0.6772537 4.66618382 1.89694293 6.5703125 4.41015625 C8.25204486 8.0583237 8.17606483 11.78869576 8.2265625 15.7578125 C8.61420255 20.14806139 9.65985641 24.15180748 10.76953125 28.40820312 C16.79468181 52.37524293 20.82921519 82.83874493 8.77734375 105.578125 C4.86383459 111.97060941 1.30172611 115.79925095 -5.93432617 118.01098633 C-10.13379083 118.93623656 -14.22052618 118.87947981 -18.5 118.75 C-19.36560547 118.73646484 -20.23121094 118.72292969 -21.12304688 118.70898438 C-23.22814174 118.6740933 -25.33290974 118.62030665 -27.4375 118.5625 C-27.9325 117.5725 -27.9325 117.5725 -28.4375 116.5625 C-29.489375 116.27375 -30.54125 115.985 -31.625 115.6875 C-37.70735593 113.89270645 -41.96611944 110.90308547 -45.4375 105.5625 C-45.4375 104.2425 -45.4375 102.9225 -45.4375 101.5625 C-46.0975 101.5625 -46.7575 101.5625 -47.4375 101.5625 C-50.34974477 80.44872539 -46.33738974 61.88269929 -35.4375 43.5625 C-35.1075 42.9025 -34.7775 42.2425 -34.4375 41.5625 C-33.7775 41.5625 -33.1175 41.5625 -32.4375 41.5625 C-32.334375 41.005625 -32.23125 40.44875 -32.125 39.875 C-31.29571592 37.0855899 -30.09450944 34.9485936 -28.4375 32.5625 C-27.7775 32.5625 -27.1175 32.5625 -26.4375 32.5625 C-26.3653125 32.03785156 -26.293125 31.51320313 -26.21875 30.97265625 C-25.10658106 27.54161508 -23.04807505 24.87780715 -20.9375 22 C-20.4926123 21.38664795 -20.04772461 20.7732959 -19.58935547 20.14135742 C-5.83489155 1.34651343 -5.83489155 1.34651343 0 0 Z " fill="#47838E" transform="translate(673.4375,773.4375)"/>
<path d="M0 0 C4.56156134 2.23009665 5.83439745 6.71699063 7.53588867 11.34082031 C14.00877283 31.79116034 16.08168177 55.11566342 16.25 76.5 C16.2600708 77.29075928 16.2701416 78.08151855 16.28051758 78.89624023 C16.19449982 84.48495452 14.80233793 89.17891917 12.8125 94.375 C12.51988281 95.2103125 12.22726562 96.045625 11.92578125 96.90625 C8.24562477 105.95404934 2.02240605 112.69484309 -6.95703125 116.5703125 C-11.0575053 117.59171232 -14.68128907 117.52000605 -18.875 117.25 C-19.66793457 117.20141846 -20.46086914 117.15283691 -21.27783203 117.1027832 C-28.62196282 116.53675724 -35.72710546 115.32164996 -41.4765625 110.42578125 C-43.1875 108.375 -43.1875 108.375 -43.1875 105.375 C-43.8475 105.375 -44.5075 105.375 -45.1875 105.375 C-50.62043398 93.36763794 -50.16772562 77.08539041 -46.375 64.5625 C-40.99925955 51.0926049 -33.3416605 36.662837 -24.1875 25.375 C-23.5275 25.375 -22.8675 25.375 -22.1875 25.375 C-21.8575 24.385 -21.5275 23.395 -21.1875 22.375 C-20.5275 22.375 -19.8675 22.375 -19.1875 22.375 C-19.084375 21.653125 -18.98125 20.93125 -18.875 20.1875 C-18.11967477 17.09753314 -16.99612024 14.97941314 -15.1875 12.375 C-14.5275 12.045 -13.8675 11.715 -13.1875 11.375 C-12.795625 10.653125 -12.40375 9.93125 -12 9.1875 C-9.00342583 4.53764352 -5.67326715 0.66744319 0 0 Z " fill="#44818C" transform="translate(730.1875,605.625)"/>
<path d="M0 0 C0.99 0 1.98 0 3 0 C3.12117187 1.02738281 3.24234375 2.05476562 3.3671875 3.11328125 C3.81124176 16.49587564 3.81124176 16.49587564 8 28 C8.13861464 30.84016616 8.21324216 33.65414845 8.23828125 36.49609375 C8.246353 37.35880386 8.25442474 38.22151398 8.26274109 39.11036682 C8.27660801 40.94554625 8.28731843 42.78075176 8.29516602 44.6159668 C8.31223821 47.39488669 8.35608156 50.17257268 8.40039062 52.95117188 C8.55958468 71.02102358 8.55958468 71.02102358 4 78 C0.45604583 81.45957431 -1.80435583 82.92029039 -6.75 83.25 C-23.04346751 83.01117067 -23.04346751 83.01117067 -27.90234375 78.0625 C-29.55667284 73.44686296 -29.31478111 69.04702758 -29.1875 64.1875 C-29.17396484 63.20845703 -29.16042969 62.22941406 -29.14648438 61.22070312 C-29.11125312 58.81323375 -29.06199265 56.40690436 -29 54 C-28.34 54 -27.68 54 -27 54 C-26.86722656 53.32453125 -26.73445312 52.6490625 -26.59765625 51.953125 C-26.42105469 51.06109375 -26.24445312 50.1690625 -26.0625 49.25 C-25.80146484 47.92742188 -25.80146484 47.92742188 -25.53515625 46.578125 C-25.07631512 44.36764947 -24.56663926 42.18487932 -24 40 C-23.34 40 -22.68 40 -22 40 C-21.505 37.03 -21.505 37.03 -21 34 C-20.34 34 -19.68 34 -19 34 C-18.79375 33.030625 -18.5875 32.06125 -18.375 31.0625 C-17.19899268 26.92562317 -15.04519612 23.7829869 -12.58984375 20.2890625 C-10.59980303 17.42379503 -8.83850083 14.44383641 -7.078125 11.43359375 C-6.72234375 10.96050781 -6.3665625 10.48742187 -6 10 C-5.34 10 -4.68 10 -4 10 C-3.896875 9.278125 -3.79375 8.55625 -3.6875 7.8125 C-2.92653591 4.69946508 -1.9090983 2.56994002 0 0 Z " fill="#6AB1B4" transform="translate(610,686)"/>
<path d="M0 0 C0.66 0 1.32 0 2 0 C3.61694418 6.46777673 4.55671164 12.88780226 5.30224609 19.50195312 C5.64592354 22.48481399 6.04697781 25.14093344 7 28 C7.20710322 32.44732411 7.18579708 36.89730638 7.18530273 41.34887695 C7.18746805 43.53031554 7.20557234 45.71123041 7.22460938 47.89257812 C7.31111667 69.02455526 7.31111667 69.02455526 1 76 C-3.74059403 79.2762772 -9.18472728 81.43350215 -15 81 C-20.09413846 79.76109321 -24.61819595 78.23888123 -27.625 73.75 C-28.07875 72.8425 -28.5325 71.935 -29 71 C-28.01 70.505 -28.01 70.505 -27 70 C-27 69.01 -27 68.02 -27 67 C-27.66 67 -28.32 67 -29 67 C-29.94032844 62.8207625 -29.95657915 59.30513288 -29.3125 55.0703125 C-29.10809038 53.71609875 -28.93984204 52.35580848 -28.8125 50.9921875 C-28.20118029 44.49691553 -26.10415617 38.73074985 -23 33 C-22.34 33 -21.68 33 -21 33 C-20.85304687 32.20722656 -20.85304687 32.20722656 -20.703125 31.3984375 C-18.4062988 23.56370811 -13.45870955 15.99126658 -8 10 C-5.91232761 7.33376724 -3.83783532 4.65784387 -1.76953125 1.9765625 C-1.18558594 1.32429687 -0.60164063 0.67203125 0 0 Z " fill="#61A7AD" transform="translate(267,630)"/>
<path d="M0 0 C0.99 0 1.98 0 3 0 C3.22786458 2.05078125 3.45572917 4.1015625 3.68359375 6.15234375 C3.81886614 8.01140229 3.81886614 8.01140229 5 9 C7.60180288 19.43713697 8.45762456 29.60842629 8.33618164 40.33666992 C8.31247011 42.56530895 8.31567101 44.79274958 8.32226562 47.02148438 C8.27856597 72.65062575 8.27856597 72.65062575 4.24804688 76.80639648 C2.16033766 77.99746833 0.35334383 78.53183924 -2 79 C-3.258125 79.28875 -4.51625 79.5775 -5.8125 79.875 C-12.10477254 80.39728349 -18.46236986 79.14442144 -24.1875 76.5625 C-24.785625 76.046875 -25.38375 75.53125 -26 75 C-26 74.01 -26 73.02 -26 72 C-26.66 72 -27.32 72 -28 72 C-29.87938613 63.07291587 -29.09692037 54.79957653 -27 46 C-26.34 46 -25.68 46 -25 46 C-24.91363281 45.3709375 -24.82726562 44.741875 -24.73828125 44.09375 C-23.68378768 37.67004605 -21.73370531 33.27950687 -18 28 C-16.64688858 25.78089728 -15.3069421 23.56745598 -14.0703125 21.28125 C-12.05401906 17.59252712 -9.98599715 14.98599715 -7 12 C-4.95483422 8.79719321 -3.22102335 5.41552389 -1.4375 2.0625 C-0.963125 1.381875 -0.48875 0.70125 0 0 Z " fill="#68AEB2" transform="translate(383,661)"/>
<path d="M0 0 C0.66 0 1.32 0 2 0 C2.10957031 0.92039062 2.21914063 1.84078125 2.33203125 2.7890625 C2.49058594 4.05492187 2.64914062 5.32078125 2.8125 6.625 C2.96332031 7.85476563 3.11414063 9.08453125 3.26953125 10.3515625 C3.78970157 14.12943872 4.66501833 17.76672831 5.55859375 21.47265625 C7.19046889 28.94321779 7.3923239 36.05666514 7.28125 43.66088867 C7.24977288 45.82813726 7.24022443 47.99465327 7.234375 50.16210938 C7.13149784 68.73700431 7.13149784 68.73700431 5 73 C4.34 73 3.68 73 3 73 C2.814375 73.598125 2.62875 74.19625 2.4375 74.8125 C0.32692766 78.02424052 -2.40970498 79.05446429 -6 80 C-13.65156908 81.04854836 -21.49601274 79.52326509 -27.77734375 75 C-30.93496715 70.73804082 -30.56223794 67.33978585 -30.3125 62.1875 C-30.28994141 61.30384766 -30.26738281 60.42019531 -30.24414062 59.50976562 C-30.18547428 57.3391109 -30.09579979 55.1693331 -30 53 C-29.34 53 -28.68 53 -28 53 C-27.67 50.03 -27.34 47.06 -27 44 C-26.34 44 -25.68 44 -25 44 C-24.90203125 43.40832031 -24.8040625 42.81664062 -24.703125 42.20703125 C-23.71844812 37.00352328 -22.52370837 34.05760357 -19 30 C-18.31947109 28.34728693 -17.640626 26.69375254 -16.984375 25.03125 C-15.28396004 21.52245722 -12.91882268 18.46979012 -10.62109375 15.33203125 C-9.18901545 13.27190897 -8.05009426 11.27259205 -7 9 C-6.34 9 -5.68 9 -5 9 C-4.731875 8.443125 -4.46375 7.88625 -4.1875 7.3125 C-2.89100504 4.78774666 -1.57523677 2.36285516 0 0 Z " fill="#6CB2B4" transform="translate(296,769)"/>
<path d="M0 0 C0.66 0 1.32 0 2 0 C2.4651861 2.33213299 2.92203436 4.6654848 3.375 7 C3.50132812 7.6290625 3.62765625 8.258125 3.7578125 8.90625 C6.18045731 21.50400303 7.35562827 33.99526895 7.31567383 46.81176758 C7.31246403 48.96159457 7.33628964 51.1101021 7.36132812 53.25976562 C7.44099814 70.19627391 7.44099814 70.19627391 2.54785156 75.60522461 C-3.15927868 80.54834696 -7.71791926 80.49800036 -15 80 C-20.37304163 79.18544988 -23.90633227 78.19782656 -27.625 74.125 C-32.79835535 62.4788209 -27.30893421 47.71087739 -23.08984375 36.58203125 C-18.72965428 26.25197662 -12.18117624 16.53119068 -5.26171875 7.75390625 C-3.93868682 5.91476899 -2.95919299 4.04898033 -2 2 C-1.34 2 -0.68 2 0 2 C0 1.34 0 0.68 0 0 Z " fill="#6DB3B5" transform="translate(466,781)"/>
<path d="M0 0 C0.20496094 1.19238281 0.40992188 2.38476562 0.62109375 3.61328125 C0.89310807 5.17970853 1.16525015 6.74611364 1.4375 8.3125 C1.57220703 9.09818359 1.70691406 9.88386719 1.84570312 10.69335938 C1.97783203 11.45068359 2.10996094 12.20800781 2.24609375 12.98828125 C2.36654053 13.68477783 2.4869873 14.38127441 2.61108398 15.09887695 C3.00335799 17.2095331 3.00335799 17.2095331 4 20 C5.99833605 34.85917963 9.0331006 59.95531754 0.875 73.25 C-3.74304898 77.66726425 -7.21135463 78.95583593 -13.453125 79.0546875 C-24.57449555 78.51955879 -24.57449555 78.51955879 -29 75 C-33.16494701 66.05502941 -32.149969 52.49722442 -28.9765625 43.421875 C-24.69473093 32.8029327 -20.27821664 22.06595467 -12 14 C-11.12962703 12.52118448 -10.29908957 11.01851912 -9.5 9.5 C-4.47245409 0 -4.47245409 0 0 0 Z " fill="#6DB3B5" transform="translate(670,799)"/>
<path d="M0 0 C0.99 0 1.98 0 3 0 C4.1577506 3.47325181 4.06866652 6.36067448 4 10 C4.66 10 5.32 10 6 10 C13.05635717 53.93333015 13.05635717 53.93333015 4.80078125 67.86328125 C0.27545771 73.23280831 -4.34533996 75.65522075 -11.3125 76.3125 C-15.86531308 75.92666838 -19.7513232 74.61854354 -24 73 C-24 72.34 -24 71.68 -24 71 C-24.66 71 -25.32 71 -26 71 C-31.0884842 62.17996072 -29.29167826 51.41849974 -26.9921875 42.0234375 C-25.6420356 37.9091951 -23.71979187 35.34743614 -21 32 C-20.71640625 31.24976563 -20.4328125 30.49953125 -20.140625 29.7265625 C-18.68146528 26.23857112 -16.55139167 23.38966263 -14.3125 20.375 C-10.44445315 15.07818983 -6.81451726 9.69859055 -3.375 4.109375 C-2 2 -2 2 0 0 Z " fill="#62A9AE" transform="translate(515,631)"/>
<path d="M0 0 C1.76984296 3.16274453 2.56201454 6.09898383 3.25390625 9.6484375 C3.57584961 11.28039062 3.57584961 11.28039062 3.90429688 12.9453125 C4.23010742 14.64300781 4.23010742 14.64300781 4.5625 16.375 C4.78357422 17.4990625 5.00464844 18.623125 5.23242188 19.78125 C8.48921063 36.42924568 11.20491018 55.34666073 3 71 C0.24198787 74.64769346 -1.58766102 75.30663245 -6 76 C-13.30961725 76.61501607 -20.0464674 76.77180125 -26 72 C-30.4187937 66.15578897 -30.46355738 58.47476485 -29.52734375 51.45703125 C-28.20550838 44.71783782 -26.42330321 38.93033196 -23 33 C-22.24172998 31.50416358 -21.49160267 30.00416937 -20.75 28.5 C-20.1725 27.345 -19.595 26.19 -19 25 C-18.34 25 -17.68 25 -17 25 C-16.7215625 24.4328125 -16.443125 23.865625 -16.15625 23.28125 C-14.59928207 20.20939436 -12.90496455 17.22103444 -11.21875 14.21875 C-10.09266157 12.16869158 -9.03060274 10.09937596 -8 8 C-7.34 8 -6.68 8 -6 8 C-6 7.34 -6 6.68 -6 6 C-5.34 6 -4.68 6 -4 6 C-4 5.01 -4 4.02 -4 3 C-3.01 3 -2.02 3 -1 3 C-0.67 2.01 -0.34 1.02 0 0 Z " fill="#69AFB3" transform="translate(725,632)"/>
<path d="M0 0 C37.61970591 -0.75869714 37.61970591 -0.75869714 54 5 C55.24910156 5.3815625 56.49820313 5.763125 57.78515625 6.15625 C74.07029764 11.21052356 90.03593619 18.11353394 104 28 C105.32451172 28.90105469 105.32451172 28.90105469 106.67578125 29.8203125 C114.03483434 34.9622817 120.51926088 40.82005468 127 47 C128.08087891 48.00160156 128.08087891 48.00160156 129.18359375 49.0234375 C142.99344778 62.19420372 156.57162984 81.51281483 162 100 C161.55175781 102.17626953 161.55175781 102.17626953 161 104 C160.77973145 103.47792969 160.55946289 102.95585937 160.33251953 102.41796875 C153.74178042 86.93905037 146.4069831 72.65636369 135.3984375 59.8203125 C134 58 134 58 134 56 C133.34 56 132.68 56 132 56 C130.73046875 54.671875 130.73046875 54.671875 129.1875 52.75 C120.15457942 42.20537163 109.92912493 34.02221106 98 27 C97.10667969 26.4740625 96.21335937 25.948125 95.29296875 25.40625 C91.62221493 23.31215495 87.99442823 21.41737776 84 20 C84 19.34 84 18.68 84 18 C83.360625 17.91234375 82.72125 17.8246875 82.0625 17.734375 C78.68045743 16.923375 75.70552782 15.68266676 72.51416016 14.3203125 C64.35698802 10.84769232 56.25882204 8.03633639 47.625 6 C46.75230469 5.7927832 45.87960937 5.58556641 44.98046875 5.37207031 C40.54954638 4.38185248 36.56225579 3.88700295 32 4 C31.34 3.67 30.68 3.34 30 3 C20.40354986 1.63389726 10.66614913 1.89692495 1 2 C0.67 1.34 0.34 0.68 0 0 Z " fill="#EBE2C4" transform="translate(466,143)"/>
<path d="M0 0 C-1.57149282 1.84919624 -2.52819558 2.88694667 -4.92260742 3.46069336 C-5.64295166 3.50331299 -6.3632959 3.54593262 -7.10546875 3.58984375 C-7.91628906 3.64962402 -8.72710937 3.7094043 -9.5625 3.77099609 C-10.861875 3.85341553 -10.861875 3.85341553 -12.1875 3.9375 C-27.63285473 5.19953927 -42.99734525 8.85143762 -56.86328125 15.92529297 C-59.01069115 17.00537734 -61.17687902 18.02803745 -63.359375 19.03515625 C-64.08253906 19.36966797 -64.80570312 19.70417969 -65.55078125 20.04882812 C-67.0313017 20.73123497 -68.51310143 21.41087239 -69.99609375 22.08789062 C-73.64932901 23.78333284 -76.84901802 25.46040258 -80 28 C-81.84470878 29.20213968 -83.69948645 30.3889282 -85.5625 31.5625 C-88.39505371 33.34966075 -91.21313899 35.14209266 -94 37 C-92.48858706 32.67321001 -89.2459157 30.75707499 -85.5625 28.375 C-84.5720166 27.72857544 -84.5720166 27.72857544 -83.56152344 27.0690918 C-59.10872145 11.42440468 -29.54347516 -1.01874052 0 0 Z " fill="#CACEB8" transform="translate(465,143)"/>
<path d="M0 0 C10.80143771 1.56211268 21.87696683 12.38553775 28.45751953 20.88183594 C31.50186229 25.13408522 34.28210869 29.53378771 37 34 C37.57234375 34.88300781 38.1446875 35.76601563 38.734375 36.67578125 C40.6158417 40.13094385 40.67008108 43.1069567 41 47 C38.93583098 43.90374647 37.46291613 40.8016665 35.875 37.4375 C33.06795724 31.62231741 29.76922598 26.77915084 25.50390625 21.890625 C24 20 24 20 24 18 C23.34 18 22.68 18 22 18 C20 16 20 16 19 13 C17.08333333 11.83333333 17.08333333 11.83333333 15 11 C14.34 10.67 13.68 10.34 13 10 C13 9.34 13 8.68 13 8 C12.34 7.773125 11.68 7.54625 11 7.3125 C7.09257775 5.60300277 3.47578462 3.47531064 0 1 C0 0.67 0 0.34 0 0 Z " fill="#D1D0B9" transform="translate(739,293)"/>
<path d="M0 0 C0.99 0.33 1.98 0.66 3 1 C5.39254576 1.22560676 7.78928123 1.40848595 10.1875 1.5625 C12.09595703 1.68818359 12.09595703 1.68818359 14.04296875 1.81640625 C15.01878906 1.87699219 15.99460937 1.93757812 17 2 C17 1.34 17 0.68 17 0 C17.57366302 0.16233124 18.14732605 0.32466248 18.7383728 0.49191284 C20.97313087 0.9939637 22.90057957 1.12684592 25.18603516 1.12939453 C26.00012848 1.13254669 26.8142218 1.13569885 27.65298462 1.13894653 C28.95784317 1.13591019 28.95784317 1.13591019 30.2890625 1.1328125 C31.63851456 1.13424759 31.63851456 1.13424759 33.01522827 1.13571167 C34.91314769 1.13639117 36.81106945 1.13455294 38.70898438 1.13037109 C41.62114644 1.1250071 44.53315515 1.13033028 47.4453125 1.13671875 C49.28906284 1.13605817 51.13281309 1.13477743 52.9765625 1.1328125 C53.85051666 1.13483673 54.72447083 1.13686096 55.62490845 1.13894653 C59.9483891 1.25325123 59.9483891 1.25325123 64 0 C65.71233688 0.0870204 67.42175406 0.24097162 69.125 0.4375 C70.03507813 0.53933594 70.94515625 0.64117188 71.8828125 0.74609375 C72.58148437 0.82988281 73.28015625 0.91367187 74 1 C74 1.33 74 1.66 74 2 C65.74348028 3.0653793 57.55569648 3.13066958 49.2421875 3.09765625 C47.84400483 3.09578678 46.4458215 3.09436538 45.04763794 3.09336853 C41.40138886 3.08958498 37.75518083 3.0797912 34.10894775 3.06866455 C30.37472081 3.05836 26.64048712 3.0538517 22.90625 3.04882812 C15.60414814 3.03816439 8.30207986 3.02113919 1 3 C0.67 2.01 0.34 1.02 0 0 Z " fill="#659699" transform="translate(744,560)"/>
<path d="M0 0 C-1.57149282 1.84919624 -2.52819558 2.88694667 -4.92260742 3.46069336 C-5.64295166 3.50331299 -6.3632959 3.54593262 -7.10546875 3.58984375 C-7.91669189 3.64986572 -8.72791504 3.7098877 -9.5637207 3.77172852 C-10.42956787 3.82643311 -11.29541504 3.8811377 -12.1875 3.9375 C-20.26528752 4.58047521 -27.72298005 5.92053711 -35.51953125 8.09765625 C-39.00689673 9.00178804 -42.42753508 9.55630077 -46 10 C-38.55835967 3.82203444 -28.0452367 2.67154325 -18.75 1.25 C-17.92306641 1.12238281 -17.09613281 0.99476563 -16.24414062 0.86328125 C-10.78018538 0.08707691 -5.51788954 -0.11080099 0 0 Z " fill="#D7D5BC" transform="translate(465,143)"/>
<path d="M0 0 C3.20406692 1.36083034 4.80046104 2.68969197 6.734375 5.5703125 C7.46648193 6.65662964 7.46648193 6.65662964 8.21337891 7.76489258 C8.72046387 8.54372803 9.22754883 9.32256348 9.75 10.125 C10.2764209 10.92381592 10.8028418 11.72263184 11.34521484 12.5456543 C16.20650878 20.06159746 20.30229861 27.85557567 24 36 C24.42023437 36.89074219 24.84046875 37.78148437 25.2734375 38.69921875 C26.09990155 41.31635492 25.75588195 42.42749755 25 45 C24.77973145 44.47792969 24.55946289 43.95585937 24.33251953 43.41796875 C20.33807021 34.03666051 16.24144927 24.83877989 10.8125 16.1875 C10.42143066 15.56166016 10.03036133 14.93582031 9.62744141 14.29101562 C7.10064517 10.38222946 4.28375425 6.90899903 1.14331055 3.47387695 C0 2 0 2 0 0 Z " fill="#DFD9BE" transform="translate(602,202)"/>
<path d="M0 0 C3.96867214 2.64578143 4.3945034 5.60958012 5.5625 10 C5.77865967 10.79583496 5.99481934 11.59166992 6.2175293 12.41162109 C9.06500374 23.44409528 10.14055859 34.62753188 10 46 C9.34 46 8.68 46 8 46 C7.94392578 45.12214844 7.94392578 45.12214844 7.88671875 44.2265625 C6.84612592 30.63764434 4.29299744 17.21166442 1 4 C0.80664062 3.22398437 0.61328125 2.44796875 0.4140625 1.6484375 C0.27742187 1.10445312 0.14078125 0.56046875 0 0 Z " fill="#D7D5BB" transform="translate(628,248)"/>
<path d="M0 0 C14.90587117 -1.08406336 28.82630938 4.68797596 42 11 C42 11.66 42 12.32 42 13 C38.5625 11.85416667 35.125 10.70833333 31.6875 9.5625 C30.9140625 9.30726563 30.140625 9.05203125 29.34375 8.7890625 C27.83726861 8.28188043 26.33650512 7.75719934 24.84375 7.2109375 C18.67004921 4.99645787 12.47998939 3.93340567 6 3 C5.23429688 2.8865625 4.46859375 2.773125 3.6796875 2.65625 C2.12099673 2.4290724 0.56071528 2.21282481 -1 2 C-0.67 1.34 -0.34 0.68 0 0 Z " fill="#DFDBC0" transform="translate(697,280)"/>
<path d="M0 0 C0.99 0 1.98 0 3 0 C3 0.66 3 1.32 3 2 C4.32 2.33 5.64 2.66 7 3 C7 3.66 7 4.32 7 5 C8.32 5 9.64 5 11 5 C11.625 7.375 11.625 7.375 12 10 C11.34 10.66 10.68 11.32 10 12 C10.99 13.485 10.99 13.485 12 15 C11.625 17.6875 11.625 17.6875 11 20 C8.59493834 16.39240751 6.49936048 12.65237848 4.375 8.875 C3.95476563 8.13378906 3.53453125 7.39257812 3.1015625 6.62890625 C0 1.12061181 0 1.12061181 0 0 Z " fill="#5C9598" transform="translate(614,216)"/>
<path d="M0 0 C16.29596349 -0.32864959 32.00091813 -0.34725499 48 3 C48 3.33 48 3.66 48 4 C42.13916665 5.12228724 35.50318871 5.75159436 30 3 C20.40354986 1.63389726 10.66614913 1.89692495 1 2 C0.67 1.34 0.34 0.68 0 0 Z " fill="#E3DDC1" transform="translate(466,143)"/>
<path d="M0 0 C0.91587891 -0.00773437 1.83175781 -0.01546875 2.77539062 -0.0234375 C8.09510151 -0.00816195 12.53133621 0.50604776 17.5625 2.25 C16.9025 2.91 16.2425 3.57 15.5625 4.25 C13.5390625 3.97265625 13.5390625 3.97265625 11.1875 3.3125 C7.79688138 2.36562156 5.9265645 2.30936837 2.5625 3.25 C0.95830833 3.26880962 -0.64674938 3.24557049 -2.25 3.1875 C-6.73348628 3.12772018 -10.21623491 3.78173388 -14.4375 5.25 C-15.0975 4.26 -15.7575 3.27 -16.4375 2.25 C-10.92292188 -0.06226903 -5.87239525 -0.04938244 0 0 Z " fill="#CDCEB7" transform="translate(603.4375,368.75)"/>
<path d="M0 0 C0.495 1.98 0.495 1.98 1 4 C0.20940186 3.99476318 -0.58119629 3.98952637 -1.39575195 3.98413086 C-5.03465964 3.96313358 -8.6735545 3.95026823 -12.3125 3.9375 C-13.55580078 3.92912109 -14.79910156 3.92074219 -16.08007812 3.91210938 C-23.44861031 3.8927694 -30.67757176 4.16096191 -38 5 C-38 4.67 -38 4.34 -38 4 C-30.25466606 1.8656561 -23.06218439 1.8286088 -15.0625 2 C-12.63689335 2.05082465 -10.21108371 2.09295693 -7.78515625 2.125 C-6.72176025 2.14820313 -5.65836426 2.17140625 -4.56274414 2.1953125 C-1.83285672 2.26707523 -1.83285672 2.26707523 0 0 Z " fill="#5EA2A5" transform="translate(285,315)"/>
<path d="M0 0 C2.31459868 1.81817001 2.95377187 2.75615543 3.51171875 5.69921875 C3.56972656 6.68535156 3.62773438 7.67148437 3.6875 8.6875 C3.75324219 9.68136719 3.81898438 10.67523438 3.88671875 11.69921875 C3.92410156 12.45847656 3.96148438 13.21773438 4 14 C5.98 13.67 7.96 13.34 10 13 C10.33 12.01 10.66 11.02 11 10 C12.7421875 9.015625 12.7421875 9.015625 14.875 8.25 C15.92300781 7.85554688 15.92300781 7.85554688 16.9921875 7.453125 C19 7 19 7 22 8 C19.96168152 9.13105506 17.91918624 10.25458472 15.875 11.375 C14.73804688 12.00148438 13.60109375 12.62796875 12.4296875 13.2734375 C9.31820088 14.83981232 6.32931763 15.99816886 3 17 C2.49622232 14.73000175 1.99709981 12.45896997 1.5 10.1875 C1.08234375 8.29064453 1.08234375 8.29064453 0.65625 6.35546875 C0 3 0 3 0 0 Z " fill="#CCCDB7" transform="translate(564,366)"/>
<path d="M0 0 C-3.19748585 2.13165723 -6.4420393 3.43897199 -10 4.8125 C-16.43371816 7.33592551 -22.74350906 10.06035977 -29 13 C-29 12.34 -29 11.68 -29 11 C-9.42163212 -0.72474093 -9.42163212 -0.72474093 0 0 Z " fill="#DCD8BE" transform="translate(667,283)"/>
<path d="M0 0 C0.92232422 0.00902344 1.84464844 0.01804687 2.79492188 0.02734375 C5.05105809 0.0507234 7.30663684 0.08349084 9.5625 0.125 C6.0529117 2.46472554 4.16244145 2.46891369 0 2.6875 C-4.37770666 2.79306962 -4.37770666 2.79306962 -8.4375 4.125 C-8.4375 3.465 -8.4375 2.805 -8.4375 2.125 C-11.9025 3.61 -11.9025 3.61 -15.4375 5.125 C-15.4375 4.465 -15.4375 3.805 -15.4375 3.125 C-16.0975 2.795 -16.7575 2.465 -17.4375 2.125 C-11.51968663 0.06310069 -6.23331786 -0.11667838 0 0 Z " fill="#E7DFC2" transform="translate(686.4375,279.875)"/>
<path d="M0 0 C0.99 0.33 1.98 0.66 3 1 C-1.95 5.62 -6.9 10.24 -12 15 C-12.33 14.01 -12.66 13.02 -13 12 C-4.49685535 3.27044025 -4.49685535 3.27044025 0 0 Z " fill="#BCC6B4" transform="translate(364,183)"/>
<path d="M0 0 C4.57134774 4.57134774 4.125 14.59732618 4.125 20.875 C4.08375 21.90625 4.0425 22.9375 4 24 C3.34 24 2.68 24 2 24 C1.2470635 16.00605711 0.5982929 8.00694114 0 0 Z " fill="#E2DBBF" transform="translate(634,270)"/>
<path d="M0 0 C0.66 0 1.32 0 2 0 C2.82638376 2.89234315 3 4.88742431 3 8 C3.93283296 10.20067421 3.93283296 10.20067421 5 12 C5.99 12 6.98 12 8 12 C3.25 16 3.25 16 1 16 C0.67 10.72 0.34 5.44 0 0 Z " fill="#649A9B" transform="translate(637,278)"/>
<path d="M0 0 C0.99 0.33 1.98 0.66 3 1 C-3.03925763 6.19553782 -8.663689 10.81631787 -16 14 C-16 13.34 -16 12.68 -16 12 C-13.34055385 9.58232168 -10.57432788 7.71714285 -7.4375 6 C-4.39448732 4.2295199 -2.32407102 2.60295955 0 0 Z " fill="#81A7A6" transform="translate(867,539)"/>
<path d="M0 0 C8.10498915 1.30725631 15.60440118 4.55571403 23 8 C19.69839242 9.11574135 17.92784292 8.90312148 14.70703125 7.63671875 C13.91232422 7.32669922 13.11761719 7.01667969 12.29882812 6.69726562 C11.47833984 6.36404297 10.65785156 6.03082031 9.8125 5.6875 C8.98041016 5.36587891 8.14832031 5.04425781 7.29101562 4.71289062 C1.13471896 2.26943791 1.13471896 2.26943791 0 0 Z " fill="#D4D3BB" transform="translate(492,301)"/>
<path d="M0 0 C8.04956064 1.09244037 14.67465088 7.14211597 20 13 C17.03824877 12.38722388 15.61941217 11.74627478 13 10 C13 9.34 13 8.68 13 8 C12.34 7.773125 11.68 7.54625 11 7.3125 C7.09257775 5.60300277 3.47578462 3.47531064 0 1 C0 0.67 0 0.34 0 0 Z " fill="#DAD7BD" transform="translate(739,293)"/>
<path d="M0 0 C0 0.99 0 1.98 0 3 C-1.83999065 4.83999065 -4.70344237 4.47137295 -7.1875 4.6875 C-8.31542969 4.79449219 -9.44335938 4.90148437 -10.60546875 5.01171875 C-14.20091299 4.9993064 -16.71216507 4.4271639 -20 3 C-20.33 2.34 -20.66 1.68 -21 1 C-19.98292969 1.26876953 -19.98292969 1.26876953 -18.9453125 1.54296875 C-11.74956389 3.18742653 -6.83164076 2.75636699 0 0 Z " fill="#4F9099" transform="translate(265,707)"/>
<path d="M0 0 C0.33 1.32 0.66 2.64 1 4 C-6.26 4 -13.52 4 -21 4 C-21 3.67 -21 3.34 -21 3 C-20.15236084 2.970271 -20.15236084 2.970271 -19.28759766 2.93994141 C-16.73292003 2.84481764 -14.17907459 2.73508942 -11.625 2.625 C-10.29082031 2.57859375 -10.29082031 2.57859375 -8.9296875 2.53125 C-8.07890625 2.49257813 -7.228125 2.45390625 -6.3515625 2.4140625 C-5.17327881 2.36693115 -5.17327881 2.36693115 -3.97119141 2.31884766 C-1.76997061 2.1600535 -1.76997061 2.1600535 0 0 Z " fill="#57969A" transform="translate(285,315)"/>
<path d="M0 0 C2.97 0.495 2.97 0.495 6 1 C6.33 2.65 6.66 4.3 7 6 C7.66 6 8.32 6 9 6 C8.67 6.99 8.34 7.98 8 9 C5.06799526 6.14723863 2.35684596 3.34920216 0 0 Z " fill="#5C9598" transform="translate(760,306)"/>
<path d="M0 0 C1.65 0.33 3.3 0.66 5 1 C5 1.66 5 2.32 5 3 C0.6835078 3.76173392 -2.74433453 4.16063604 -7 3 C-6.67 2.34 -6.34 1.68 -6 1 C-3.03 1.495 -3.03 1.495 0 2 C0 1.34 0 0.68 0 0 Z " fill="#6A999C" transform="translate(828,558)"/>
<path d="M0 0 C2.07743852 3.36989073 2.11016592 5.5507819 1.625 9.4375 C1.19977908 12.99254464 0.93498695 16.41778108 1 20 C-2.52509388 13.82760241 -1.14912789 6.75112637 0 0 Z " fill="#699A9D" transform="translate(123,488)"/>
<path d="M0 0 C0.33 0 0.66 0 1 0 C1.66 5.28 2.32 10.56 3 16 C2.01 16.33 1.02 16.66 0 17 C0 11.39 0 5.78 0 0 Z " fill="#629799" transform="translate(787,371)"/>
<path d="M0 0 C1 2 1 2 0.4375 4.25 C-1.48620759 7.93013625 -3.96946623 10.16710974 -7 13 C-7.99 12.67 -8.98 12.34 -10 12 C-9.0925 11.319375 -8.185 10.63875 -7.25 9.9375 C-3.77393779 7.07098424 -2.03435118 3.99045809 0 0 Z " fill="#5CA1A5" transform="translate(481,860)"/>
<path d="M0 0 C0.91330404 3.03050885 1.06558338 5.47968569 0.75 8.625 C0.68296875 9.40101563 0.6159375 10.17703125 0.546875 10.9765625 C0 13 0 13 -3 15 C-2.22095672 4.44191344 -2.22095672 4.44191344 0 0 Z " fill="#7FA8A5" transform="translate(184,393)"/>
<path d="M0 0 C0.33 1.32 0.66 2.64 1 4 C0.01 4.66 -0.98 5.32 -2 6 C-3.32 4.35 -4.64 2.7 -6 1 C-4 0 -4 0 0 0 Z " fill="#669B9C" transform="translate(592,182)"/>
<path d="M0 0 C2.45862401 -0.05383848 4.9160755 -0.09359038 7.375 -0.125 C8.42300781 -0.15013672 8.42300781 -0.15013672 9.4921875 -0.17578125 C11.32897486 -0.19344267 13.16601963 -0.10303261 15 0 C15.66 0.66 16.32 1.32 17 2 C15.02 2.33 13.04 2.66 11 3 C11 2.67 11 2.34 11 2 C7.37 1.67 3.74 1.34 0 1 C0 0.67 0 0.34 0 0 Z " fill="#5F9EA0" transform="translate(470,124)"/>
<path d="M0 0 C1.51812085 3.0362417 0.96296467 4.79011776 0 8 C-3.0625 10.375 -3.0625 10.375 -6 12 C-4.125 7.25 -4.125 7.25 -3 5 C-2.34 5 -1.68 5 -1 5 C-0.67 3.35 -0.34 1.7 0 0 Z " fill="#4C8C96" transform="translate(237,647)"/>
<path d="M0 0 C4.455 0.99 4.455 0.99 9 2 C9 2.33 9 2.66 9 3 C4.05 3 -0.9 3 -6 3 C-6 2.67 -6 2.34 -6 2 C-4.02 2 -2.04 2 0 2 C0 1.34 0 0.68 0 0 Z " fill="#5D9096" transform="translate(617,560)"/>
<path d="M0 0 C0.33 0 0.66 0 1 0 C1.02688151 1.64574566 1.04634123 3.29161413 1.0625 4.9375 C1.07410156 5.85402344 1.08570313 6.77054687 1.09765625 7.71484375 C1 10 1 10 0 11 C-1.66617115 11.04063832 -3.33388095 11.042721 -5 11 C-5 10.34 -5 9.68 -5 9 C-3.68 8.67 -2.36 8.34 -1 8 C-0.67 5.36 -0.34 2.72 0 0 Z " fill="#98B4AC" transform="translate(355,376)"/>
<path d="M0 0 C3.16115776 1.36983503 3.9927092 1.9890638 6 5 C6.99 5 7.98 5 9 5 C8.34 6.32 7.68 7.64 7 9 C4.04070881 6.24479785 1.96318174 3.53372712 0 0 Z " fill="#5C9799" transform="translate(603,201)"/>
<path d="M0 0 C0.33 0 0.66 0 1 0 C1.39253254 4.44870215 0.15305957 7.14243493 -2 11 C-2.66 10.67 -3.32 10.34 -4 10 C-3.52449439 8.51965236 -3.04448784 7.04074979 -2.5625 5.5625 C-2.29566406 4.73878906 -2.02882813 3.91507812 -1.75390625 3.06640625 C-1 1 -1 1 0 0 Z " fill="#8AADA8" transform="translate(891,500)"/>
<path d="M0 0 C2 2 2 2 2.046875 3.91015625 C1.94890625 4.62042969 1.8509375 5.33070313 1.75 6.0625 C1.61851562 7.13177734 1.61851562 7.13177734 1.484375 8.22265625 C1.32453125 8.80917969 1.1646875 9.39570313 1 10 C0.01 10.495 0.01 10.495 -1 11 C-1.14285714 3.57142857 -1.14285714 3.57142857 0 0 Z " fill="#90B0AA" transform="translate(305,281)"/>
<path d="M0 0 C-1.49097658 3.7952131 -3.75700849 5.61042731 -7 8 C-6.44414399 4.1090079 -4.34122117 0 0 0 Z " fill="#B9C5B3" transform="translate(349,200)"/>
<path d="M0 0 C1.9375 0.8125 1.9375 0.8125 4 2 C4.33 2.99 4.66 3.98 5 5 C2.36 4.34 -0.28 3.68 -3 3 C-2.01 2.67 -1.02 2.34 0 2 C0 1.34 0 0.68 0 0 Z " fill="#639A9B" transform="translate(530,148)"/>
<path d="M0 0 C0.99 0.33 1.98 0.66 3 1 C3 1.66 3 2.32 3 3 C0.04335481 4.4783226 -2.74229737 4.06032783 -6 4 C-6.33 3.34 -6.66 2.68 -7 2 C-5.02 2 -3.04 2 -1 2 C-0.67 1.34 -0.34 0.68 0 0 Z " fill="#6D9C9D" transform="translate(730,559)"/>
</svg>
