<?xml version="1.0" encoding="UTF-8"?>
<svg version="1.1" xmlns="http://www.w3.org/2000/svg" width="1024" height="1024">
<path d="M0 0 C337.92 0 675.84 0 1024 0 C1024 337.92 1024 675.84 1024 1024 C686.08 1024 348.16 1024 0 1024 C0 686.08 0 348.16 0 0 Z " fill="#5CACAC" transform="translate(0,0)"/>
<path d="M0 0 C2.2072923 0.07092842 4.41667452 0.08415025 6.625 0.0625 C8.40777344 0.04896484 8.40777344 0.04896484 10.2265625 0.03515625 C11.59941406 0.01775391 11.59941406 0.01775391 13 0 C13 0.66 13 1.32 13 2 C13.53625 2.12375 14.0725 2.2475 14.625 2.375 C17 3 17 3 19.9375 4.0625 C22.83862749 4.95060025 24.9960415 5.17670344 28 5 C28 5.99 28 6.98 28 8 C28.67546875 8.03738281 29.3509375 8.07476562 30.046875 8.11328125 C30.93890625 8.17902344 31.8309375 8.24476563 32.75 8.3125 C34.07257813 8.39951172 34.07257813 8.39951172 35.421875 8.48828125 C38.40728996 9.08084089 39.61875068 10.14350747 42 12 C43.68463067 12.72837896 45.37052044 13.45433108 47.06835938 14.15136719 C57.72536648 18.83333846 68.77259986 25.75483009 77 34 C77 34.66 77 35.32 77 36 C77.82177734 36.33451172 77.82177734 36.33451172 78.66015625 36.67578125 C85.95864848 40.80631358 92.63170294 48.92034615 97 56 C97 56.66 97 57.32 97 58 C97.66 58 98.32 58 99 58 C99 58.66 99 59.32 99 60 C99.66 60 100.32 60 101 60 C106.18431033 65.44977201 109.58032158 72.38126758 113 79 C113.59167969 80.10859375 114.18335938 81.2171875 114.79296875 82.359375 C118.81335102 90.07439428 121.68813119 97.62757791 124 106 C124.53890307 107.73002995 125.08037601 109.4592625 125.625 111.1875 C130.28781034 126.92448489 130.66534909 142.76689012 129.0625 159 C128.97548828 159.92039062 128.88847656 160.84078125 128.79882812 161.7890625 C128.22151454 167.86154617 127.61135716 173.93086079 127 180 C128.02480469 179.566875 129.04960938 179.13375 130.10546875 178.6875 C131.46595556 178.12453994 132.82664335 177.56206544 134.1875 177 C134.86103516 176.71382812 135.53457031 176.42765625 136.22851562 176.1328125 C139.94993794 174.60793701 142.96471408 173.62389568 147 174 C147.33 173.34 147.66 172.68 148 172 C155.63864189 169.36017523 164.02907139 169.63351595 172 169.625 C173.2065625 169.60050781 174.413125 169.57601562 175.65625 169.55078125 C183.41976665 169.52546543 189.01528026 170.73226823 196 174 C198.68665519 174.98414265 201.40364654 175.86694857 204.125 176.75 C204.7953125 176.97042969 205.465625 177.19085938 206.15625 177.41796875 C207.76989809 177.94816741 209.38480779 178.47452413 211 179 C211 179.66 211 180.32 211 181 C212.5778125 181.37125 212.5778125 181.37125 214.1875 181.75 C217.88515881 182.82232105 220.11321904 184.3948562 223 187 C223.94552734 187.81210937 223.94552734 187.81210937 224.91015625 188.640625 C228.75668139 191.94791765 232.57464351 195.25351634 236 199 C236 199.66 236 200.32 236 201 C236.66 201 237.32 201 238 201 C249.24827947 215.43619764 255.37985184 230.40783024 260 248 C260.30345337 249.13199829 260.30345337 249.13199829 260.61303711 250.28686523 C262.293066 257.41563649 262.27086107 264.53720798 262.20581055 271.82202148 C262.18756232 273.93029977 262.18530163 276.03813521 262.18554688 278.14648438 C262.16496777 285.81101906 261.87758883 293.38244816 261 301 C261.60835693 300.96865967 262.21671387 300.93731934 262.84350586 300.9050293 C272.77522719 300.47888615 278.42669308 303.96580413 286.09375 310.0625 C288 312 288 312 288 315 C288.59683594 315.22300781 289.19367187 315.44601562 289.80859375 315.67578125 C292.67905059 317.41033538 293.52945701 319.22361688 295.0625 322.1875 C295.54847656 323.10917969 296.03445313 324.03085937 296.53515625 324.98046875 C297.01855469 325.97691406 297.50195312 326.97335937 298 328 C298.53496094 329.09957031 299.06992187 330.19914062 299.62109375 331.33203125 C303.73903315 342.28598336 302.68197336 353.91454522 298.52734375 364.640625 C292.81836973 377.19744765 292.81836973 377.19744765 286 381 C285.34 381.66 284.68 382.32 284 383 C282.06794773 384.51455132 280.09877073 385.96880379 278.1171875 387.41796875 C276.05513089 388.91586405 276.05513089 388.91586405 274.4453125 390.36328125 C268.76104428 395.11980621 261.17928045 396.80732558 254 398 C250.53515625 397.6015625 250.53515625 397.6015625 248 397 C248 397.66 248 398.32 248 399 C244.04 399.33 240.08 399.66 236 400 C235.67 399.01 235.34 398.02 235 397 C235 397.99 235 398.98 235 400 C225.33333333 400 215.66666667 400 206 400 C206 399.34 206 398.68 206 398 C206.66 398 207.32 398 208 398 C207.67 397.34 207.34 396.68 207 396 C206.01 396.495 206.01 396.495 205 397 C204.67 397.99 204.34 398.98 204 400 C90.66666667 400 90.66666667 400 84.9375 399.12109375 C82.7809235 398.86480929 82.7809235 398.86480929 80 400 C76.67052289 400.22718336 73.33644072 400.18515039 70 400.1875 C69.08476563 400.19974609 68.16953125 400.21199219 67.2265625 400.22460938 C66.34742188 400.22654297 65.46828125 400.22847656 64.5625 400.23046875 C63.75941406 400.23457764 62.95632813 400.23868652 62.12890625 400.24291992 C60 400 60 400 57 398 C56.33984375 395.94140625 56.33984375 395.94140625 55.9375 393.5625 C55.36575164 390.25724994 54.92994213 388.89491319 53 386 C53 385.34 53 384.68 53 384 C52.34 383.67 51.68 383.34 51 383 C51 381.68 51 380.36 51 379 C48.80435781 376.52694869 48.80435781 376.52694869 46 374 C45.07933883 372.99374973 44.17071553 371.9763744 43.2734375 370.94921875 C32.50858057 358.77509705 18.785019 347.03065314 2 345 C2 344.34 2 343.68 2 343 C-19.93064097 342.58806772 -38.30563172 343.26157998 -56 357.75 C-64.47678827 366.02965365 -69.91665059 375.97131075 -74 387 C-74.33 387.66 -74.66 388.32 -75 389 C-75.68711664 391.40490822 -76.09624533 393.70121594 -76.4375 396.1875 C-76.623125 397.115625 -76.80875 398.04375 -77 399 C-79.28043046 400.14021523 -80.53289136 400.11578065 -83.0625 400.09765625 C-83.85914063 400.09443359 -84.65578125 400.09121094 -85.4765625 400.08789062 C-86.30929687 400.07951172 -87.14203125 400.07113281 -88 400.0625 C-88.83273437 400.05798828 -89.66546875 400.05347656 -90.5234375 400.04882812 C-92.06642062 400.04008955 -93.60939439 400.02930532 -95.15234375 400.01586914 C-96.43485944 400.00485388 -97.71743701 400 -99 400 C-109.66666667 400 -120.33333333 400 -131 400 C-131 399.34 -131 398.68 -131 398 C-131.680625 398.33 -132.36125 398.66 -133.0625 399 C-136.50840238 400.17307315 -139.38397422 400.14180493 -143 400 C-142.67 399.01 -142.34 398.02 -142 397 C-142.66 397 -143.32 397 -144 397 C-144.33 397.99 -144.66 398.98 -145 400 C-149.18090413 400.02480683 -153.36176872 400.04291049 -157.54272461 400.05493164 C-158.96363064 400.05994565 -160.38453156 400.06675852 -161.80541992 400.07543945 C-163.85336576 400.08763388 -165.9012431 400.09325772 -167.94921875 400.09765625 C-169.17987061 400.10289307 -170.41052246 400.10812988 -171.6784668 400.11352539 C-174.59696009 400.01377534 -177.15649056 399.59904951 -180 399 C-181.33981486 399.3062434 -182.67511887 399.63451555 -184 400 C-184.66 399.67 -185.32 399.34 -186 399 C-187.093125 399.165 -188.18625 399.33 -189.3125 399.5 C-192.78473971 399.97081216 -194.66604396 399.75014011 -198 399 C-201.70706238 398.87217026 -204.47337764 398.82445921 -208 400 C-213.11513732 400.33126604 -217.96364627 399.93699604 -223 399 C-226.20090481 399 -229.20048226 399.17988056 -232.375 399.5 C-236.26933049 399.87014386 -240.08385128 400.10584186 -244 400 C-244 399.34 -244 398.68 -244 398 C-245.051875 398.185625 -246.10375 398.37125 -247.1875 398.5625 C-250.60247643 398.95438254 -252.73410002 398.83980285 -256 398 C-256.66 398 -257.32 398 -258 398 C-258 398.66 -258 399.32 -258 400 C-262.29 400 -266.58 400 -271 400 C-271 399.34 -271 398.68 -271 398 C-271.66386719 398.15597656 -272.32773437 398.31195312 -273.01171875 398.47265625 C-274.33623047 398.76462891 -274.33623047 398.76462891 -275.6875 399.0625 C-276.55761719 399.25972656 -277.42773438 399.45695312 -278.32421875 399.66015625 C-281.16502153 400.02095894 -283.2251394 399.60035315 -286 399 C-286.66 399.33 -287.32 399.66 -288 400 C-289.73353737 400.09686608 -291.47079088 400.13076003 -293.20703125 400.1328125 C-294.78919434 400.13631714 -294.78919434 400.13631714 -296.40332031 400.13989258 C-301.93602953 400.11572362 -307.46776273 400.07797051 -313 400 C-314.25683594 399.98324219 -315.51367188 399.96648437 -316.80859375 399.94921875 C-327.09944103 399.47089252 -337.07849928 396.59839222 -347 394 C-348.22460938 393.690625 -349.44921875 393.38125 -350.7109375 393.0625 C-363.45498262 389.53822086 -374.19789919 383.52604254 -383.6328125 374.296875 C-385.97299422 371.94366199 -385.97299422 371.94366199 -388.6796875 369.91015625 C-391.19898349 367.83619036 -392.4703137 365.70007301 -393.97265625 362.828125 C-395.10194119 360.70475481 -395.10194119 360.70475481 -397.4375 357.9375 C-408.84335792 342.21496354 -409.86798 318.63975023 -407.49609375 300.05078125 C-404.43075056 285.2495527 -394.37750973 269.03786549 -382.8125 259.125 C-381 258 -381 258 -379 258 C-379 257.34 -379 256.68 -379 256 C-370.98511615 250.11307418 -361.17523119 244 -351 244 C-351 243.34 -351 242.68 -351 242 C-349.92878906 241.95101562 -348.85757813 241.90203125 -347.75390625 241.8515625 C-346.35674361 241.77654706 -344.9596095 241.7009987 -343.5625 241.625 C-342.50192383 241.57859375 -342.50192383 241.57859375 -341.41992188 241.53125 C-339.60760812 241.42719371 -337.80182012 241.22080108 -336 241 C-335.67 240.34 -335.34 239.68 -335 239 C-332.58325776 238.97294692 -330.1668206 238.95313562 -327.75 238.9375 C-327.06808594 238.92912109 -326.38617188 238.92074219 -325.68359375 238.91210938 C-322.30657446 238.89571608 -319.22708361 238.94371232 -316 240 C-316.16008545 239.46729492 -316.3201709 238.93458984 -316.48510742 238.38574219 C-321.16313441 216.71021835 -316.24202996 193.69132483 -305 175 C-302.02795048 170.52548364 -298.9111969 166.71563705 -295 163 C-294.23042969 162.21496094 -293.46085937 161.42992187 -292.66796875 160.62109375 C-274.82248278 143.08914486 -253.40244331 137.81579705 -229.06762695 137.66992188 C-219.04468133 137.77413758 -210.41531395 140.7515898 -201 144 C-200.22914063 144.2475 -199.45828125 144.495 -198.6640625 144.75 C-193.76397933 146.40213532 -190.80158034 148.64046388 -187 152 C-186.01 152.33 -185.02 152.66 -184 153 C-183.92652344 151.63681641 -183.92652344 151.63681641 -183.8515625 150.24609375 C-182.4610332 126.8708167 -182.4610332 126.8708167 -179 117 C-178.60872326 115.67303945 -178.2265015 114.34338783 -177.8515625 113.01171875 C-173.60583048 97.99207514 -173.60583048 97.99207514 -170 91 C-169.4121875 89.83855469 -168.824375 88.67710937 -168.21875 87.48046875 C-164.32037932 79.90184482 -160.08760557 72.85382672 -155 66 C-154.32710937 65.04996094 -153.65421875 64.09992188 -152.9609375 63.12109375 C-149.56577148 58.34624416 -146.2084566 54.09155503 -142 50 C-140.94291535 48.92422526 -139.88837795 47.84594363 -138.8359375 46.765625 C-129.9770838 37.73962311 -121.22738192 29.04551334 -110 23 C-108.948125 22.22269531 -107.89625 21.44539063 -106.8125 20.64453125 C-103.00068132 17.89355837 -99.01651217 15.88625695 -94.75 13.9375 C-94.00564697 13.59243408 -93.26129395 13.24736816 -92.49438477 12.8918457 C-87.60469111 10.65415341 -82.68234905 8.62376299 -77.58984375 6.88671875 C-75.48263655 6.1652466 -73.40539408 5.35671181 -71.33984375 4.5234375 C-66.53946615 2.71831596 -61.66709257 1.80699509 -56.625 0.9375 C-55.65602783 0.76976074 -54.68705566 0.60202148 -53.6887207 0.42919922 C-50.79453234 -0.06072906 -47.89781709 -0.53208342 -45 -1 C-43.82655029 -1.20036865 -43.82655029 -1.20036865 -42.62939453 -1.40478516 C-30.33912077 -3.45362124 -11.34131194 -5.67065597 0 0 Z " fill="#80B6BA" transform="translate(556,158)"/>
<path d="M0 0 C3.20705768 0.51694252 6.42663997 0.93592003 9.64501953 1.37597656 C29.72932371 4.12646615 51.68532224 15.82783582 67.33251953 28.37597656 C68.19232422 29.06304687 69.05212891 29.75011719 69.93798828 30.45800781 C71.67348093 31.84790453 73.4055748 33.24206215 75.13330078 34.64160156 C77.41596387 36.48915548 77.41596387 36.48915548 80.33251953 38.37597656 C80.33251953 39.03597656 80.33251953 39.69597656 80.33251953 40.37597656 C81.21230469 40.77042969 81.21230469 40.77042969 82.10986328 41.17285156 C93.73659069 47.46640524 103.2477478 63.55733866 110.33251953 74.37597656 C111.02861328 75.43558594 111.72470703 76.49519531 112.44189453 77.58691406 C129.6002044 104.49927293 140.02763843 138.357064 138.33251953 170.37597656 C139.61642578 170.22 140.90033203 170.06402344 142.22314453 169.90332031 C160.24498018 167.85811867 176.95480752 167.65179516 194.33251953 173.37597656 C195.26966797 173.6634375 196.20681641 173.95089844 197.17236328 174.24707031 C223.1056528 182.81533778 243.60740898 201.93344906 256.33251953 225.81347656 C267.89396405 249.72327021 271.63617673 275.10787301 268.33251953 301.37597656 C269.54939453 301.66472656 270.76626953 301.95347656 272.02001953 302.25097656 C284.52867326 306.46649136 295.24583649 317.86490625 301.64501953 329.06347656 C309.45386338 346.87627705 309.7724006 367.13967783 303.33251953 385.37597656 C299.86004563 393.70358113 294.65463572 400.0228696 288.33251953 406.37597656 C287.60548828 407.1378125 286.87845703 407.89964844 286.12939453 408.68457031 C276.28224131 418.34750808 263.99084244 423.95190333 250.89501953 427.81347656 C250.1108667 428.04832764 249.32671387 428.28317871 248.51879883 428.52514648 C230.02132712 433.53986806 210.51724604 432.70128123 191.52409434 432.74776196 C187.53649539 432.75983609 183.54896665 432.78366432 179.56141663 432.80638123 C172.02915851 432.84772977 164.49689374 432.88028782 156.96457726 432.90885538 C143.46201104 432.96014429 129.95950047 433.02230579 116.45702845 433.09419578 C111.729478 433.11895982 107.00194465 433.13845921 102.27435386 433.15357792 C99.33269215 433.16383398 96.39105768 433.17797826 93.44941711 433.1930542 C91.45103642 433.20206832 89.45263584 433.20627972 87.45423889 433.21031189 C80.99147914 433.24726722 74.74176969 433.55503659 68.33251953 434.37597656 C63.22762366 434.62684705 58.35952123 434.21381018 53.33251953 433.37597656 C52.99403301 435.27089662 52.66195042 437.16696122 52.33251953 439.06347656 C52.14689453 440.11921875 51.96126953 441.17496094 51.77001953 442.26269531 C51.25835989 445.31183759 51.25835989 445.31183759 51.38330078 448.16113281 C51.33251953 450.37597656 51.33251953 450.37597656 49.52001953 452.12597656 C47.25468844 454.4560314 46.8054576 455.54438021 45.89501953 458.56347656 C40.29990982 476.91302993 25.49185316 490.13944837 9.33251953 499.37597656 C-3.56530147 506.23690079 -18.34166384 510.91595651 -32.87449646 512.43183899 C-33.64815975 512.51455215 -34.42182303 512.59726531 -35.21893066 512.68248492 C-44.57852951 513.63456621 -53.95826962 514.08666755 -63.35522461 514.48217773 C-64.79900268 514.54499327 -64.79900268 514.54499327 -66.27194798 514.60907781 C-88.02983304 515.54047443 -109.77439104 515.68872498 -131.54919696 515.67755914 C-135.80999374 515.67646284 -140.07077654 515.68143579 -144.33157021 515.68616456 C-154.37462276 515.6970922 -164.41763782 515.69778666 -174.46069336 515.69165039 C-184.76048936 515.68555449 -195.0601507 515.69810071 -205.35992378 515.71922046 C-214.30026272 515.73686603 -223.24055877 515.7428352 -232.18091446 515.73958272 C-237.48034735 515.73778262 -242.77968291 515.74028217 -248.07909966 515.75429726 C-253.03483526 515.76692848 -257.99035812 515.76488189 -262.9460907 515.75188637 C-264.75115089 515.74953682 -266.55622642 515.75219636 -268.361269 515.76050949 C-297.38885897 515.88449374 -297.38885897 515.88449374 -305.66748047 508.37597656 C-306.71485251 505.00665276 -307.14720282 501.88028987 -306.66748047 498.37597656 C-304.77915411 495.87869289 -303.70811093 495.38952005 -300.66748047 494.37597656 C-299.28418097 494.28554981 -297.8969309 494.24940751 -296.51067924 494.24848461 C-295.65972486 494.24547696 -294.80877048 494.24246931 -293.9320296 494.23937052 C-292.99675689 494.2411209 -292.06148418 494.24287127 -291.09786987 494.24467468 C-289.60752753 494.24150111 -289.60752753 494.24150111 -288.08707726 494.23826343 C-284.7413088 494.23224883 -281.39557791 494.23326467 -278.04980469 494.23413086 C-275.65645788 494.23109998 -273.26311166 494.22757873 -270.86976624 494.22360229 C-265.70352052 494.21570173 -260.53727927 494.21054292 -255.3710289 494.20731163 C-247.18109829 494.20180409 -238.99120913 494.18489053 -230.80130005 494.16596985 C-227.99500091 494.15961218 -225.18870166 494.15330368 -222.38240242 494.14699268 C-221.68088968 494.14540892 -220.97937694 494.14382516 -220.25660624 494.1421934 C-212.26596315 494.12424736 -204.27531709 494.10803117 -196.28466797 494.09301758 C-195.18902659 494.09095377 -195.18902659 494.09095377 -194.07125105 494.08884827 C-182.29015536 494.06701759 -170.50907039 494.05618717 -158.72795807 494.04864683 C-146.60153175 494.04052871 -134.47519618 494.01707997 -122.34882176 493.98069316 C-115.55332016 493.96078973 -108.75796171 493.94793674 -101.96242905 493.95352745 C-95.5486491 493.95822224 -89.1351686 493.94410834 -82.7214489 493.91651535 C-80.38729905 493.90968154 -78.0531177 493.90939094 -75.71896935 493.91671562 C-47.10576035 493.99732068 -11.95257097 491.50576686 10.66845703 471.72363281 C12.33251953 470.37597656 12.33251953 470.37597656 15.33251953 469.37597656 C16.38837017 467.50429256 16.38837017 467.50429256 17.33251953 465.37597656 C18.2493364 464.19298705 19.18836601 463.02698977 20.14501953 461.87597656 C30.06728401 448.96244117 31.09345995 432.85231442 29.04833984 417.20117188 C27.03536203 406.98517455 21.12317033 397.216548 13.33251953 390.37597656 C12.78337891 389.83585937 12.23423828 389.29574219 11.66845703 388.73925781 C0.80375351 378.43343821 -11.84983574 374.80453661 -26.44091797 375.13378906 C-37.34499929 375.62304371 -46.48642119 379.69504448 -54.55029297 387.10644531 C-62.11780206 395.41549424 -65.07197937 405.13761404 -64.84716797 416.21582031 C-64.3854715 424.33565596 -61.21140255 430.99528776 -57.90966797 438.30175781 C-56.66748047 441.37597656 -56.66748047 441.37597656 -56.66748047 444.37597656 C-64.26645067 445.08986729 -69.51785558 444.0260003 -75.66748047 439.37597656 C-78.04248047 436.62597656 -78.04248047 436.62597656 -79.66748047 434.37597656 C-83.65775612 433.04588468 -87.48902245 433.22589469 -91.64985657 433.2244873 C-92.58019799 433.22025489 -93.51053941 433.21602248 -94.469073 433.21166182 C-97.60072146 433.1985995 -100.73234443 433.19260234 -103.86401367 433.18652344 C-106.1045955 433.17858292 -108.34517579 433.17019512 -110.58575439 433.16139221 C-115.42132939 433.14330602 -120.2569009 433.12829974 -125.09249306 433.11561584 C-132.75652349 433.0953869 -140.42051603 433.06772804 -148.08451843 433.03894043 C-158.84938791 432.99920974 -169.61426169 432.96227292 -180.37915039 432.92822266 C-181.40419741 432.92497845 -181.40419741 432.92497845 -182.44995245 432.92166871 C-186.60171638 432.90854692 -190.75348057 432.89550769 -194.90524483 432.8824873 C-201.09641697 432.86305876 -207.28758867 432.84349169 -213.47875977 432.82373047 C-214.1555287 432.8215716 -214.83229764 432.81941273 -215.52957473 432.81718844 C-226.87737294 432.78087336 -238.22515473 432.74085451 -249.57293195 432.69842768 C-257.17118405 432.67029194 -264.76943237 432.64661783 -272.36770976 432.62650299 C-277.13023786 432.61296873 -281.89274652 432.59556462 -286.65525818 432.57719231 C-288.84070523 432.56953514 -291.02615842 432.56342377 -293.21161461 432.5590992 C-304.05787755 432.53682868 -314.88241083 432.39835938 -325.71916199 431.91833496 C-326.62032566 431.87871155 -327.52148934 431.83908814 -328.44996101 431.79826403 C-335.02894243 431.47694395 -341.44732284 430.76039803 -347.91748047 429.50097656 C-348.83142578 429.33984375 -349.74537109 429.17871094 -350.68701172 429.01269531 C-369.14338041 425.62596478 -386.95689996 418.09254475 -401.66748047 406.37597656 C-402.60720703 405.62960937 -403.54693359 404.88324219 -404.51513672 404.11425781 C-414.81764365 395.34770831 -423.47573874 383.91061993 -428.66748047 371.37597656 C-429.02197266 370.55355469 -429.37646484 369.73113281 -429.74169922 368.88378906 C-439.06279438 345.52907479 -437.8418179 318.70903208 -428.27294922 295.62597656 C-415.08290893 268.92497043 -394.61895284 249.72898922 -366.66748047 239.37597656 C-358.15868831 236.70540275 -349.54809213 235.87748069 -340.66748047 236.37597656 C-340.99748047 235.71597656 -341.32748047 235.05597656 -341.66748047 234.37597656 C-343.58055405 211.26228432 -334.67848537 188.95448063 -320.13623047 171.21582031 C-300.9351069 148.83537119 -275.67239876 138.06314494 -246.66748047 135.37597656 C-232.69656051 134.46172413 -218.29774483 136.29817493 -204.66748047 139.37597656 C-204.58111328 138.70695313 -204.49474609 138.03792969 -204.40576172 137.34863281 C-200.01604947 107.3455537 -185.95156005 79.50327867 -166.66748047 56.37597656 C-166.2148584 55.83086426 -165.76223633 55.28575195 -165.29589844 54.72412109 C-159.40732074 47.72432259 -152.88388465 41.96287012 -145.66748047 36.37597656 C-144.64654297 35.55097656 -143.62560547 34.72597656 -142.57373047 33.87597656 C-135.02366884 27.82253161 -127.1966391 22.92741099 -118.66748047 18.37597656 C-117.66201172 17.80363281 -116.65654297 17.23128906 -115.62060547 16.64160156 C-98.44186251 7.32576583 -78.99899735 1.74232216 -59.66748047 -0.62402344 C-57.90984375 -0.92566406 -57.90984375 -0.92566406 -56.11669922 -1.23339844 C-37.4677289 -4.30352926 -18.55351711 -3.04722879 0 0 Z M-60.66748047 14.37597656 C-62.17777391 14.60984663 -63.68818085 14.8429856 -65.19873047 15.07519531 C-79.85649351 17.44903453 -92.73969868 22.51409606 -105.76538086 29.38842773 C-107.78682657 30.43793972 -109.83061708 31.43368652 -111.87841797 32.43066406 C-114.76850726 33.869918 -117.32429528 35.41500759 -119.85498047 37.43847656 C-121.86864957 39.03669394 -123.79756165 40.45169546 -126.02294922 41.74707031 C-129.18424166 43.69427703 -131.97573289 45.97240853 -134.79248047 48.37597656 C-135.35580078 48.85437988 -135.91912109 49.3327832 -136.49951172 49.82568359 C-142.19065082 54.72230131 -147.43684844 59.99446092 -152.66748047 65.37597656 C-153.48087891 66.15457031 -154.29427734 66.93316406 -155.13232422 67.73535156 C-158.15000334 70.87857357 -160.67874931 74.22666833 -163.22998047 77.75097656 C-163.9328418 78.70230469 -163.9328418 78.70230469 -164.64990234 79.67285156 C-167.63985827 83.77097298 -170.20048188 87.94451614 -172.66748047 92.37597656 C-173.29267578 93.38015625 -173.91787109 94.38433594 -174.56201172 95.41894531 C-178.7300716 102.25252618 -181.89664055 109.06391341 -184.54248047 116.62597656 C-184.82841064 117.44090576 -185.11434082 118.25583496 -185.40893555 119.09545898 C-187.06916199 124.03825864 -188.25516986 128.93996674 -189.20361328 134.06494141 C-189.66748047 136.37597656 -189.66748047 136.37597656 -190.72216797 139.89941406 C-191.90520818 144.25026444 -192.36557885 148.52200877 -192.79248047 153.00097656 C-192.92203125 154.25007813 -192.92203125 154.25007813 -193.05419922 155.52441406 C-193.45194797 159.48927462 -193.78149207 163.38557067 -193.66748047 167.37597656 C-197.17158006 165.41368079 -200.54137571 163.46251904 -203.85498047 161.18847656 C-206.45483747 159.51301316 -207.76677761 159.05055862 -210.66748047 158.37597656 C-213.58771692 157.41229854 -216.49419931 156.4120668 -219.40185547 155.41113281 C-239.22538152 149.1273596 -262.38958523 150.86061855 -281.10498047 160.06347656 C-290.30292474 164.86611421 -298.42011845 170.94037137 -305.66748047 178.37597656 C-306.31330078 179.00117188 -306.95912109 179.62636719 -307.62451172 180.27050781 C-319.45297974 192.49740845 -326.7838388 211.27130848 -326.80029297 228.16503906 C-326.80158203 229.43605469 -326.80287109 230.70707031 -326.80419922 232.01660156 C-326.80033203 233.33144531 -326.79646484 234.64628906 -326.79248047 236.00097656 C-326.79604556 237.33691502 -326.79994881 238.67285261 -326.80419922 240.00878906 C-326.80291016 241.27722656 -326.80162109 242.54566406 -326.80029297 243.85253906 C-326.79860107 245.58624756 -326.79860107 245.58624756 -326.796875 247.35498047 C-326.68830985 249.88966937 -326.41156393 251.96638751 -325.66748047 254.37597656 C-326.27333984 254.30378906 -326.87919922 254.23160156 -327.50341797 254.15722656 C-333.58582642 253.48348286 -339.55050185 253.25884293 -345.66748047 253.37597656 C-345.66748047 254.03597656 -345.66748047 254.69597656 -345.66748047 255.37597656 C-350.61748047 255.70597656 -355.56748047 256.03597656 -360.66748047 256.37597656 C-360.66748047 257.03597656 -360.66748047 257.69597656 -360.66748047 258.37597656 C-361.45123047 258.45847656 -362.23498047 258.54097656 -363.04248047 258.62597656 C-372.27317987 260.53577644 -380.96551119 265.00312514 -388.66748047 270.37597656 C-388.66748047 271.03597656 -388.66748047 271.69597656 -388.66748047 272.37597656 C-389.50279297 272.71628906 -389.50279297 272.71628906 -390.35498047 273.06347656 C-402.75918896 280.103703 -411.69930263 296.3825099 -415.90576172 309.51660156 C-420.00749633 324.91388225 -418.43133652 341.37313825 -413.66748047 356.37597656 C-413.23435547 357.99052734 -413.23435547 357.99052734 -412.79248047 359.63769531 C-410.82739737 366.48916807 -407.79336664 371.51562688 -403.37451172 377.09863281 C-401.66748047 379.37597656 -401.66748047 379.37597656 -400.66748047 382.37597656 C-399.07946521 384.02414326 -399.07946521 384.02414326 -397.10498047 385.62597656 C-392.84543837 389.20309202 -392.84543837 389.20309202 -390.88623047 391.10644531 C-379.46343227 402.05329359 -364.61321789 406.4936373 -349.66748047 410.37597656 C-348.44029297 410.70597656 -347.21310547 411.03597656 -345.94873047 411.37597656 C-330.24073011 415.19287385 -313.7262907 414.52528368 -297.66748047 414.37597656 C-296.67748047 414.37597656 -295.68748047 414.37597656 -294.66748047 414.37597656 C-292.6455897 414.24562147 -290.6247793 414.09799895 -288.60498047 413.93847656 C-287.54150391 413.85726563 -286.47802734 413.77605469 -285.38232422 413.69238281 C-282.70475237 413.53655633 -282.70475237 413.53655633 -280.66748047 412.37597656 C-280.66748047 413.03597656 -280.66748047 413.69597656 -280.66748047 414.37597656 C-276.37748047 414.37597656 -272.08748047 414.37597656 -267.66748047 414.37597656 C-267.66748047 413.71597656 -267.66748047 413.05597656 -267.66748047 412.37597656 C-264.32495322 412.30169818 -261.86388906 412.31050703 -258.66748047 413.37597656 C-256.02943458 412.98200321 -256.02943458 412.98200321 -253.66748047 412.37597656 C-253.66748047 413.03597656 -253.66748047 413.69597656 -253.66748047 414.37597656 C-251.77172796 414.40318832 -249.87586068 414.42246792 -247.97998047 414.43847656 C-246.39636719 414.45587891 -246.39636719 414.45587891 -244.78076172 414.47363281 C-241.93272116 414.38429653 -239.4444261 413.96083908 -236.66748047 413.37597656 C-233.61132421 413.37597656 -230.81252398 413.53728009 -227.79248047 413.87597656 C-222.79012543 414.38866302 -218.16601752 414.59005328 -213.16748047 413.87597656 C-209.92748092 413.41311948 -206.93254538 413.30341956 -203.66748047 413.37597656 C-201.50071364 413.37597656 -199.3335705 413.36762881 -197.16748047 413.31347656 C-194.66748047 413.37597656 -194.66748047 413.37597656 -192.66748047 413.93847656 C-190.11892745 414.49597253 -188.1909965 413.92160165 -185.66748047 413.37597656 C-185.33748047 413.70597656 -185.00748047 414.03597656 -184.66748047 414.37597656 C-182.44892783 414.46381198 -180.22759551 414.48292265 -178.00732422 414.47363281 C-177.34285782 414.47221786 -176.67839142 414.47080292 -175.99378967 414.46934509 C-173.86414148 414.46373174 -171.73459707 414.4511771 -169.60498047 414.43847656 C-168.16422677 414.43346328 -166.72347144 414.42890007 -165.28271484 414.42480469 C-161.74426945 414.41375801 -158.20588508 414.39648448 -154.66748047 414.37597656 C-154.33748047 413.38597656 -154.00748047 412.39597656 -153.66748047 411.37597656 C-153.00748047 411.70597656 -152.34748047 412.03597656 -151.66748047 412.37597656 C-151.99748047 413.03597656 -152.32748047 413.69597656 -152.66748047 414.37597656 C-146.35479444 414.75149822 -146.35479444 414.75149822 -140.66748047 412.37597656 C-140.66748047 413.03597656 -140.66748047 413.69597656 -140.66748047 414.37597656 C-139.7085791 414.37597656 -138.74967773 414.37597656 -137.76171875 414.37597656 C-106.64216401 414.37597656 -106.64216401 414.37597656 -102.60498047 414.44628906 C-100.95915176 414.46493114 -99.31331813 414.48314241 -97.66748047 414.50097656 C-96.83474609 414.51773437 -96.00201172 414.53449219 -95.14404297 414.55175781 C-94.34740234 414.55820312 -93.55076172 414.56464844 -92.72998047 414.57128906 C-91.99908203 414.5817627 -91.26818359 414.59223633 -90.51513672 414.60302734 C-88.41898178 414.53786644 -88.41898178 414.53786644 -86.66748047 412.37597656 C-86.27576294 410.7220581 -85.94690502 409.05252385 -85.66748047 407.37597656 C-85.03946802 404.3256304 -84.47697401 403.09021688 -82.66748047 400.37597656 C-81.98433859 398.42332937 -81.32022036 396.4639958 -80.66748047 394.50097656 C-76.41609474 383.29732477 -68.8611867 373.77202753 -58.66748047 367.37597656 C-57.55501953 366.67472656 -56.44255859 365.97347656 -55.29638672 365.25097656 C-40.29899364 356.28991987 -24.63692723 357.05723244 -7.66748047 357.37597656 C-7.66748047 358.03597656 -7.66748047 358.69597656 -7.66748047 359.37597656 C-6.50990234 359.63121094 -5.35232422 359.88644531 -4.15966797 360.14941406 C0.25764036 361.25908545 4.15756912 362.94098952 8.20751953 365.00097656 C8.90514404 365.35579102 9.60276855 365.71060547 10.3215332 366.07617188 C21.31939503 371.83677473 29.31118634 380.08609387 37.33251953 389.37597656 C38.09822266 390.25898437 38.86392578 391.14199219 39.65283203 392.05175781 C41.33251953 394.37597656 41.33251953 394.37597656 41.33251953 397.37597656 C41.99251953 397.70597656 42.65251953 398.03597656 43.33251953 398.37597656 C43.72296159 399.69371853 44.04207039 401.03264928 44.33251953 402.37597656 C44.66251953 403.36597656 44.99251953 404.35597656 45.33251953 405.37597656 C46.33251953 408.37597656 46.33251953 408.37597656 46.77001953 410.62597656 C47.26149844 412.77813471 47.26149844 412.77813471 50.33251953 414.37597656 C52.78430098 414.66781747 52.78430098 414.66781747 55.51611328 414.60644531 C56.52609375 414.60451172 57.53607422 414.60257813 58.57666016 414.60058594 C59.63046875 414.58833984 60.68427734 414.57609375 61.77001953 414.56347656 C62.81996094 414.56283203 63.86990234 414.5621875 64.95166016 414.56152344 C69.28097754 414.53668988 73.13597116 414.45548004 77.33251953 413.37597656 C79.39501953 413.81347656 79.39501953 413.81347656 81.33251953 414.37597656 C82.32251953 414.37597656 83.31251953 414.37597656 84.33251953 414.37597656 C120.9991862 414.37597656 157.66585286 414.37597656 194.33251953 414.37597656 C194.66251953 413.38597656 194.99251953 412.39597656 195.33251953 411.37597656 C195.99251953 411.04597656 196.65251953 410.71597656 197.33251953 410.37597656 C197.66251953 411.03597656 197.99251953 411.69597656 198.33251953 412.37597656 C197.67251953 412.37597656 197.01251953 412.37597656 196.33251953 412.37597656 C196.33251953 413.03597656 196.33251953 413.69597656 196.33251953 414.37597656 C197.30189453 414.19035156 198.27126953 414.00472656 199.27001953 413.81347656 C200.28064453 413.66910156 201.29126953 413.52472656 202.33251953 413.37597656 C202.66251953 413.70597656 202.99251953 414.03597656 203.33251953 414.37597656 C205.6439592 414.44903091 207.95752222 414.45960598 210.27001953 414.43847656 C212.17074219 414.42494141 212.17074219 414.42494141 214.10986328 414.41113281 C215.17333984 414.39953125 216.23681641 414.38792969 217.33251953 414.37597656 C219.9991862 414.37597656 222.66585286 414.37597656 225.33251953 414.37597656 C225.33251953 413.38597656 225.33251953 412.39597656 225.33251953 411.37597656 C225.66251953 412.36597656 225.99251953 413.35597656 226.33251953 414.37597656 C230.29251953 414.04597656 234.25251953 413.71597656 238.33251953 413.37597656 C238.33251953 412.71597656 238.33251953 412.05597656 238.33251953 411.37597656 C239.17041016 411.57320312 240.00830078 411.77042969 240.87158203 411.97363281 C248.44373708 412.8539172 257.74338238 410.04711762 263.83251953 405.43847656 C265.00793076 404.42772424 266.17519471 403.40738873 267.33251953 402.37597656 C268.48810491 401.52734355 269.65476743 400.69356787 270.83251953 399.87597656 C271.39841797 399.46605469 271.96431641 399.05613281 272.54736328 398.63378906 C273.78666938 397.76057995 275.05237661 396.92413645 276.33642578 396.11816406 C285.00820393 390.35891861 288.94943966 380.80893527 291.69189453 371.02441406 C294.03397103 357.68600277 291.44643041 346.7464511 284.33251953 335.37597656 C283.2903125 333.69761719 283.2903125 333.69761719 282.22705078 331.98535156 C281.60185547 331.12425781 280.97666016 330.26316406 280.33251953 329.37597656 C279.67251953 329.37597656 279.01251953 329.37597656 278.33251953 329.37597656 C278.27451172 328.80105469 278.21650391 328.22613281 278.15673828 327.63378906 C276.9651057 324.36950645 274.95186382 323.24341934 272.14501953 321.25097656 C271.20271484 320.56777344 270.26041016 319.88457031 269.28955078 319.18066406 C264.76911223 316.4218231 260.75538061 315.09043532 255.45751953 315.25097656 C254.08251953 315.29264323 252.70751953 315.3343099 251.33251953 315.37597656 C251.40035645 314.76028809 251.46819336 314.14459961 251.53808594 313.51025391 C253.65546938 292.62255242 253.98639626 271.45913874 247.33251953 251.37597656 C246.9716626 250.25570068 246.9716626 250.25570068 246.60351562 249.11279297 C243.81357299 240.61572423 240.37836475 232.80146731 235.33251953 225.37597656 C234.71763672 224.44269531 234.10275391 223.50941406 233.46923828 222.54785156 C231.01555462 218.87642356 231.01555462 218.87642356 228.33251953 215.37597656 C227.67251953 215.37597656 227.01251953 215.37597656 226.33251953 215.37597656 C226.09017578 214.80878906 225.84783203 214.24160156 225.59814453 213.65722656 C220.92009975 205.22519522 211.89549549 199.26823836 203.33251953 195.37597656 C202.67251953 195.37597656 202.01251953 195.37597656 201.33251953 195.37597656 C201.33251953 194.71597656 201.33251953 194.05597656 201.33251953 193.37597656 C200.33091797 193.04984375 199.32931641 192.72371094 198.29736328 192.38769531 C196.95486134 191.94645341 195.61241646 191.50503785 194.27001953 191.06347656 C193.61324219 190.85013672 192.95646484 190.63679687 192.27978516 190.41699219 C189.0232637 189.34217969 185.96200285 188.20582868 182.83642578 186.77050781 C175.51887486 183.85817149 167.7896414 184.1935848 160.02001953 184.18847656 C158.56692383 184.17010742 158.56692383 184.17010742 157.08447266 184.15136719 C150.29960501 184.1377884 143.96143094 184.94443017 137.33251953 186.37597656 C137.33251953 187.03597656 137.33251953 187.69597656 137.33251953 188.37597656 C136.44564453 188.43785156 135.55876953 188.49972656 134.64501953 188.56347656 C130.71280091 189.09824214 127.24638949 190.4788001 123.56298828 191.92675781 C122.39533936 192.38348877 121.22769043 192.84021973 120.0246582 193.31079102 C119.13625244 193.66230225 118.24784668 194.01381348 117.33251953 194.37597656 C117.42339844 193.45896973 117.51427734 192.54196289 117.60791016 191.59716797 C117.94722833 188.14960829 118.28215855 184.70167768 118.61425781 181.25341797 C118.758047 179.76952647 118.90351343 178.2857964 119.05078125 176.80224609 C119.85854514 168.65317227 120.60727578 160.57623837 120.33251953 152.37597656 C120.29384766 150.90644531 120.29384766 150.90644531 120.25439453 149.40722656 C119.46424198 137.77043443 117.204992 125.47717131 112.35986328 114.80957031 C111.42600601 112.59742933 110.70181871 110.41782438 109.98095703 108.12988281 C108.43939052 103.43960523 106.37442191 99.20576293 104.02001953 94.87597656 C103.4272522 93.77068604 103.4272522 93.77068604 102.82250977 92.64306641 C99.94677843 87.34526658 96.84330107 82.27955996 93.33251953 77.37597656 C92.67251953 76.38597656 92.01251953 75.39597656 91.33251953 74.37597656 C90.67251953 74.37597656 90.01251953 74.37597656 89.33251953 74.37597656 C89.33251953 73.71597656 89.33251953 73.05597656 89.33251953 72.37597656 C88.67251953 72.37597656 88.01251953 72.37597656 87.33251953 72.37597656 C87.11208984 71.67472656 86.89166016 70.97347656 86.66455078 70.25097656 C85.02184294 66.70542533 82.68723039 64.16716137 80.02001953 61.37597656 C79.54628906 60.86808594 79.07255859 60.36019531 78.58447266 59.83691406 C77.17942841 58.33768764 75.75812754 56.85563371 74.33251953 55.37597656 C72.9809375 53.95285156 72.9809375 53.95285156 71.60205078 52.50097656 C69.60737735 50.14814947 69.60737735 50.14814947 67.33251953 50.37597656 C67.33251953 49.71597656 67.33251953 49.05597656 67.33251953 48.37597656 C58.49540617 39.33617712 45.46885957 31.01141042 33.74023438 26.34448242 C31.33251953 25.37597656 31.33251953 25.37597656 28.33251953 23.37597656 C25.82355267 22.91996395 25.82355267 22.91996395 23.14501953 22.75097656 C22.24396484 22.67621094 21.34291016 22.60144531 20.41455078 22.52441406 C19.72748047 22.47542969 19.04041016 22.42644531 18.33251953 22.37597656 C18.00251953 21.38597656 17.67251953 20.39597656 17.33251953 19.37597656 C16.70603516 19.32699219 16.07955078 19.27800781 15.43408203 19.22753906 C14.20818359 19.11539063 14.20818359 19.11539063 12.95751953 19.00097656 C12.14541016 18.93136719 11.33330078 18.86175781 10.49658203 18.79003906 C8.33251953 18.37597656 8.33251953 18.37597656 6.33251953 16.37597656 C5.34251953 16.37597656 4.35251953 16.37597656 3.33251953 16.37597656 C3.00251953 15.71597656 2.67251953 15.05597656 2.33251953 14.37597656 C1.48947266 14.38757813 0.64642578 14.39917969 -0.22216797 14.41113281 C-1.31787109 14.42015625 -2.41357422 14.42917969 -3.54248047 14.43847656 C-5.17830078 14.45587891 -5.17830078 14.45587891 -6.84716797 14.47363281 C-9.66748047 14.37597656 -9.66748047 14.37597656 -11.66748047 13.37597656 C-28.32136475 10.69464422 -44.13663794 11.58319205 -60.66748047 14.37597656 Z " fill="#488CA0" transform="translate(565.66748046875,143.6240234375)"/>
<path d="M0 0 C0.51691406 0.44472656 1.03382813 0.88945313 1.56640625 1.34765625 C1.56640625 2.00765625 1.56640625 2.66765625 1.56640625 3.34765625 C2.41912109 3.66669922 2.41912109 3.66669922 3.2890625 3.9921875 C11.22723724 8.71696732 16.23276957 20.6906467 18.7578125 29.11328125 C22.2826048 44.98824157 19.85717533 61.43909829 11.56640625 75.34765625 C1.66336795 90.43553136 -12.81076996 100.0248085 -30.02734375 104.875 C-50.70633494 108.9369447 -73.0573154 106.96308183 -93.43359375 102.34765625 C-94.2416748 102.1662207 -95.04975586 101.98478516 -95.88232422 101.79785156 C-99.51716108 100.97205995 -103.14219241 100.11300203 -106.76171875 99.22265625 C-110.73783196 98.27515693 -114.71471493 97.50720038 -118.74609375 96.83984375 C-121.04404943 96.41899722 -123.30478975 95.93216639 -125.58203125 95.4140625 C-151.85462515 89.5154694 -178.59577866 86.84631173 -205.43359375 85.34765625 C-206.3968457 85.29367676 -207.36009766 85.23969727 -208.35253906 85.18408203 C-245.19735142 83.21522466 -282.16432223 83.19766811 -319.04999352 83.11786079 C-326.32947801 83.1019979 -333.60892427 83.07807579 -340.88838196 83.05296326 C-361.54722669 82.98277341 -382.20608888 82.92171699 -402.86499023 82.87084961 C-414.3634233 82.84246881 -425.86181382 82.80708474 -437.36020213 82.76419586 C-444.57936768 82.7376669 -451.79848568 82.71961824 -459.01769006 82.70815861 C-463.50574058 82.69897364 -467.99373266 82.68159064 -472.48174858 82.66197968 C-474.54354678 82.65457199 -476.60536002 82.65042727 -478.66717148 82.64998436 C-488.13487903 82.64631062 -497.55698011 82.53679182 -506.98323059 81.57872009 C-507.66870553 81.51817178 -508.35418046 81.45762347 -509.06042737 81.39524037 C-513.58046039 80.85697612 -516.27011806 79.62762167 -519.43359375 76.34765625 C-519.99609375 72.78515625 -519.99609375 72.78515625 -519.43359375 69.34765625 C-517.03629518 66.75551922 -515.52724934 66.35940049 -511.99795055 65.91683292 C-510.59105328 65.87573414 -509.18361689 65.8511601 -507.77616882 65.83937073 C-506.99507504 65.82163963 -506.21398125 65.80390853 -505.40921795 65.78564012 C-502.76854481 65.73060509 -500.12811027 65.69798659 -497.48706055 65.66625977 C-495.57139088 65.63340397 -493.65573238 65.59989204 -491.74008465 65.56578159 C-467.11430309 65.16397374 -442.48200623 65.21803773 -417.85373946 65.24411562 C-410.7456128 65.25145265 -403.63748801 65.25278404 -396.52935811 65.25391418 C-383.86388834 65.25607703 -371.19842518 65.26266 -358.53295898 65.2722168 C-346.26473014 65.28146395 -333.99650313 65.28850854 -321.72827148 65.29272461 C-320.96593674 65.29298733 -320.203602 65.29325006 -319.4181662 65.29352074 C-315.59192903 65.29482623 -311.76569186 65.29608983 -307.93945467 65.29733264 C-276.43749623 65.30761863 -244.93554602 65.32523598 -213.43359375 65.34765625 C-213.10359375 64.68765625 -212.77359375 64.02765625 -212.43359375 63.34765625 C-212.43359375 64.00765625 -212.43359375 64.66765625 -212.43359375 65.34765625 C-211.35392334 65.41758789 -210.27425293 65.48751953 -209.16186523 65.55957031 C-173.63070212 67.88831668 -138.19782058 71.16138314 -103.4296875 79.203125 C-96.8837249 80.71669809 -90.31434984 82.12212916 -83.74609375 83.53515625 C-82.53920898 83.79731934 -81.33232422 84.05948242 -80.08886719 84.32958984 C-58.55108872 88.96296262 -38.78532333 89.30087512 -19.43359375 77.34765625 C-9.38316987 69.87357601 -3.56976399 61.75069121 -1.43359375 49.34765625 C-0.49163135 39.37317766 -1.67267696 30.67783451 -7.74609375 22.53515625 C-14.1356131 14.96091352 -22.38028216 8.73831607 -32.43359375 7.34765625 C-45.82299724 6.65487119 -55.65424511 7.48819159 -66.43359375 16.34765625 C-70.42151885 20.61853835 -73.00469402 25.3491745 -75.5078125 30.58203125 C-76.80791397 33.06154966 -78.16912904 34.70077282 -80.43359375 36.34765625 C-82.99609375 36.78515625 -82.99609375 36.78515625 -85.43359375 36.34765625 C-87.05859375 35.1953125 -87.05859375 35.1953125 -88.43359375 33.34765625 C-90.23265104 21.937419 -86.71942544 11.62527212 -80.11328125 2.40625 C-58.54135759 -24.0318983 -24.53571688 -16.65908225 0 0 Z " fill="#317087" transform="translate(737.43359375,627.65234375)"/>
<path d="M0 0 C0 0.66 0 1.32 0 2 C0.83144531 1.9278125 1.66289063 1.855625 2.51953125 1.78125 C6.7993015 2.05023668 9.95687201 3.54671643 13.6875 5.5 C14.38939453 5.8609375 15.09128906 6.221875 15.81445312 6.59375 C27.83127905 12.92649633 37.81343475 21.13187202 45.67578125 32.23828125 C46.99458708 33.99279874 48.41308546 35.48754479 50 37 C49.67 37.99 49.34 38.98 49 40 C49.99 40.33 50.98 40.66 52 41 C52.5625 42.6875 52.5625 42.6875 53 45 C53.30679687 45.8971875 53.61359375 46.794375 53.9296875 47.71875 C56.70364278 56.22284647 58.23292089 65.10188236 59 74 C59.66 73.67 60.32 73.34 61 73 C60.67 73.99 60.34 74.98 60 76 C59.34 76 58.68 76 58 76 C58.03351563 77.13953125 58.06703125 78.2790625 58.1015625 79.453125 C58.08023621 95.6184555 51.62058684 111.00149271 41 123 C40.28199219 123.81210937 39.56398438 124.62421875 38.82421875 125.4609375 C22.59699188 142.72394481 -1.88019236 152.62270131 -25.20701599 155.05586243 C-25.98067928 155.13857559 -26.75434256 155.22128874 -27.55145019 155.30650836 C-36.91104904 156.25858965 -46.29078915 156.71069099 -55.68774414 157.10620117 C-56.65026285 157.1480782 -57.61278157 157.18995522 -58.60446751 157.23310125 C-80.36235257 158.16449786 -102.10691057 158.31274842 -123.88171649 158.30158257 C-128.14251327 158.30048628 -132.40329607 158.30545923 -136.66408974 158.310188 C-146.70714229 158.32111564 -156.75015735 158.3218101 -166.79321289 158.31567383 C-177.09300889 158.30957792 -187.39267023 158.32212415 -197.69244331 158.3432439 C-206.63278225 158.36088947 -215.5730783 158.36685864 -224.51343399 158.36360615 C-229.81286689 158.36180606 -235.11220244 158.36430561 -240.41161919 158.37832069 C-245.36735479 158.39095192 -250.32287765 158.38890533 -255.27861023 158.37590981 C-257.08367042 158.37356026 -258.88874595 158.3762198 -260.69378853 158.38453293 C-289.7213785 158.50851717 -289.7213785 158.50851717 -298 151 C-299.04737204 147.63067619 -299.47972236 144.5043133 -299 141 C-297.11167364 138.50271633 -296.04063046 138.01354349 -293 137 C-291.6167005 136.90957325 -290.22945043 136.87343095 -288.84319878 136.87250805 C-287.5667672 136.86799658 -287.5667672 136.86799658 -286.26454914 136.86339396 C-285.32927642 136.86514433 -284.39400371 136.86689471 -283.4303894 136.86869812 C-281.94004706 136.86552455 -281.94004706 136.86552455 -280.41959679 136.86228687 C-277.07382834 136.85627226 -273.72809744 136.85728811 -270.38232422 136.8581543 C-267.98897741 136.85512342 -265.59563119 136.85160216 -263.20228577 136.84762573 C-258.03604005 136.83972516 -252.8697988 136.83456636 -247.70354843 136.83133507 C-239.51361782 136.82582753 -231.32372866 136.80891397 -223.13381958 136.78999329 C-220.32752044 136.78363562 -217.52122119 136.77732712 -214.71492195 136.77101612 C-213.66265284 136.76864048 -213.66265284 136.76864048 -212.58912577 136.76621684 C-204.59848268 136.7482708 -196.60783662 136.73205461 -188.6171875 136.71704102 C-187.52154613 136.71497721 -187.52154613 136.71497721 -186.40377058 136.71287171 C-174.62267489 136.69104102 -162.84158992 136.6802106 -151.0604776 136.67267027 C-138.93405128 136.66455214 -126.80771572 136.64110341 -114.68134129 136.6047166 C-107.88583969 136.58481317 -101.09048124 136.57196018 -94.29494858 136.57755089 C-87.88116863 136.58224568 -81.46768813 136.56813178 -75.05396843 136.54053879 C-72.71981858 136.53370498 -70.38563724 136.53341437 -68.05148888 136.54073906 C-39.43827988 136.62134412 -4.2850905 134.12979029 18.3359375 114.34765625 C20 113 20 113 23 112 C24.05585064 110.128316 24.05585064 110.128316 25 108 C25.91681687 106.81701049 26.85584648 105.65101321 27.8125 104.5 C37.73476448 91.58646461 38.76094042 75.47633786 36.71582031 59.82519531 C34.7028425 49.60919799 28.7906508 39.84057144 21 33 C20.45085937 32.45988281 19.90171875 31.91976562 19.3359375 31.36328125 C8.47123398 21.05746165 -4.18235527 17.42856005 -18.7734375 17.7578125 C-29.67751882 18.24706715 -38.81894072 22.31906792 -46.8828125 29.73046875 C-54.45032159 38.03951767 -57.4044989 47.76163747 -57.1796875 58.83984375 C-56.71799104 66.9596794 -53.54392208 73.61931119 -50.2421875 80.92578125 C-49 84 -49 84 -49 87 C-55.48691176 87.6094176 -60.3442245 87.1504931 -65.9609375 83.70703125 C-68.95310836 81.20209128 -70.80034657 78.26488501 -72.7109375 74.890625 C-73.93509852 72.68514198 -73.93509852 72.68514198 -77 72 C-76.814375 71.46375 -76.62875 70.9275 -76.4375 70.375 C-75.84898294 67.97381599 -75.84898294 67.97381599 -76.46875 65.46875 C-77.15388314 60.99523361 -77.10671746 56.64198404 -77.0625 52.125 C-77.05798828 51.24585938 -77.05347656 50.36671875 -77.04882812 49.4609375 C-77.03712337 47.30726197 -77.01919069 45.15362183 -77 43 C-76.34 43 -75.68 43 -75 43 C-74.814375 41.741875 -74.62875 40.48375 -74.4375 39.1875 C-71.62065501 26.63973597 -61.18250714 15.50424745 -50.68359375 8.6328125 C-49.79800781 8.09398437 -48.91242188 7.55515625 -48 7 C-47.08347656 6.44054687 -46.16695312 5.88109375 -45.22265625 5.3046875 C-32.00358969 -2.04120989 -14.71469414 -2.79959934 0 0 Z " fill="#306E86" transform="translate(558,501)"/>
<path d="M0 0 C-0.33 1.32 -0.66 2.64 -1 4 C-1.639375 4.12375 -2.27875 4.2475 -2.9375 4.375 C-3.618125 4.58125 -4.29875 4.7875 -5 5 C-5.33 5.66 -5.66 6.32 -6 7 C-6.495 6.01 -6.495 6.01 -7 5 C-7.45375 5.66 -7.9075 6.32 -8.375 7 C-8.91125 7.66 -9.4475 8.32 -10 9 C-10.66 9 -11.32 9 -12 9 C-12 11.31 -12 13.62 -12 16 C-18.625 20 -18.625 20 -22 20 C-22 20.66 -22 21.32 -22 22 C-20.02 21.67 -18.04 21.34 -16 21 C-16 21.66 -16 22.32 -16 23 C-16.53367187 23.21914063 -17.06734375 23.43828125 -17.6171875 23.6640625 C-23.02876594 25.96726024 -27.96295167 28.68549683 -32.93359375 31.828125 C-35 33 -35 33 -37 33 C-37 33.66 -37 34.32 -37 35 C-40.46153846 38 -40.46153846 38 -43 38 C-43.24234375 38.55429687 -43.4846875 39.10859375 -43.734375 39.6796875 C-45.26755257 42.49051305 -47.16642038 44.69415711 -49.25 47.125 C-63.17082654 63.99534356 -66.45578842 81.56776939 -65 103 C-64.23498618 108.50450471 -62.6805288 113.7075013 -61 119 C-60.71125 120.07636719 -60.4225 121.15273438 -60.125 122.26171875 C-58.14938956 129.14989621 -55.098052 134.14457406 -50.609375 139.72265625 C-49 142 -49 142 -49 145 C-48.01 145.33 -47.02 145.66 -46 146 C-46 146.66 -46 147.32 -46 148 C-45.41863281 148.25523437 -44.83726562 148.51046875 -44.23828125 148.7734375 C-41.77951596 150.12082371 -40.17717938 151.65494271 -38.1875 153.625 C-26.69647543 163.92215189 -12.64770205 168.19507909 2 172 C3.2271875 172.33 4.454375 172.66 5.71875 173 C18.73416403 176.16262397 32.17602646 176.05983047 45.5 176.125 C46.30719482 176.12975342 47.11438965 176.13450684 47.94604492 176.1394043 C51.22104608 176.12990542 53.87156972 176.04281009 57 175 C57 175.66 57 176.32 57 177 C58.19625 176.67 59.3925 176.34 60.625 176 C64.15791497 175.10734177 67.34079109 174.81703955 71 175 C71 175.66 71 176.32 71 177 C75.29 177 79.58 177 84 177 C84 176.34 84 175.68 84 175 C89.625 173.875 89.625 173.875 93 175 C95.63804589 174.60602665 95.63804589 174.60602665 98 174 C98.33 174.66 98.66 175.32 99 176 C100.7290774 176.02725341 102.45828176 176.04650987 104.1875 176.0625 C105.63189453 176.07990234 105.63189453 176.07990234 107.10546875 176.09765625 C109.86357409 176.00460276 112.30621607 175.55991908 115 175 C118.05615626 175 120.85495649 175.16130353 123.875 175.5 C128.87735504 176.01268646 133.50146295 176.21407672 138.5 175.5 C141.73999955 175.03714292 144.73493509 174.927443 148 175 C149.32 175 150.64 175 152 175 C154 175 156 175 158 175 C158 175.66 158 176.32 158 177 C158.928125 176.649375 159.85625 176.29875 160.8125 175.9375 C164 175 164 175 167 176 C168.49929044 176.04613201 170.00048046 176.03796252 171.5 176 C180.01380963 175.90808303 188.50417014 176.50697775 197 177 C197.33 175.68 197.66 174.36 198 173 C198.99 173.33 199.98 173.66 201 174 C200.67 174.66 200.34 175.32 200 176 C205.57830016 176.12469099 205.57830016 176.12469099 211 175 C211 175.66 211 176.32 211 177 C211.55042969 176.91621094 212.10085938 176.83242188 212.66796875 176.74609375 C222.77467714 175.50821784 232.87339415 176.37810428 243 177 C243.33 176.01 243.66 175.02 244 174 C244.33 174.66 244.66 175.32 245 176 C250.94 176 256.88 176 263 176 C265.10814567 171.78370866 265.17700355 169.60209225 265 165 C265.99 165.33 266.98 165.66 268 166 C267.98839844 167.05058594 267.97679687 168.10117187 267.96484375 169.18359375 C267.90880054 176.53926481 267.95722857 183.70059996 269 191 C268.34 191.33 267.68 191.66 267 192 C267.639375 192.103125 268.27875 192.20625 268.9375 192.3125 C269.9584375 192.6528125 269.9584375 192.6528125 271 193 C271.33 193.99 271.66 194.98 272 196 C242.56424112 195.89493887 213.1285028 195.78514679 183.692786 195.66888306 C180.20616086 195.65511587 176.71953555 195.64138842 173.23291016 195.62768555 C172.53887713 195.62495724 171.8448441 195.62222894 171.12977977 195.61941796 C159.93816046 195.57551715 148.74653173 195.53482425 137.55489604 195.49534739 C126.04446899 195.45467348 114.53406025 195.4104138 103.02365839 195.36312145 C96.56974708 195.33671541 90.11583874 195.31187002 83.6619072 195.29092598 C77.57001981 195.27110525 71.4781647 195.24689237 65.38630676 195.21950912 C63.16699953 195.21027133 60.94768529 195.20255071 58.72836685 195.19658089 C47.78484273 195.16627306 36.86205843 195.02564855 25.9281311 194.54136658 C25.02818117 194.50180298 24.12823125 194.46223939 23.20101011 194.4214769 C16.62766688 194.10043461 10.21459206 193.38333813 3.75 192.125 C2.83605469 191.96386719 1.92210937 191.80273438 0.98046875 191.63671875 C-17.47589994 188.24998822 -35.28941949 180.71656819 -50 169 C-50.93972656 168.25363281 -51.87945312 167.50726562 -52.84765625 166.73828125 C-63.15016318 157.97173175 -71.80825827 146.53464337 -77 134 C-77.53173828 132.76636719 -77.53173828 132.76636719 -78.07421875 131.5078125 C-87.39531391 108.15309823 -86.17433743 81.33305552 -76.60546875 58.25 C-63.347543 31.41157123 -42.94601544 12.61138557 -15 2 C-9.9076998 0.42008687 -5.30746898 -0.22114454 0 0 Z " fill="#3F8198" transform="translate(214,381)"/>
<path d="M0 0 C1.75048467 -0.00271358 3.5009682 -0.00627657 5.25144958 -0.01062012 C9.9898075 -0.01971079 14.72807796 -0.01621142 19.46643734 -0.00986195 C24.44940859 -0.00477512 29.43237267 -0.00950172 34.41534424 -0.01263428 C42.79465059 -0.01627018 51.17392167 -0.01148892 59.55322266 -0.00195312 C69.18977325 0.00888804 78.82623892 0.00543602 88.46278739 -0.00560594 C96.77236516 -0.01474074 105.08191763 -0.01593281 113.3914988 -0.0107286 C118.33787436 -0.00763718 123.28421031 -0.00711963 128.23058319 -0.01380157 C180.16503647 -0.07432351 180.16503647 -0.07432351 195.32128906 5.00878906 C196.14483887 5.27191895 196.96838867 5.53504883 197.81689453 5.80615234 C208.59053785 9.37751407 217.17072462 14.80074813 225.69628906 22.25878906 C226.65341797 23.09023438 226.65341797 23.09023438 227.62988281 23.93847656 C237.64838639 33.26527944 244.83603668 47.42590429 246.03222656 61.09863281 C246.4182677 78.63684438 242.56480914 94.84426541 230.21191406 107.87207031 C217.32630201 120.09739479 203.18304022 125.85379709 185.54394531 125.57128906 C171.56921208 124.43628535 159.15913346 117.44814743 149.69628906 107.25878906 C141.85364468 96.76117376 138.13348173 85.3611132 139.69628906 72.25878906 C141.25711391 66.93362194 144.25142631 62.61953895 148.69628906 59.25878906 C152.88676525 59.44926525 152.88676525 59.44926525 154.69628906 61.25878906 C154.87207019 63.33639491 155.04329214 65.41450242 155.18969727 67.49438477 C155.8961535 76.87381313 157.44132442 84.24496798 162.69628906 92.25878906 C163.08816406 92.88011719 163.48003906 93.50144531 163.88378906 94.14160156 C167.66640413 99.36896544 174.3583261 103.15555572 180.69628906 104.25878906 C193.25642503 105.10444943 202.81372111 103.94314789 212.94628906 95.83300781 C220.10428749 89.39400477 224.35947154 81.81432021 225.13769531 72.12988281 C225.67412539 59.34305348 222.80355601 50.57840843 214.88378906 40.32128906 C201.22377711 26.08913002 181.06386262 21.51333432 161.99712551 20.91259277 C158.0883955 20.84436162 154.18139606 20.84638755 150.2722168 20.8581543 C148.51078328 20.85239262 146.7493537 20.84530212 144.9879303 20.83700562 C141.2362394 20.82204815 137.48468936 20.81610457 133.73296928 20.81753349 C127.79350434 20.8195886 121.85422567 20.79986197 115.91481018 20.77735901 C104.39037134 20.73662521 92.86594804 20.71782591 81.34145355 20.70118713 C66.63991435 20.67873803 51.93841902 20.64520702 37.23695141 20.593988 C31.33856625 20.57413959 25.44028058 20.56449147 19.54186332 20.56303585 C15.87362866 20.56027796 12.20544879 20.54943279 8.53723717 20.53652573 C6.84298462 20.53226196 5.14871952 20.53137524 3.45446396 20.53420067 C-16.76897887 20.56404911 -16.76897887 20.56404911 -23.17871094 16.38378906 C-28.19259983 11.36990017 -28.19259983 11.36990017 -28.61621094 7.13378906 C-28.30371094 4.25878906 -28.30371094 4.25878906 -26.30371094 2.25878906 C-17.70980899 -0.43038566 -8.90748762 -0.02321699 0 0 Z " fill="#3A7C92" transform="translate(358.3037109375,744.7412109375)"/>
<path d="M0 0 C0.66 0 1.32 0 2 0 C2 0.66 2 1.32 2 2 C3.32 1.67 4.64 1.34 6 1 C6 1.66 6 2.32 6 3 C7.98 2.67 9.96 2.34 12 2 C17.90683048 13.00409536 22.61361479 23.96687479 26 36 C26.21172852 36.75120117 26.42345703 37.50240234 26.64160156 38.27636719 C30.98132655 54.32165785 31.0663586 70.56992919 29 87 C30.216875 87.28875 31.43375 87.5775 32.6875 87.875 C45.19615373 92.0905148 55.91331696 103.48892968 62.3125 114.6875 C70.12134385 132.50030048 70.43988107 152.76370126 64 171 C60.5275261 179.32760457 55.32211619 185.64689304 49 192 C48.27296875 192.76183594 47.5459375 193.52367187 46.796875 194.30859375 C36.94972178 203.97153152 24.65832291 209.57592677 11.5625 213.4375 C10.77834717 213.67235107 9.99419434 213.90720215 9.1862793 214.14916992 C-9.31119241 219.1638915 -28.81527349 218.32530467 -47.80842519 218.3717854 C-51.79602414 218.38385952 -55.78355288 218.40768776 -59.77110291 218.43040466 C-67.30336102 218.47175321 -74.83562579 218.50431126 -82.36794227 218.53287882 C-95.87050849 218.58416773 -109.37301907 218.64632923 -122.87549108 218.71821922 C-127.60304153 218.74298326 -132.33057488 218.76248265 -137.05816567 218.77760136 C-139.99982739 218.78785741 -142.94146185 218.80200169 -145.88310242 218.81707764 C-147.88148311 218.82609176 -149.87988369 218.83030315 -151.87828064 218.83433533 C-158.34104039 218.87129066 -164.59074984 219.17906003 -171 220 C-176.10489588 220.25087049 -180.9729983 219.83783362 -186 219 C-186.33848652 220.89492006 -186.67056911 222.79098466 -187 224.6875 C-187.185625 225.74324219 -187.37125 226.79898438 -187.5625 227.88671875 C-187.95068074 230.64904062 -188.08259976 233.21742043 -188 236 C-188.99 236 -189.98 236 -191 236 C-190.855625 234.78441406 -190.71125 233.56882812 -190.5625 232.31640625 C-190.37496961 230.73177443 -190.18747126 229.14713882 -190 227.5625 C-189.90460937 226.76005859 -189.80921875 225.95761719 -189.7109375 225.13085938 C-189.10534476 220.00494939 -189.26172181 215.83990378 -189.9375 210.75 C-190.02451172 210.08097656 -190.11152344 209.41195312 -190.20117188 208.72265625 C-190.6793013 205.11720623 -191.23504556 201.5560044 -192 198 C-190.845 198.165 -189.69 198.33 -188.5 198.5 C-183.88977722 199.01469792 -179.32077939 199.11238672 -174.6875 199.125 C-173.99398437 199.12951172 -173.30046875 199.13402344 -172.5859375 199.13867188 C-169.21897341 199.12886518 -166.23927447 198.89645038 -163 198 C-161.32457024 198.28604898 -159.65614657 198.61781233 -158 199 C-155.18432379 199 -152.36885932 198.98789807 -149.55322266 198.97434998 C-146.50619312 198.96105209 -143.4591574 198.95286691 -140.41210938 198.94506836 C-138.80402984 198.94002277 -137.19595493 198.9331868 -135.58789062 198.92456055 C-133.26691568 198.91244243 -130.94600078 198.90676198 -128.625 198.90234375 C-127.90618652 198.89718246 -127.18737305 198.89202118 -126.44677734 198.88670349 C-123.35015334 198.88635481 -120.96216407 199.01261198 -118 200 C-117.67 199.34 -117.34 198.68 -117 198 C-117 198.66 -117 199.32 -117 200 C-115.19462769 199.75660889 -115.19462769 199.75660889 -113.3527832 199.50830078 C-107.0252272 198.80939153 -100.71484598 198.85673497 -94.35546875 198.8671875 C-93.06812332 198.86623077 -91.78077789 198.86527405 -90.454422 198.86428833 C-87.74735293 198.86282384 -85.04031712 198.86492718 -82.33325195 198.86962891 C-78.86885813 198.87535416 -75.40454133 198.87202172 -71.94015026 198.86605644 C-68.62025024 198.86157389 -65.30037095 198.86471102 -61.98046875 198.8671875 C-60.7387944 198.86516327 -59.49712006 198.86313904 -58.21781921 198.86105347 C-57.0659462 198.86420563 -55.91407318 198.86735779 -54.72729492 198.87060547 C-53.71519455 198.87140106 -52.70309418 198.87219666 -51.6603241 198.87301636 C-49.27941275 198.98666296 -47.27477193 199.31853868 -45 200 C-44.8453125 199.0409375 -44.8453125 199.0409375 -44.6875 198.0625 C-44.460625 197.381875 -44.23375 196.70125 -44 196 C-43.01 195.67 -42.02 195.34 -41 195 C-41 195.99 -41 196.98 -41 198 C-41.66 198 -42.32 198 -43 198 C-43 198.66 -43 199.32 -43 200 C-39.535 199.01 -39.535 199.01 -36 198 C-36 198.66 -36 199.32 -36 200 C-33.70774565 199.88628503 -31.41617612 199.75869036 -29.125 199.625 C-27.21074219 199.52058594 -27.21074219 199.52058594 -25.2578125 199.4140625 C-21.91938301 199.32758894 -21.91938301 199.32758894 -20 197 C-20 197.99 -20 198.98 -20 200 C-18.02 200 -16.04 200 -14 200 C-14 199.01 -14 198.02 -14 197 C-13.34 197.33 -12.68 197.66 -12 198 C-12.33 198.66 -12.66 199.32 -13 200 C-12.34 199.67 -11.68 199.34 -11 199 C-9.29297265 198.93003986 -7.58331997 198.91559846 -5.875 198.9375 C-4.96492187 198.94652344 -4.05484375 198.95554687 -3.1171875 198.96484375 C-2.06917969 198.98224609 -2.06917969 198.98224609 -1 199 C-1 198.34 -1 197.68 -1 197 C0.01707031 196.94392578 0.01707031 196.94392578 1.0546875 196.88671875 C12.11930059 196.10514636 20.96245112 194.03754888 29 186 C30.25733954 185.00356535 31.52994182 184.02625787 32.8125 183.0625 C33.81216797 182.30646484 33.81216797 182.30646484 34.83203125 181.53515625 C37 180 37 180 39.5703125 178.61328125 C46.17787784 174.22594285 49.29774443 164.00391605 51.359375 156.6484375 C53.71387262 143.23928642 51.03040298 132.46661796 44 121 C43.47148438 120.06800781 42.94296875 119.13601563 42.3984375 118.17578125 C41.18406312 115.87927457 41.18406312 115.87927457 39 115 C38.67 114.01 38.34 113.02 38 112 C35.66469079 109.93438727 35.66469079 109.93438727 32.8125 107.9375 C31.87019531 107.24527344 30.92789063 106.55304688 29.95703125 105.83984375 C25.50105179 103.06736512 21.46724878 101.98848978 16.30004883 101.44897461 C15.49360428 101.3635289 14.68715973 101.27808319 13.85627747 101.19004822 C13.2437059 101.12733231 12.63113434 101.06461639 12 101 C12.02618408 99.80737549 12.05236816 98.61475098 12.0793457 97.38598633 C13.24238946 66.73537748 13.24238946 66.73537748 7 37 C6.51325572 35.52118417 6.02758164 34.04201567 5.54296875 32.5625 C3.1677742 25.59426611 0.29787523 19.16898854 -3.80078125 13.015625 C-5.0034676 10.99417173 -5.56005528 9.29806417 -6 7 C-1.25 3 -1.25 3 1 3 C0.67 2.01 0.34 1.02 0 0 Z " fill="#3E8198" transform="translate(805,358)"/>
<path d="M0 0 C1.32 0 2.64 0 4 0 C4 0.99 4 1.98 4 3 C4.66 3.33 5.32 3.66 6 4 C4.89932004 4.81721717 3.79430269 5.62859451 2.6875 6.4375 C2.07261719 6.88996094 1.45773438 7.34242188 0.82421875 7.80859375 C-1 9 -1 9 -4 10 C-4 12.64 -4 15.28 -4 18 C-3.67 17.34 -3.34 16.68 -3 16 C-2.34 16 -1.68 16 -1 16 C-0.67 16.66 -0.34 17.32 0 18 C0.66 17.67 1.32 17.34 2 17 C3.5159375 16.5359375 3.5159375 16.5359375 5.0625 16.0625 C8.11762697 15.33889989 8.11762697 15.33889989 9 13 C13.75 14.875 13.75 14.875 16 16 C16 16.66 16 17.32 16 18 C15.38511719 17.97679687 14.77023438 17.95359375 14.13671875 17.9296875 C13.32847656 17.91164063 12.52023438 17.89359375 11.6875 17.875 C10.88699219 17.85179687 10.08648437 17.82859375 9.26171875 17.8046875 C6.71611424 17.84182678 6.71611424 17.84182678 4 20 C0.86328125 20.1953125 0.86328125 20.1953125 -2.6875 20.125 C-3.86699219 20.10695313 -5.04648438 20.08890625 -6.26171875 20.0703125 C-7.16535156 20.04710937 -8.06898438 20.02390625 -9 20 C-9 20.66 -9 21.32 -9 22 C-11.31 22.66 -13.62 23.32 -16 24 C-16 23.34 -16 22.68 -16 22 C-17.98 22.33 -19.96 22.66 -22 23 C-22 22.34 -22 21.68 -22 21 C-20.6078125 20.319375 -20.6078125 20.319375 -19.1875 19.625 C-15.96078611 18.0578367 -15.96078611 18.0578367 -13 16 C-12.26656572 12.93443402 -12.26656572 12.93443402 -12 10 C-11.34 10 -10.68 10 -10 10 C-9.6596875 9.0409375 -9.6596875 9.0409375 -9.3125 8.0625 C-8 6 -8 6 -5.5 5.25 C-3 5 -3 5 -1 5 C-0.67 3.35 -0.34 1.7 0 0 Z " fill="#4D90A3" transform="translate(214,380)"/>
<path d="M0 0 C1.91864771 0.25642304 3.83490994 0.53073436 5.75 0.8125 C6.81734375 0.96332031 7.8846875 1.11414063 8.984375 1.26953125 C12.16960197 2.04108234 13.46926218 3.00535359 16 5 C17.68463067 5.72837896 19.37052044 6.45433108 21.06835938 7.15136719 C31.72536648 11.83333846 42.77259986 18.75483009 51 27 C51 27.66 51 28.32 51 29 C51.598125 29.2475 52.19625 29.495 52.8125 29.75 C55.28647521 31.16370012 56.43370255 32.65055383 58 35 C53.72658086 34.52517565 51.89680572 31.96922587 49 29 C46.27617044 27.31763469 45.26115629 27 42 27 C41.87625 26.195625 41.7525 25.39125 41.625 24.5625 C41.41875 23.716875 41.2125 22.87125 41 22 C40.34 21.67 39.68 21.34 39 21 C39 20.34 39 19.68 39 19 C37.35 18.67 35.7 18.34 34 18 C34 17.34 34 16.68 34 16 C33.278125 15.71125 32.55625 15.4225 31.8125 15.125 C29.96595263 14.38638105 28.13162175 13.61629798 26.3125 12.8125 C25.549375 12.544375 24.78625 12.27625 24 12 C23.01 12.495 23.01 12.495 22 13 C22 12.34 22 11.68 22 11 C20.68 11 19.36 11 18 11 C17.67 9.68 17.34 8.36 17 7 C15.68 6.67 14.36 6.34 13 6 C12.54625 6.66 12.0925 7.32 11.625 8 C11.08875 8.66 10.5525 9.32 10 10 C9.34 10 8.68 10 8 10 C8 8.68 8 7.36 8 6 C8.66 6 9.32 6 10 6 C10 5.34 10 4.68 10 4 C7.03 3.67 4.06 3.34 1 3 C0.67 2.01 0.34 1.02 0 0 Z " fill="#A4CFCB" transform="translate(582,165)"/>
<path d="M0 0 C1.05372803 0.08620605 2.10745605 0.17241211 3.19311523 0.26123047 C8.94935166 0.7977394 14.30741507 1.7027718 19.875 3.25 C21.53982377 3.63309865 23.20612914 4.0099345 24.875 4.375 C25.638125 4.54257813 26.40125 4.71015625 27.1875 4.8828125 C28.0228125 5.06457031 28.0228125 5.06457031 28.875 5.25 C28.545 5.91 28.215 6.57 27.875 7.25 C24.905 6.92 21.935 6.59 18.875 6.25 C18.875 5.59 18.875 4.93 18.875 4.25 C17.225 4.91 15.575 5.57 13.875 6.25 C13.875 5.59 13.875 4.93 13.875 4.25 C11.56302845 4.05609271 9.2503971 3.87003633 6.9375 3.6875 C5.64972656 3.58308594 4.36195313 3.47867188 3.03515625 3.37109375 C1.99230469 3.33113281 0.94945312 3.29117188 -0.125 3.25 C-0.455 3.58 -0.785 3.91 -1.125 4.25 C-2.79117115 4.29063832 -4.45888095 4.292721 -6.125 4.25 C-6.125 3.26 -6.125 2.27 -6.125 1.25 C-10.58 1.745 -10.58 1.745 -15.125 2.25 C-15.125 2.91 -15.125 3.57 -15.125 4.25 C-16.115 4.25 -17.105 4.25 -18.125 4.25 C-18.125 3.59 -18.125 2.93 -18.125 2.25 C-22.46684202 2.43464366 -22.46684202 2.43464366 -26.125 4.25 C-28.79558851 4.39115161 -31.44932238 4.29247107 -34.125 4.25 C-33.135 3.92 -32.145 3.59 -31.125 3.25 C-31.125 2.59 -31.125 1.93 -31.125 1.25 C-20.60437587 -0.4967192 -10.64416315 -0.87817684 0 0 Z " fill="#A3CECB" transform="translate(542.125,155.75)"/>
<path d="M0 0 C-0.33 0.99 -0.66 1.98 -1 3 C-2.2065625 3.0928125 -2.2065625 3.0928125 -3.4375 3.1875 C-10.75069956 4.85542271 -15.83604154 8.69259825 -21 14 C-22.65583225 14.69313908 -24.32110979 15.36474424 -26 16 C-26.66 16.99 -27.32 17.98 -28 19 C-30.0234375 20.31640625 -30.0234375 20.31640625 -32.375 21.5625 C-33.14585937 21.97628906 -33.91671875 22.39007813 -34.7109375 22.81640625 C-36.7986573 23.89589277 -38.89402738 24.95663 -41 26 C-35.1688269 18.25696687 -27.47772824 12.56493059 -19 8 C-17.86545049 7.17971538 -16.74072581 6.34570997 -15.625 5.5 C-5.5403054 -1.84676847 -5.5403054 -1.84676847 0 0 Z " fill="#9AC8C6" transform="translate(465,173)"/>
<path d="M0 0 C-1.11375 0.4125 -2.2275 0.825 -3.375 1.25 C-5.99320695 2.35546516 -6.83493089 2.74880787 -8.4375 5.1875 C-8.623125 5.785625 -8.80875 6.38375 -9 7 C-9.66 7 -10.32 7 -11 7 C-11.33 6.01 -11.66 5.02 -12 4 C-13.29409289 4.61996078 -14.58519673 5.24616353 -15.875 5.875 C-16.95394531 6.39707031 -16.95394531 6.39707031 -18.0546875 6.9296875 C-20.15135019 7.96557543 -20.15135019 7.96557543 -22 10 C-22.33 9.34 -22.66 8.68 -23 8 C-23.99 8.66 -24.98 9.32 -26 10 C-27.65549531 10.38499891 -29.3222433 10.72793135 -31 11 C-31 10.01 -31 9.02 -31 8 C-30.0821875 7.67386719 -29.164375 7.34773437 -28.21875 7.01171875 C-26.9915625 6.57472656 -25.764375 6.13773438 -24.5 5.6875 C-23.85869141 5.4596582 -23.21738281 5.23181641 -22.55664062 4.99707031 C-19.18442742 3.79514397 -15.83227408 2.55817791 -12.5 1.25 C-7.98229837 -0.36346487 -4.61965309 -1.53988436 0 0 Z " fill="#9BC8C6" transform="translate(498,161)"/>
<path d="M0 0 C6.29950795 0.54501361 12.55276384 0.67941737 18.875 0.6875 C19.80803955 0.69193115 20.7410791 0.6963623 21.70239258 0.70092773 C22.57790771 0.69907471 23.45342285 0.69722168 24.35546875 0.6953125 C25.53532349 0.69362061 25.53532349 0.69362061 26.73901367 0.69189453 C28.768256 0.68335717 28.768256 0.68335717 30.6875 -0.4375 C32.70677511 0.16828253 34.71003397 0.83169734 36.6875 1.5625 C36.6875 1.8925 36.6875 2.2225 36.6875 2.5625 C22.4975 2.5625 8.3075 2.5625 -6.3125 2.5625 C-6.6425 1.9025 -6.9725 1.2425 -7.3125 0.5625 C-4.62865141 -0.7794243 -2.98818962 -0.31393432 0 0 Z " fill="#509FA7" transform="translate(377.3125,690.4375)"/>
<path d="M0 0 C-3.13332775 2.76899196 -5.07211545 3.37083411 -9.22753906 3.34057617 C-10.26831604 3.34034958 -11.30909302 3.34012299 -12.38140869 3.33988953 C-13.49820007 3.32440567 -14.61499146 3.30892181 -15.765625 3.29296875 C-16.91415955 3.28872391 -18.06269409 3.28447906 -19.24603271 3.28010559 C-22.9142603 3.26331333 -26.58193847 3.22565898 -30.25 3.1875 C-32.73697123 3.17245392 -35.22395108 3.15876539 -37.7109375 3.14648438 C-43.80747912 3.11340796 -49.90370031 3.06320256 -56 3 C-56.33 2.34 -56.66 1.68 -57 1 C-50.65034737 0.8558543 -44.30065315 0.71365656 -37.95092773 0.57275391 C-35.79499343 0.52469014 -33.63906868 0.47619562 -31.4831543 0.42724609 C-28.36770051 0.3565878 -25.25221458 0.2875266 -22.13671875 0.21875 C-21.18729904 0.19687622 -20.23787933 0.17500244 -19.25968933 0.15246582 C-12.83882346 0.01275574 -6.42230035 -0.02451464 0 0 Z " fill="#53A5AB" transform="translate(489,658)"/>
<path d="M0 0 C0.33 0.66 0.66 1.32 1 2 C0.2578125 4.13671875 0.2578125 4.13671875 -0.875 6.6875 C-3.1807658 12.19748517 -4 17.01977629 -4 23 C-4.66 23.66 -5.32 24.32 -6 25 C-6.60713803 26.85483454 -7.14131052 28.73421385 -7.625 30.625 C-7.88539063 31.62789063 -8.14578125 32.63078125 -8.4140625 33.6640625 C-8.60742188 34.43492187 -8.80078125 35.20578125 -9 36 C-9.33 36 -9.66 36 -10 36 C-10.18405247 30.66247845 -9.78275305 27.08054198 -8 22 C-7.59645059 20.6263151 -7.20249131 19.24978902 -6.81640625 17.87109375 C-6.61080078 17.14599609 -6.40519531 16.42089844 -6.19335938 15.67382812 C-5.77205165 14.1803379 -5.35539719 12.68552735 -4.94335938 11.18945312 C-3.76071779 7.0520497 -2.44619873 3.60154624 0 0 Z " fill="#8CC0C1" transform="translate(385,253)"/>
<path d="M0 0 C0.33 0.66 0.66 1.32 1 2 C1.66 1.67 2.32 1.34 3 1 C3 1.66 3 2.32 3 3 C3.99 2.67 4.98 2.34 6 2 C13.39743907 1.65164414 20.66933707 2.00601181 28 3 C28 3.33 28 3.66 28 4 C15.64865646 4.82637424 3.3779494 5.12350504 -9 5 C-8.01 4.67 -7.02 4.34 -6 4 C-5.67 3.01 -5.34 2.02 -5 1 C-2 0 -2 0 0 0 Z " fill="#28667E" transform="translate(490,653)"/>
<path d="M0 0 C0.99 0.33 1.98 0.66 3 1 C3 1.99 3 2.98 3 4 C4.65 4 6.3 4 8 4 C4.57974684 7.42025316 0.28017975 7.95344801 -4.4375 8.125 C-5.283125 8.08375 -6.12875 8.0425 -7 8 C-6.67 6.02 -6.34 4.04 -6 2 C-4 2 -2 2 0 2 C0 1.34 0 0.68 0 0 Z " fill="#2B6981" transform="translate(550,645)"/>
<path d="M0 0 C1.33804688 0.04060547 1.33804688 0.04060547 2.703125 0.08203125 C3.37859375 0.11683594 4.0540625 0.15164063 4.75 0.1875 C0.04562596 5.56842281 -8.25283083 8.62016196 -15.25 9.1875 C-14.63125 8.94 -14.0125 8.6925 -13.375 8.4375 C-10.83707638 6.94460375 -10.5085312 5.78322059 -9.25 3.1875 C-6.1709163 0.3164625 -4.16356176 -0.16435112 0 0 Z " fill="#2B6A81" transform="translate(573.25,639.8125)"/>
<path d="M0 0 C0.66 0.33 1.32 0.66 2 1 C2.39044206 2.31774196 2.70955086 3.65667272 3 5 C3.37125 6.010625 3.7425 7.02125 4.125 8.0625 C5 11 5 11 4 14 C1.4375 15.1875 1.4375 15.1875 -1 16 C-1.66 14.35 -2.32 12.7 -3 11 C-2.34 10.67 -1.68 10.34 -1 10 C-0.53248212 7.64400765 -0.53248212 7.64400765 -0.375 4.9375 C-0.30023437 4.01839844 -0.22546875 3.09929688 -0.1484375 2.15234375 C-0.09945312 1.44207031 -0.05046875 0.73179687 0 0 Z M-5 13 C-3 14 -3 14 -3 14 Z " fill="#38778E" transform="translate(608,541)"/>
<path d="M0 0 C-0.74443359 0.45439453 -0.74443359 0.45439453 -1.50390625 0.91796875 C-5.02277264 3.08804764 -8.41205752 5.28737915 -11.6875 7.8125 C-14.95683547 9.97149512 -16.20894577 10.57440216 -20 10 C-19.46484375 7.7109375 -19.46484375 7.7109375 -18 5 C-15.46598023 3.61994288 -13.24116164 2.59768428 -10.5625 1.625 C-9.88123047 1.35300781 -9.19996094 1.08101562 -8.49804688 0.80078125 C-3.41849469 -1.13949823 -3.41849469 -1.13949823 0 0 Z " fill="#2A6980" transform="translate(564,626)"/>
<path d="M0 0 C15.84 0 31.68 0 48 0 C48 0.33 48 0.66 48 1 C46.8039917 1.02505615 45.6079834 1.0501123 44.37573242 1.07592773 C39.94202805 1.17003852 35.508479 1.27025036 31.07495117 1.37231445 C29.15539175 1.4156494 27.23579415 1.45732552 25.31616211 1.49731445 C22.55831386 1.55505178 19.80065759 1.61873635 17.04296875 1.68359375 C16.18350143 1.70030624 15.32403412 1.71701874 14.43852234 1.73423767 C13.63791885 1.75418289 12.83731537 1.77412811 12.01245117 1.79467773 C11.3085173 1.81022202 10.60458344 1.8257663 9.87931824 1.84178162 C7.77300917 1.94481604 7.77300917 1.94481604 5 3 C2.3125 2.5625 2.3125 2.5625 0 2 C0 1.34 0 0.68 0 0 Z " fill="#2F7188" transform="translate(336,746)"/>
<path d="M0 0 C-2.90916113 2.40967639 -5.43697576 3.65397951 -9.0625 4.6875 C-9.91972656 4.93886719 -10.77695312 5.19023438 -11.66015625 5.44921875 C-14 6 -14 6 -17 6 C-17.66 7.98 -18.32 9.96 -19 12 C-19.99 11.34 -20.98 10.68 -22 10 C-22.99 10.495 -22.99 10.495 -24 11 C-22.94339216 7.99323326 -22.07481132 7.04656623 -19.3203125 5.33203125 C-17.73863281 4.57986328 -17.73863281 4.57986328 -16.125 3.8125 C-15.07570313 3.30332031 -14.02640625 2.79414062 -12.9453125 2.26953125 C-8.39578917 0.30852981 -4.96000367 -0.11272736 0 0 Z " fill="#2B6B81" transform="translate(689,614)"/>
<path d="M0 0 C4.25883667 3.04202619 7.38603243 6.4839539 10 11 C10 11.66 10 12.32 10 13 C10.66 13 11.32 13 12 13 C12 13.66 12 14.32 12 15 C12.66 15 13.32 15 14 15 C13.67 15.99 13.34 16.98 13 18 C9.16360315 15.61878816 7.98288495 12.96576991 6 9 C5.01 8.67 4.02 8.34 3 8 C3 7.34 3 6.68 3 6 C0.69 5.67 -1.62 5.34 -4 5 C-4 4.34 -4 3.68 -4 3 C-3.01 3 -2.02 3 -1 3 C-0.67 2.01 -0.34 1.02 0 0 Z " fill="#99C8C5" transform="translate(643,203)"/>
<path d="M0 0 C-0.33 1.32 -0.66 2.64 -1 4 C-1.639375 4.12375 -2.27875 4.2475 -2.9375 4.375 C-3.618125 4.58125 -4.29875 4.7875 -5 5 C-5.33 5.66 -5.66 6.32 -6 7 C-6.33 6.34 -6.66 5.68 -7 5 C-7.99 6.32 -8.98 7.64 -10 9 C-10.99 8.67 -11.98 8.34 -13 8 C-11.6875 4.5625 -11.6875 4.5625 -10 1 C-6.52674819 -0.1577506 -3.63932552 -0.06866652 0 0 Z " fill="#458A9F" transform="translate(214,381)"/>
<path d="M0 0 C7.92 0 15.84 0 24 0 C23.01 1.485 23.01 1.485 22 3 C19.14433378 3.27750988 16.53790951 3.37203236 13.6875 3.3125 C12.92759766 3.31572266 12.16769531 3.31894531 11.38476562 3.32226562 C7.15201944 3.28181366 3.86019445 2.93394972 0 1 C0 0.67 0 0.34 0 0 Z " fill="#50A0A4" transform="translate(440,710)"/>
<path d="M0 0 C0.66 0.33 1.32 0.66 2 1 C1.49210937 1.47308594 0.98421875 1.94617188 0.4609375 2.43359375 C-4.51701184 7.21578103 -8.40889824 12.11551549 -12 18 C-12.928125 19.5159375 -12.928125 19.5159375 -13.875 21.0625 C-14.24625 21.701875 -14.6175 22.34125 -15 23 C-15.66 22.01 -16.32 21.02 -17 20 C-11.69486735 12.90158308 -6.49551669 6.07189603 0 0 Z " fill="#448A9E" transform="translate(163,404)"/>
<path d="M0 0 C0 0.66 0 1.32 0 2 C5.61 2 11.22 2 17 2 C17 2.33 17 2.66 17 3 C5.78 3 -5.44 3 -17 3 C-17 2.67 -17 2.34 -17 2 C-11.19233704 0.4943096 -6.0018137 -0.21824777 0 0 Z " fill="#52A0A5" transform="translate(248,691)"/>
<path d="M0 0 C1.1875 1.5 1.1875 1.5 2 4 C0.18135791 9.89964995 -2.37810582 14.53587444 -6 19.5 C-6.65742187 20.44746094 -6.65742187 20.44746094 -7.328125 21.4140625 C-8.4709017 23.00431201 -9.72833113 24.51080882 -11 26 C-11.99 26 -12.98 26 -14 26 C-13.46375 25.360625 -12.9275 24.72125 -12.375 24.0625 C-6.68222619 16.72181798 -1.42161619 9.38266684 0 0 Z " fill="#499AA2" transform="translate(612,598)"/>
<path d="M0 0 C1.98 0.99 1.98 0.99 4 2 C4 2.33 4 2.66 4 3 C5.91583647 3.1958009 7.83272539 3.38132214 9.75 3.5625 C10.81734375 3.66691406 11.8846875 3.77132812 12.984375 3.87890625 C15.67787689 3.987065 17.45126958 3.7154331 20 3 C22.75 3.4375 22.75 3.4375 25 4 C25 4.66 25 5.32 25 6 C16.92970447 6.11547323 9.02332397 5.90041311 1 5 C0.67 3.35 0.34 1.7 0 0 Z " fill="#2A697F" transform="translate(467,705)"/>
<path d="M0 0 C0.66 0.33 1.32 0.66 2 1 C1.39671875 1.72445312 0.7934375 2.44890625 0.171875 3.1953125 C-4.86558708 9.1820202 -4.86558708 9.1820202 -9.375 15.5625 C-11 18 -11 18 -14 20 C-12.58317163 15.97591531 -10.65214232 12.86583081 -8.125 9.4375 C-7.44695312 8.50808594 -6.76890625 7.57867187 -6.0703125 6.62109375 C-4.17792135 4.22525515 -2.20772419 2.10377305 0 0 Z " fill="#8BBFC1" transform="translate(413,209)"/>
<path d="M0 0 C2.93756119 -0.0269501 5.87487555 -0.04681474 8.8125 -0.0625 C9.64587891 -0.07087891 10.47925781 -0.07925781 11.33789062 -0.08789062 C12.14033203 -0.09111328 12.94277344 -0.09433594 13.76953125 -0.09765625 C14.87711792 -0.10551147 14.87711792 -0.10551147 16.00708008 -0.11352539 C18 0 18 0 21 1 C20.67 1.99 20.34 2.98 20 4 C9.5959596 3.05050505 9.5959596 3.05050505 5 2 C3.6078125 1.7215625 3.6078125 1.7215625 2.1875 1.4375 C1.465625 1.293125 0.74375 1.14875 0 1 C0 0.67 0 0.34 0 0 Z " fill="#4D9EA4" transform="translate(490,711)"/>
<path d="M0 0 C9.57 0 19.14 0 29 0 C28.67 0.66 28.34 1.32 28 2 C25.03 1.505 25.03 1.505 22 1 C22 1.66 22 2.32 22 3 C16 2.33333333 10 1.66666667 4 1 C4 1.66 4 2.32 4 3 C3.34 3 2.68 3 2 3 C2 2.34 2 1.68 2 1 C1.34 0.67 0.68 0.34 0 0 Z " fill="#4FA4A6" transform="translate(756,576)"/>
<path d="M0 0 C2.85423192 -0.02718316 5.70820015 -0.04692705 8.5625 -0.0625 C9.36236328 -0.07087891 10.16222656 -0.07925781 10.98632812 -0.08789062 C15.77163104 -0.10742247 20.28145051 0.19562982 25 1 C25 1.99 25 2.98 25 4 C24.01 4.495 24.01 4.495 23 5 C23 4.01 23 3.02 23 2 C22.05898438 2.01160156 21.11796875 2.02320313 20.1484375 2.03515625 C18.90320313 2.04417969 17.65796875 2.05320312 16.375 2.0625 C15.14523438 2.07410156 13.91546875 2.08570313 12.6484375 2.09765625 C9.32276209 2.00863924 6.25952412 1.63686087 3 1 C3 1.66 3 2.32 3 3 C2.34 3 1.68 3 1 3 C0.67 2.01 0.34 1.02 0 0 Z " fill="#4A97A4" transform="translate(234,575)"/>
<path d="M0 0 C3.45039492 1.23342315 5.43467511 1.72962906 8.9375 0.5 C9.2675 1.49 9.5975 2.48 9.9375 3.5 C6.9375 5.5 6.9375 5.5 4.625 5.3125 C1.9375 4.5 1.9375 4.5 -1 3 C-4.09564147 1.48376744 -6.65963893 0.90510251 -10.0625 0.5 C-10.0625 0.17 -10.0625 -0.16 -10.0625 -0.5 C-6.12676671 -1.5701815 -3.81863476 -1.36927861 0 0 Z " fill="#65A4B1" transform="translate(568.0625,502.5)"/>
<path d="M0 0 C2.70860665 -0.05429278 5.41610901 -0.09381211 8.125 -0.125 C8.88554688 -0.14175781 9.64609375 -0.15851562 10.4296875 -0.17578125 C15.03270731 -0.21546246 18.66464004 0.24092423 23 2 C22.67 2.99 22.34 3.98 22 5 C21.67 4.01 21.34 3.02 21 2 C19.989375 2.185625 18.97875 2.37125 17.9375 2.5625 C14.01228145 2.99863539 10.87779164 2.59658333 7 2 C6.01 2.33 5.02 2.66 4 3 C4 2.34 4 1.68 4 1 C2.68 0.67 1.36 0.34 0 0 Z " fill="#499BA2" transform="translate(688,634)"/>
<path d="M0 0 C0.99 0.33 1.98 0.66 3 1 C2.67 2.32 2.34 3.64 2 5 C2.66 5.33 3.32 5.66 4 6 C0.04 7.98 0.04 7.98 -4 10 C-3.835 9.236875 -3.67 8.47375 -3.5 7.6875 C-2.90854604 4.96403764 -2.90854604 4.96403764 -3 2 C-2.01 1.34 -1.02 0.68 0 0 Z " fill="#377990" transform="translate(520,516)"/>
<path d="M0 0 C3.08603789 0.10286793 5.76424114 0.40117967 8.75 1.125 C8.75 1.785 8.75 2.445 8.75 3.125 C2.48 3.125 -3.79 3.125 -10.25 3.125 C-9.92 2.465 -9.59 1.805 -9.25 1.125 C-8.0434375 1.1559375 -8.0434375 1.1559375 -6.8125 1.1875 C-3.57242559 1.10847379 -3.47781493 0.13376211 0 0 Z " fill="#51A0A7" transform="translate(448.25,689.875)"/>
<path d="M0 0 C0.33 0 0.66 0 1 0 C1.06058594 1.09957031 1.12117187 2.19914062 1.18359375 3.33203125 C1.64715164 11.57067673 2.1664477 19.78862311 3 28 C2.34 28 1.68 28 1 28 C-0.0592918 24.82212459 -0.11458939 22.57411057 -0.09765625 19.23828125 C-0.09443359 18.12001953 -0.09121094 17.00175781 -0.08789062 15.84960938 C-0.07951172 14.68236328 -0.07113281 13.51511719 -0.0625 12.3125 C-0.05573242 10.54422852 -0.05573242 10.54422852 -0.04882812 8.74023438 C-0.03703273 5.82677211 -0.0205727 2.91341137 0 0 Z " fill="#8BC2C4" transform="translate(239,369)"/>
<path d="M0 0 C5.2584002 0.67415387 10.02638346 2.24265549 15 4 C15 4.66 15 5.32 15 6 C16.32 6.33 17.64 6.66 19 7 C18.67 7.66 18.34 8.32 18 9 C17.19175781 8.65066406 16.38351562 8.30132812 15.55078125 7.94140625 C14.48214844 7.48636719 13.41351562 7.03132813 12.3125 6.5625 C11.25675781 6.11003906 10.20101562 5.65757812 9.11328125 5.19140625 C6.38027471 4.14552545 3.87957663 3.46479252 1 3 C0.67 2.01 0.34 1.02 0 0 Z " fill="#90C3C4" transform="translate(752,333)"/>
<path d="M0 0 C0.66 0.33 1.32 0.66 2 1 C-1.15166582 6.8922448 -5.08265382 9.12466981 -11 12 C-11.7528125 12.37640625 -12.505625 12.7528125 -13.28125 13.140625 C-14.13203125 13.56601563 -14.13203125 13.56601563 -15 14 C-12.11461208 10.13220619 -9.01811193 7.19301785 -5.25 4.1875 C-4.26515625 3.39730469 -3.2803125 2.60710937 -2.265625 1.79296875 C-1.51796875 1.20128906 -0.7703125 0.60960937 0 0 Z " fill="#90C2C3" transform="translate(439,185)"/>
<path d="M0 0 C1.485 0.99 1.485 0.99 3 2 C5.54207971 2.33343551 5.54207971 2.33343551 8 2 C8.66 1.34 9.32 0.68 10 0 C10.33 0.66 10.66 1.32 11 2 C11.99 2.33 12.98 2.66 14 3 C14 2.34 14 1.68 14 1 C14.66 1 15.32 1 16 1 C16 1.66 16 2.32 16 3 C17.98 3 19.96 3 22 3 C22 3.33 22 3.66 22 4 C14.41 4 6.82 4 -1 4 C-0.67 2.68 -0.34 1.36 0 0 Z " fill="#4E9CA4" transform="translate(337,689)"/>
<path d="M0 0 C-3 2 -3 2 -5.625 2.5 C-6.40875 2.665 -7.1925 2.83 -8 3 C-8.33 3.66 -8.66 4.32 -9 5 C-10.65 5 -12.3 5 -14 5 C-14 4.67 -14 4.34 -14 4 C-15.65 3.67 -17.3 3.34 -19 3 C-13.41589544 -0.49006535 -6.37303064 -0.13277147 0 0 Z " fill="#28677E" transform="translate(534,635)"/>
<path d="M0 0 C0.33 0.66 0.66 1.32 1 2 C4.465 1.505 4.465 1.505 8 1 C8 1.66 8 2.32 8 3 C13.445 2.505 13.445 2.505 19 2 C18.67 2.99 18.34 3.98 18 5 C15.22829605 4.88613541 12.45821954 4.75939222 9.6875 4.625 C8.90181641 4.5940625 8.11613281 4.563125 7.30664062 4.53125 C6.54931641 4.49257813 5.79199219 4.45390625 5.01171875 4.4140625 C3.96697388 4.36693115 3.96697388 4.36693115 2.90112305 4.31884766 C1 4 1 4 -2 2 C-1.34 1.34 -0.68 0.68 0 0 Z " fill="#5C9EAF" transform="translate(229,553)"/>
<path d="M0 0 C0.66 0 1.32 0 2 0 C2.125 5.75 2.125 5.75 1 8 C1.020625 9.2375 1.04125 10.475 1.0625 11.75 C1.12437318 15.51738912 0.40936774 18.47658065 -1 22 C-1.99 21.67 -2.98 21.34 -4 21 C-3.34 21 -2.68 21 -2 21 C-1.93941406 19.90300781 -1.87882812 18.80601562 -1.81640625 17.67578125 C-1.73195502 16.22134346 -1.64730934 14.76691695 -1.5625 13.3125 C-1.52318359 12.59126953 -1.48386719 11.87003906 -1.44335938 11.12695312 C-1.21814322 7.33292718 -0.87160695 3.71348508 0 0 Z " fill="#91C4C4" transform="translate(374,291)"/>
<path d="M0 0 C-0.25 3.375 -0.25 3.375 -1 7 C-3.0625 8.4375 -3.0625 8.4375 -5 9 C-5.33 8.01 -5.66 7.02 -6 6 C-6.66 5.34 -7.32 4.68 -8 4 C-3.375 0 -3.375 0 0 0 Z " fill="#38798F" transform="translate(728,699)"/>
<path d="M0 0 C7.19270839 0.46247533 14.0030827 1.25077067 21 3 C20.67 3.66 20.34 4.32 20 5 C17.03 4.67 14.06 4.34 11 4 C11 3.34 11 2.68 11 2 C9.35 2.66 7.7 3.32 6 4 C6 3.34 6 2.68 6 2 C4.35 2 2.7 2 1 2 C0.67 1.34 0.34 0.68 0 0 Z " fill="#ADD3CD" transform="translate(550,158)"/>
<path d="M0 0 C7.26 0 14.52 0 22 0 C19 3 19 3 17.02734375 3.328125 C11.22222222 3.11111111 11.22222222 3.11111111 9 2 C7.46331135 1.77532169 5.92031946 1.59203195 4.375 1.4375 C3.55773437 1.35371094 2.74046875 1.26992188 1.8984375 1.18359375 C1.27195312 1.12300781 0.64546875 1.06242188 0 1 C0 0.67 0 0.34 0 0 Z " fill="#46939E" transform="translate(500,657)"/>
<path d="M0 0 C0 3 0 3 -1.6796875 4.90234375 C-2.40414062 5.57394531 -3.12859375 6.24554687 -3.875 6.9375 C-6.6056834 9.47732918 -8.53368157 11.55029296 -10 15 C-10.66 15 -11.32 15 -12 15 C-10.23188872 8.71338212 -5.3319351 3.5546234 0 0 Z " fill="#4E9FA7" transform="translate(516,526)"/>
<path d="M0 0 C3.49734228 0.38859359 6.65788261 0.88596087 10 2 C9.67 2.99 9.34 3.98 9 5 C8.01 4.67 7.02 4.34 6 4 C3.32323453 5.37249963 3.32323453 5.37249963 1 7 C0.34 5.02 -0.32 3.04 -1 1 C-0.67 0.67 -0.34 0.34 0 0 Z M1 1 C1.33 1.66 1.66 2.32 2 3 C2.33 2.34 2.66 1.68 3 1 C2.34 1 1.68 1 1 1 Z " fill="#3F8298" transform="translate(559,503)"/>
<path d="M0 0 C3.3 0.66 6.6 1.32 10 2 C10 1.34 10 0.68 10 0 C10.66 0 11.32 0 12 0 C12.33 0.66 12.66 1.32 13 2 C14.32 2 15.64 2 17 2 C17 2.66 17 3.32 17 4 C11.06 3.67 5.12 3.34 -1 3 C-0.67 2.01 -0.34 1.02 0 0 Z " fill="#4C9DA3" transform="translate(555,693)"/>
<path d="M0 0 C0.99 0.33 1.98 0.66 3 1 C2.98839844 1.67546875 2.97679687 2.3509375 2.96484375 3.046875 C2.95582031 3.93890625 2.94679688 4.8309375 2.9375 5.75 C2.92589844 6.63171875 2.91429687 7.5134375 2.90234375 8.421875 C2.99209773 10.79138005 3.41993409 12.7184074 4 15 C3.5625 17.75 3.5625 17.75 3 20 C2.34 19.67 1.68 19.34 1 19 C0.67 12.73 0.34 6.46 0 0 Z " fill="#52A3A8" transform="translate(756,659)"/>
<path d="M0 0 C6.19983887 0.32630731 11.05030481 3.48580963 16 7 C16.33 7.66 16.66 8.32 17 9 C13.59687262 7.94124926 10.98646769 6.99097846 8 5 C8 5.66 8 6.32 8 7 C7.34 6.67 6.68 6.34 6 6 C6.33 5.34 6.66 4.68 7 4 C6.01 4 5.02 4 4 4 C4 3.34 4 2.68 4 2 C2.68 1.67 1.36 1.34 0 1 C0 0.67 0 0.34 0 0 Z " fill="#296A80" transform="translate(714,616)"/>
<path d="M0 0 C0.33 0.66 0.66 1.32 1 2 C-0.78948805 7.26904815 -2.86037516 10.17880784 -7 14 C-7.99 15.485 -7.99 15.485 -9 17 C-9.66 17 -10.32 17 -11 17 C-9.69052967 12.67874791 -7.41079774 10.00653317 -4.46484375 6.71484375 C-2.68197688 4.62770093 -1.31251902 2.40628486 0 0 Z " fill="#26657C" transform="translate(591,598)"/>
<path d="M0 0 C-2.61478952 2.56761548 -3.94528576 2.9956345 -7.671875 3.29296875 C-9.03156035 3.27316751 -10.3910934 3.23759202 -11.75 3.1875 C-12.44738281 3.17396484 -13.14476562 3.16042969 -13.86328125 3.14648438 C-15.57585541 3.1112945 -17.28802941 3.05749155 -19 3 C-19.33 2.34 -19.66 1.68 -20 1 C-13.28837062 0.11978631 -6.76594019 -0.11381955 0 0 Z " fill="#4B9DA3" transform="translate(489,658)"/>
<path d="M0 0 C-0.33 0.99 -0.66 1.98 -1 3 C-1.94875 3.12375 -2.8975 3.2475 -3.875 3.375 C-7.08667191 3.71687177 -7.08667191 3.71687177 -9 6 C-12.625 6.125 -12.625 6.125 -16 6 C-13.51231339 2.26847008 -12.26811076 2.28205881 -8 1.3125 C-6.9275 1.06113281 -5.855 0.80976562 -4.75 0.55078125 C-2 0 -2 0 0 0 Z " fill="#479AA0" transform="translate(558,650)"/>
<path d="M0 0 C5.445 1.485 5.445 1.485 11 3 C11 3.66 11 4.32 11 5 C11.66 5.33 12.32 5.66 13 6 C11.625 8 11.625 8 10 10 C9.34 10 8.68 10 8 10 C8 8.68 8 7.36 8 6 C8.66 6 9.32 6 10 6 C10 5.34 10 4.68 10 4 C7.03 3.67 4.06 3.34 1 3 C0.67 2.01 0.34 1.02 0 0 Z " fill="#B0D5CE" transform="translate(582,165)"/>
<path d="M0 0 C0 0.33 0 0.66 0 1 C-1.26457031 1.06058594 -2.52914063 1.12117187 -3.83203125 1.18359375 C-5.49219871 1.26800904 -7.15235437 1.35265655 -8.8125 1.4375 C-9.64587891 1.47681641 -10.47925781 1.51613281 -11.33789062 1.55664062 C-12.14033203 1.59853516 -12.94277344 1.64042969 -13.76953125 1.68359375 C-14.87711792 1.73858032 -14.87711792 1.73858032 -16.00708008 1.79467773 C-18.207495 1.94842141 -18.207495 1.94842141 -21 3 C-23.1875 1.5625 -23.1875 1.5625 -25 0 C-16.51118727 -0.99418527 -8.49624785 -0.89073566 0 0 Z " fill="#26617C" transform="translate(498,639)"/>
<path d="M0 0 C3.35669311 0.45514483 5.46884286 0.37781558 8.6875 -0.5 C8.6875 0.49 8.6875 1.48 8.6875 2.5 C4.0675 2.5 -0.5525 2.5 -5.3125 2.5 C-5.3125 1.84 -5.3125 1.18 -5.3125 0.5 C-3.3125 -0.5 -3.3125 -0.5 0 0 Z " fill="#5798A9" transform="translate(303.3125,555.5)"/>
<path d="M0 0 C2.19797403 4.39594806 2.10073202 5.99267976 1.625 10.75 C1.51414062 11.92046875 1.40328125 13.0909375 1.2890625 14.296875 C1.19367187 15.18890625 1.09828125 16.0809375 1 17 C0.01 17 -0.98 17 -2 17 C-1.34 11.39 -0.68 5.78 0 0 Z " fill="#4898A0" transform="translate(616,577)"/>
<path d="M0 0 C0.33 0 0.66 0 1 0 C1.13277344 1.20398438 1.26554687 2.40796875 1.40234375 3.6484375 C1.5805302 5.22398085 1.7589265 6.79950047 1.9375 8.375 C2.02451172 9.1690625 2.11152344 9.963125 2.20117188 10.78125 C2.6038935 15.02255001 2.6038935 15.02255001 4 19 C3.34 19.66 2.68 20.32 2 21 C-0.21211746 13.94887561 -0.20177072 7.35342179 0 0 Z " fill="#46969F" transform="translate(500,550)"/>
<path d="M0 0 C2.31 0.33 4.62 0.66 7 1 C6.01 1.33 5.02 1.66 4 2 C3.67 4.31 3.34 6.62 3 9 C1.68 8.34 0.36 7.68 -1 7 C-0.67 4.69 -0.34 2.38 0 0 Z " fill="#2A6780" transform="translate(465,638)"/>
<path d="M0 0 C0 0.99 0 1.98 0 3 C-2.31 3.66 -4.62 4.32 -7 5 C-7 4.34 -7 3.68 -7 3 C-8.98 3.33 -10.96 3.66 -13 4 C-13 3.34 -13 2.68 -13 2 C-11.20873548 1.66451233 -9.41697413 1.33167645 -7.625 1 C-6.62726563 0.814375 -5.62953125 0.62875 -4.6015625 0.4375 C-2 0 -2 0 0 0 Z " fill="#5C9CAB" transform="translate(205,399)"/>
<path d="M0 0 C5.45769811 -0.11138159 10.61509359 0.08342019 16 1 C16 1.33 16 1.66 16 2 C7.585 2.495 7.585 2.495 -1 3 C-0.67 2.01 -0.34 1.02 0 0 Z " fill="#4FA1A6" transform="translate(523,712)"/>
<path d="M0 0 C1.32 0 2.64 0 4 0 C3.814375 0.721875 3.62875 1.44375 3.4375 2.1875 C2.98004693 5.12826973 3.26483643 7.14103058 4 10 C3.34 10 2.68 10 2 10 C0.68373308 6.38026598 0 3.90432869 0 0 Z " fill="#2B6982" transform="translate(594,555)"/>
<path d="M0 0 C-1.98 2.31 -3.96 4.62 -6 7 C-6.99 6.67 -7.98 6.34 -9 6 C-5.14285714 -1.71428571 -5.14285714 -1.71428571 0 0 Z " fill="#4A8DA1" transform="translate(171,421)"/>
<path d="M0 0 C0 3.72207387 -1.17964568 5.46395589 -3 8.6875 C-3.8353125 10.17830078 -3.8353125 10.17830078 -4.6875 11.69921875 C-5.3371875 12.83810547 -5.3371875 12.83810547 -6 14 C-6.66 14 -7.32 14 -8 14 C-6.15707826 8.93196521 -3.8447162 3.8447162 0 0 Z " fill="#86BCC0" transform="translate(397,231)"/>
<path d="M0 0 C0.99 0.33 1.98 0.66 3 1 C1.02 1.99 1.02 1.99 -1 3 C-1 3.66 -1 4.32 -1 5 C-0.34 5.33 0.32 5.66 1 6 C-0.65 6.33 -2.3 6.66 -4 7 C-4.33 7.99 -4.66 8.98 -5 10 C-5.33 9.01 -5.66 8.02 -6 7 C-4.78515625 5.17578125 -4.78515625 5.17578125 -3.0625 3.3125 C-2.49660156 2.68988281 -1.93070313 2.06726563 -1.34765625 1.42578125 C-0.90292969 0.95527344 -0.45820312 0.48476563 0 0 Z " fill="#2A6980" transform="translate(662,625)"/>
<path d="M0 0 C2.37507855 -0.02719556 4.74983964 -0.04693247 7.125 -0.0625 C8.12273438 -0.07506836 8.12273438 -0.07506836 9.140625 -0.08789062 C13.20681354 -0.10782292 17.0120092 0.21109839 21 1 C21 1.33 21 1.66 21 2 C18.69 2.66 16.38 3.32 14 4 C14 3.34 14 2.68 14 2 C7.07 1.505 7.07 1.505 0 1 C0 0.67 0 0.34 0 0 Z " fill="#4B8D9F" transform="translate(537,500)"/>
<path d="M0 0 C0.33 0 0.66 0 1 0 C1.144375 1.051875 1.28875 2.10375 1.4375 3.1875 C1.90328012 6.82607387 1.90328012 6.82607387 2.6875 9.625 C3.07990583 12.60728431 2.29672789 14.33026611 1 17 C0.67 17 0.34 17 0 17 C0 11.39 0 5.78 0 0 Z " fill="#6BA8B3" transform="translate(148,462)"/>
<path d="M0 0 C1.98 0 3.96 0 6 0 C6 2.31 6 4.62 6 7 C3.69 5.35 1.38 3.7 -1 2 C-0.67 1.34 -0.34 0.68 0 0 Z " fill="#4E91A3" transform="translate(364,304)"/>
<path d="M0 0 C0.33 0 0.66 0 1 0 C0.95875 0.94875 0.9175 1.8975 0.875 2.875 C0.65026182 6.10244856 0.65026182 6.10244856 3 8 C0.125 8.125 0.125 8.125 -3 8 C-3.66 7.34 -4.32 6.68 -5 6 C-4.34 5.34 -3.68 4.68 -3 4 C-2.484375 3.29875 -1.96875 2.5975 -1.4375 1.875 C-0.963125 1.25625 -0.48875 0.6375 0 0 Z " fill="#5998A8" transform="translate(559,151)"/>
<path d="M0 0 C0.79921875 0.02707031 1.5984375 0.05414063 2.421875 0.08203125 C3.02515625 0.11683594 3.6284375 0.15164063 4.25 0.1875 C2.47555028 2.43356427 1.66647515 3.13831002 -1.23046875 3.48046875 C-2.12378906 3.44566406 -3.01710938 3.41085937 -3.9375 3.375 C-4.83855469 3.34792969 -5.73960937 3.32085937 -6.66796875 3.29296875 C-7.69857422 3.24076172 -7.69857422 3.24076172 -8.75 3.1875 C-5.74754796 0.56379764 -3.97853212 -0.17552348 0 0 Z " fill="#408297" transform="translate(526.75,501.8125)"/>
<path d="M0 0 C0 0.66 0 1.32 0 2 C-4.455 3.485 -4.455 3.485 -9 5 C-9.66 4.34 -10.32 3.68 -11 3 C-10.34 3 -9.68 3 -9 3 C-9 2.34 -9 1.68 -9 1 C-6.04335481 -0.4783226 -3.25770263 -0.06032783 0 0 Z " fill="#4B8EA2" transform="translate(198,402)"/>
<path d="M0 0 C0 0.66 0 1.32 0 2 C-1.45736087 2.19491452 -2.91594593 2.38069358 -4.375 2.5625 C-5.18710937 2.66691406 -5.99921875 2.77132812 -6.8359375 2.87890625 C-9 3 -9 3 -11 2 C-11 2.66 -11 3.32 -11 4 C-11.99 4 -12.98 4 -14 4 C-14.33 3.01 -14.66 2.02 -15 1 C-12.8750734 0.83240016 -10.75005624 0.66594799 -8.625 0.5 C-7.44164062 0.4071875 -6.25828125 0.314375 -5.0390625 0.21875 C-3.36213157 0.09804546 -1.68126944 0 0 0 Z " fill="#26657B" transform="translate(514,637)"/>
<path d="M0 0 C1.32 0 2.64 0 4 0 C2.72278474 4.99275057 0.82669043 7.57611908 -3 11 C-3 9.68 -3 8.36 -3 7 C-2.01 6.34 -1.02 5.68 0 5 C0.25030977 2.41619823 0.25030977 2.41619823 0 0 Z " fill="#27667D" transform="translate(604,609)"/>
<path d="M0 0 C-0.66 0.66 -1.32 1.32 -2 2 C-2.99 1.67 -3.98 1.34 -5 1 C-5.78375 1.165 -6.5675 1.33 -7.375 1.5 C-10.25088353 2.04778734 -12.18910462 1.72280167 -15 1 C-15 0.67 -15 0.34 -15 0 C-13.06544546 -0.38991022 -11.12718172 -0.76145349 -9.1875 -1.125 C-8.10855469 -1.33382812 -7.02960937 -1.54265625 -5.91796875 -1.7578125 C-3 -2 -3 -2 0 0 Z " fill="#51A2A7" transform="translate(814,574)"/>
<path d="M0 0 C0.66 0.33 1.32 0.66 2 1 C1.690625 1.9075 1.38125 2.815 1.0625 3.75 C0.2727737 6.16563338 -0.42949297 8.52780285 -1 11 C-1.99 10.67 -2.98 10.34 -4 10 C-3.52449439 8.51965236 -3.04448784 7.04074979 -2.5625 5.5625 C-2.29566406 4.73878906 -2.02882812 3.91507812 -1.75390625 3.06640625 C-1 1 -1 1 0 0 Z " fill="#448A9E" transform="translate(140,435)"/>
<path d="M0 0 C5.75 0.75 5.75 0.75 8 3 C9.31747324 3.69748583 10.64914193 4.36959957 12 5 C12 5.99 12 6.98 12 8 C11.01 7.67 10.02 7.34 9 7 C9 6.34 9 5.68 9 5 C7.02 4.34 5.04 3.68 3 3 C3 2.34 3 1.68 3 1 C2.01 0.67 1.02 0.34 0 0 Z " fill="#95C2C2" transform="translate(590,167)"/>
<path d="M0 0 C0.33 1.32 0.66 2.64 1 4 C2.32 4.33 3.64 4.66 5 5 C3.5629191 5.05422947 2.12524538 5.09289723 0.6875 5.125 C-0.11300781 5.14820313 -0.91351562 5.17140625 -1.73828125 5.1953125 C-4 5 -4 5 -7 3 C-3.535 2.505 -3.535 2.505 0 2 C0 1.34 0 0.68 0 0 Z " fill="#5E9BA8" transform="translate(545,152)"/>
<path d="M0 0 C2.05078125 0.03255208 4.1015625 0.06510417 6.15234375 0.09765625 C5.16234375 1.58265625 5.16234375 1.58265625 4.15234375 3.09765625 C3.49234375 3.09765625 2.83234375 3.09765625 2.15234375 3.09765625 C2.15234375 2.43765625 2.15234375 1.77765625 2.15234375 1.09765625 C1.49234375 1.09765625 0.83234375 1.09765625 0.15234375 1.09765625 C0.15234375 1.75765625 0.15234375 2.41765625 0.15234375 3.09765625 C-1.82765625 4.08765625 -1.82765625 4.08765625 -3.84765625 5.09765625 C-2.72914438 0.14424653 -2.72914438 0.14424653 0 0 Z " fill="#3B7D94" transform="translate(541.84765625,500.90234375)"/>
<path d="M0 0 C2.64 0 5.28 0 8 0 C8 0.99 8 1.98 8 3 C6.02 3.33 4.04 3.66 2 4 C2 3.34 2 2.68 2 2 C1.34 2 0.68 2 0 2 C0 1.34 0 0.68 0 0 Z " fill="#88BCBE" transform="translate(729,328)"/>
<path d="M0 0 C5.4611399 0.35233161 5.4611399 0.35233161 8 1 C9.5 3.0625 9.5 3.0625 10 5 C6.64566891 4.05066101 3.30753495 3.10251165 0 2 C0 1.34 0 0.68 0 0 Z " fill="#5696A6" transform="translate(744,328)"/>
<path d="M0 0 C3.71599191 -0.20086443 4.77208445 -0.1519437 8 2 C8 2.66 8 3.32 8 4 C6.02 4 4.04 4 2 4 C1.34 2.68 0.68 1.36 0 0 Z " fill="#88BDBE" transform="translate(345,300)"/>
<path d="M0 0 C0 0.66 0 1.32 0 2 C-0.66 2 -1.32 2 -2 2 C-2.33 2.66 -2.66 3.32 -3 4 C-5.31 3.67 -7.62 3.34 -10 3 C-7.02931146 0.02931146 -4.09966187 0 0 0 Z " fill="#8BBFC1" transform="translate(310,297)"/>
<path d="M0 0 C0 0.66 0 1.32 0 2 C-1.65 2 -3.3 2 -5 2 C-5 2.66 -5 3.32 -5 4 C-5.99 4 -6.98 4 -8 4 C-8 3.34 -8 2.68 -8 2 C-8.66 1.34 -9.32 0.68 -10 0 C-3.375 -1.125 -3.375 -1.125 0 0 Z " fill="#9BC7C5" transform="translate(532,156)"/>
<path d="M0 0 C0.66 0.66 1.32 1.32 2 2 C0.59308393 2.72750788 -0.82606022 3.43140353 -2.25 4.125 C-3.03890625 4.51945313 -3.8278125 4.91390625 -4.640625 5.3203125 C-7 6 -7 6 -11 4 C-7.37 2.68 -3.74 1.36 0 0 Z " fill="#499BA2" transform="translate(569,645)"/>
<path d="M0 0 C-0.33 0.66 -0.66 1.32 -1 2 C-2.62463842 2.05395478 -4.24978541 2.09277195 -5.875 2.125 C-6.77992188 2.14820313 -7.68484375 2.17140625 -8.6171875 2.1953125 C-11 2 -11 2 -13 0 C-4.57142857 -1.28571429 -4.57142857 -1.28571429 0 0 Z " fill="#499AA1" transform="translate(536,656)"/>
<path d="M0 0 C0.33 0.99 0.66 1.98 1 3 C1.99 3.33 2.98 3.66 4 4 C3.67 4.33 3.34 4.66 3 5 C1.30858344 4.91036938 -0.37959602 4.75422324 -2.0625 4.5625 C-3.44115234 4.40974609 -3.44115234 4.40974609 -4.84765625 4.25390625 C-5.55792969 4.17011719 -6.26820313 4.08632813 -7 4 C-7 3.67 -7 3.34 -7 3 C-5.5459375 2.814375 -5.5459375 2.814375 -4.0625 2.625 C-2.5465625 2.315625 -2.5465625 2.315625 -1 2 C-0.67 1.34 -0.34 0.68 0 0 Z " fill="#377A90" transform="translate(698,571)"/>
<path d="M0 0 C4.29 0 8.58 0 13 0 C10 2 10 2 8 2 C8 2.66 8 3.32 8 4 C7.34 4 6.68 4 6 4 C6 3.01 6 2.02 6 1 C4.02 1 2.04 1 0 1 C0 0.67 0 0.34 0 0 Z " fill="#33758B" transform="translate(461,558)"/>
<path d="M0 0 C0.66 0.33 1.32 0.66 2 1 C1.67 3.97 1.34 6.94 1 10 C0.01 10.33 -0.98 10.66 -2 11 C-1.34 7.37 -0.68 3.74 0 0 Z " fill="#4EA0A6" transform="translate(648,645)"/>
<path d="M0 0 C3.63 0.66 7.26 1.32 11 2 C6.46780033 4.26609984 4.82227075 3.92735976 0 3 C0 2.01 0 1.02 0 0 Z " fill="#4FA0A6" transform="translate(222,573)"/>
<path d="M0 0 C0.99 0.33 1.98 0.66 3 1 C1.68 2.32 0.36 3.64 -1 5 C-2.32 4.34 -3.64 3.68 -5 3 C-2.6875 1.4375 -2.6875 1.4375 0 0 Z " fill="#468D9F" transform="translate(187,388)"/>
<path d="M0 0 C-0.99 1.485 -0.99 1.485 -2 3 C-5.625 3.6875 -5.625 3.6875 -9 4 C-9 3.34 -9 2.68 -9 2 C-5.86501708 0.14223235 -3.62528568 -0.20140476 0 0 Z " fill="#8ABEC0" transform="translate(703,332)"/>
<path d="M0 0 C6.15234375 0.5859375 6.15234375 0.5859375 8 1 C8.33 1.66 8.66 2.32 9 3 C6.03 3 3.06 3 0 3 C0 2.01 0 1.02 0 0 Z " fill="#50A0A7" transform="translate(423,690)"/>
<path d="M0 0 C0.66 0.33 1.32 0.66 2 1 C0.02 3.31 -1.96 5.62 -4 8 C-4.33 7.01 -4.66 6.02 -5 5 C-3.35 3.35 -1.7 1.7 0 0 Z " fill="#387890" transform="translate(500,515)"/>
<path d="M0 0 C2.31 0 4.62 0 7 0 C7.33 0.66 7.66 1.32 8 2 C5.69 2.66 3.38 3.32 1 4 C0.67 2.68 0.34 1.36 0 0 Z " fill="#90C3C4" transform="translate(744,331)"/>
<path d="M0 0 C3.3 0 6.6 0 10 0 C9.01 0.495 9.01 0.495 8 1 C7.67 1.66 7.34 2.32 7 3 C4.0625 2.625 4.0625 2.625 1 2 C0.67 1.34 0.34 0.68 0 0 Z " fill="#43889D" transform="translate(703,314)"/>
<path d="M0 0 C2.97 0 5.94 0 9 0 C8.01 0.33 7.02 0.66 6 1 C5.67 1.66 5.34 2.32 5 3 C3.68 3 2.36 3 1 3 C0.67 2.01 0.34 1.02 0 0 Z " fill="#4D9DA2" transform="translate(552,714)"/>
<path d="M0 0 C2.78637633 4.1795645 1.79562512 6.14668677 1 11 C0.67 11 0.34 11 0 11 C-0.19491452 9.54263913 -0.38069358 8.08405407 -0.5625 6.625 C-0.66691406 5.81289063 -0.77132812 5.00078125 -0.87890625 4.1640625 C-1 2 -1 2 0 0 Z " fill="#2A6B81" transform="translate(614,577)"/>
<path d="M0 0 C3.96 0 7.92 0 12 0 C12 0.99 12 1.98 12 3 C11.01 3.495 11.01 3.495 10 4 C10 3.01 10 2.02 10 1 C6.7 1 3.4 1 0 1 C0 0.67 0 0.34 0 0 Z " fill="#4FA4A6" transform="translate(247,576)"/>
<path d="M0 0 C1.134375 0.020625 2.26875 0.04125 3.4375 0.0625 C3.1075 1.0525 2.7775 2.0425 2.4375 3.0625 C0.5625 3.9375 0.5625 3.9375 -1.5625 4.0625 C-3.3125 2.625 -3.3125 2.625 -4.5625 1.0625 C-3.5625 0.0625 -3.5625 0.0625 0 0 Z " fill="#5495A6" transform="translate(183.5625,406.9375)"/>
<path d="M0 0 C0 0.66 0 1.32 0 2 C-2.64 2.66 -5.28 3.32 -8 4 C-7.67 3.01 -7.34 2.02 -7 1 C-4.52260646 0.09162237 -2.66420516 0 0 0 Z " fill="#89BCBF" transform="translate(692,336)"/>
<path d="M0 0 C0.99 0.66 1.98 1.32 3 2 C-0.465 3.485 -0.465 3.485 -4 5 C-4 4.34 -4 3.68 -4 3 C-4.66 2.67 -5.32 2.34 -6 2 C-3.1875 0.875 -3.1875 0.875 0 0 Z " fill="#53A4A7" transform="translate(829,566)"/>
<path d="M0 0 C-1.125 1.5 -1.125 1.5 -3 3 C-6.1875 3.1875 -6.1875 3.1875 -9 3 C-6.38997624 -0.48003168 -4.1689578 -0.27793052 0 0 Z " fill="#8BBFC1" transform="translate(299,300)"/>
<path d="M0 0 C0.66 0.33 1.32 0.66 2 1 C1.25 3.4375 1.25 3.4375 0 6 C-2 6.9375 -2 6.9375 -4 7 C-4.66 6.34 -5.32 5.68 -6 5 C-4.68 5 -3.36 5 -2 5 C-1.34 3.35 -0.68 1.7 0 0 Z " fill="#5495A7" transform="translate(616,171)"/>
<path d="M0 0 C-0.33 0.99 -0.66 1.98 -1 3 C-2.65 2.67 -4.3 2.34 -6 2 C-6 1.34 -6 0.68 -6 0 C-3 -1 -3 -1 0 0 Z " fill="#5294A7" transform="translate(510,155)"/>
</svg>
